<svg width="12" height="12" viewBox="0 0 12 12" fill="none" xmlns="http://www.w3.org/2000/svg">
<path d="M12 1.00006C12 1.30006 11.9 1.50006 11.7 1.70006L1.7 11.7001C1.3 12.1001 0.700001 12.1001 0.300001 11.7001C-0.0999995 11.3001 -0.0999995 10.7001 0.3 10.3001L10.3 0.300061C10.7 -0.0999398 11.3 -0.0999398 11.7 0.300061C11.9 0.500061 12 0.700061 12 1.00006Z" fill="white"/>
<path d="M11.9999 1L11.9999 10C11.9999 10.6 11.5999 11 10.9999 11C10.3999 11 9.99991 10.6 9.99991 10L9.99991 2L1.99991 2C1.39991 2 0.999909 1.6 0.999909 1C0.999909 0.400001 1.39991 9.3619e-07 1.99991 9.09963e-07L10.9999 5.1656e-07C11.5999 4.90334e-07 11.9999 0.4 11.9999 1Z" fill="white"/>
</svg>
