<svg width="24" height="24" viewBox="0 0 24 24" fill="none" xmlns="http://www.w3.org/2000/svg">
<g clip-path="url(#clip0_829_146)">
<mask id="mask0_829_146" style="mask-type:luminance" maskUnits="userSpaceOnUse" x="0" y="0" width="24" height="24">
<path d="M24 0H0V24H24V0Z" fill="white"/>
</mask>
<g mask="url(#mask0_829_146)">
<path d="M14.9652 22.1384C16.0052 22.8103 17.2445 23.1032 18.4747 22.9676C19.7049 22.8321 20.851 22.2765 21.7204 21.3942L22.4802 20.65C22.8135 20.3087 23 19.8503 23 19.373C23 18.8956 22.8135 18.4373 22.4802 18.096L19.2548 14.8993C18.9168 14.5667 18.4619 14.3803 17.9882 14.3803C17.5143 14.3803 17.0595 14.5667 16.7216 14.8993C16.3808 15.233 15.9231 15.4198 15.4466 15.4198C14.97 15.4198 14.5123 15.233 14.1715 14.8993L9.10517 9.82517C8.93616 9.65837 8.80195 9.45957 8.71035 9.24034C8.61873 9.02112 8.57156 8.78584 8.57156 8.54818C8.57156 8.31053 8.61873 8.07525 8.71035 7.85603C8.80195 7.6368 8.93616 7.438 9.10517 7.27119C9.43727 6.93274 9.62337 6.4772 9.62337 6.00266C9.62337 5.52813 9.43727 5.07258 9.10517 4.73413L5.89649 1.52052C5.55571 1.18684 5.09805 1 4.62146 1C4.14488 1 3.68722 1.18684 3.34643 1.52052L2.60338 2.28164C1.72242 3.15226 1.16763 4.30012 1.03231 5.53223C0.896988 6.76434 1.18938 8.00554 1.86031 9.04714C5.35616 14.2071 9.80422 18.6505 14.9652 22.1384Z" stroke="white" stroke-width="1.5" stroke-linecap="round" stroke-linejoin="round"/>
</g>
</g>
<defs>
<clipPath id="clip0_829_146">
<rect width="24" height="24" fill="white"/>
</clipPath>
</defs>
</svg>
