<?xml version="1.0" encoding="utf-8"?>
<!-- Generator: Adobe Illustrator 24.0.2, SVG Export Plug-In . SVG Version: 6.00 Build 0)  -->
<svg version="1.1" id="Capa_1" xmlns="http://www.w3.org/2000/svg" xmlns:xlink="http://www.w3.org/1999/xlink" x="0px" y="0px"
	 viewBox="0 0 20 20" style="enable-background:new 0 0 20 20;" xml:space="preserve">
<style type="text/css">
	.st0{clip-path:url(#SVGID_2_);}
	.st1{fill:none;stroke:#0079F0;stroke-width:1.5;stroke-linecap:round;stroke-linejoin:round;}
</style>
<g>
	<defs>
		<rect id="SVGID_1_" width="20" height="20"/>
	</defs>
	<clipPath id="SVGID_2_">
		<use xlink:href="#SVGID_1_"  style="overflow:visible;"/>
	</clipPath>
	<g class="st0">
		<path class="st1" d="M12.5,18.6c0.9,0.6,1.9,0.8,3,0.7c1-0.1,2-0.6,2.7-1.3l0.6-0.6c0.3-0.3,0.4-0.7,0.4-1.1
			c0-0.4-0.2-0.8-0.4-1.1l-2.7-2.7c-0.3-0.3-0.7-0.4-1.1-0.4c-0.4,0-0.8,0.2-1.1,0.4l0,0c-0.3,0.3-0.7,0.4-1.1,0.4
			c-0.4,0-0.8-0.2-1.1-0.4L7.6,8.2C7.4,8,7.3,7.9,7.2,7.7C7.1,7.5,7.1,7.3,7.1,7.1c0-0.2,0-0.4,0.1-0.6C7.3,6.3,7.4,6.2,7.6,6l0,0
			C7.8,5.7,8,5.3,8,4.9c0-0.4-0.2-0.8-0.4-1.1L4.8,1.2C4.6,0.9,4.2,0.7,3.8,0.7C3.4,0.7,3,0.9,2.7,1.2L2.1,1.8
			C1.3,2.5,0.8,3.5,0.7,4.5c-0.1,1,0.1,2.1,0.7,3C4.4,11.9,8.1,15.6,12.5,18.6L12.5,18.6z"/>
	</g>
</g>
</svg>
