<svg width="32" height="32" viewBox="0 0 32 32" fill="none" xmlns="http://www.w3.org/2000/svg">
<g clip-path="url(#clip0_346_1652)">
<path fill-rule="evenodd" clip-rule="evenodd" d="M14.6808 1.92223C14.7182 1.76259 14.8563 1.64573 15.0203 1.63598C15.1843 1.62622 15.3353 1.72588 15.3913 1.87997C15.3913 1.87997 16.1711 4.02067 17.007 6.31675C18.3389 9.97482 21.4253 12.7147 25.2155 13.6036C27.5944 14.1615 29.8125 14.682 29.8125 14.682C29.9721 14.7194 30.089 14.8575 30.0987 15.0215C30.1085 15.1855 30.0088 15.3365 29.8547 15.3925C29.8547 15.3925 27.714 16.1723 25.4179 17.0082C21.7599 18.3401 19.02 21.4265 18.131 25.2167C17.5732 27.5956 17.0527 29.8137 17.0527 29.8137C17.0153 29.9733 16.8772 30.0902 16.7132 30.0999C16.5492 30.1097 16.3982 30.01 16.3422 29.8559C16.3422 29.8559 15.5624 27.7152 14.7265 25.4191C13.3946 21.7611 10.3082 19.0212 6.51803 18.1323C4.13906 17.5744 1.92103 17.0539 1.92103 17.0539C1.76138 17.0165 1.64453 16.8784 1.63478 16.7144C1.62502 16.5504 1.72468 16.3994 1.87877 16.3434C1.87877 16.3434 4.01947 15.5636 6.31555 14.7277C9.9736 13.3958 12.7135 10.3094 13.6024 6.51924C14.1603 4.14026 14.6808 1.92223 14.6808 1.92223Z" fill="white"/>
</g>
<defs>
<clipPath id="clip0_346_1652">
<rect width="30" height="30" fill="white" transform="translate(0 1.78125) rotate(-3.40366)"/>
</clipPath>
</defs>
</svg>
