<svg width="12" height="12" viewBox="0 0 12 12" fill="none" xmlns="http://www.w3.org/2000/svg">
<g clip-path="url(#clip0_829_230)">
<path d="M12 1C12 1.3 11.9 1.5 11.7 1.7L1.7 11.7C1.3 12.1 0.7 12.1 0.3 11.7C-0.1 11.3 -0.1 10.7 0.3 10.3L10.3 0.300001C10.7 -0.1 11.3 -0.1 11.7 0.300001C11.9 0.500001 12 0.700001 12 1Z" fill="#161616"/>
<path d="M12 0.999999V10C12 10.6 11.6 11 11 11C10.4 11 10 10.6 10 10V2H2C1.4 2 1 1.6 1 0.999999C1 0.4 1.4 4.1963e-07 2 3.93403e-07L11 0C11.6 -2.6226e-08 12 0.399999 12 0.999999Z" fill="#161616"/>
</g>
<defs>
<clipPath id="clip0_829_230">
<rect width="12" height="12" fill="white"/>
</clipPath>
</defs>
</svg>
