<svg width="146" height="36" viewBox="0 0 146 36" fill="none" xmlns="http://www.w3.org/2000/svg">
<path d="M23.4824 18.0238C24.6739 17.0333 25.4316 15.5454 25.4316 13.8818C25.4316 12.2183 24.6739 10.7305 23.4824 9.73994C23.619 9.67428 23.7504 9.60304 23.8756 9.52583C24.6659 9.03797 25.5987 8.75623 26.5978 8.75623C29.4491 8.75623 31.7606 11.0511 31.7606 13.8818C31.7606 16.7127 29.4491 19.0075 26.5978 19.0075C25.5987 19.0075 24.6659 18.7257 23.8756 18.2379C23.7504 18.1607 23.619 18.0895 23.4824 18.0238Z" fill="#EF4823"/>
<path d="M22.049 14.6889C22.582 13.2396 22.4888 11.575 21.651 10.1343C20.8132 8.69367 19.4077 7.78127 17.877 7.51486C17.9622 7.39025 18.04 7.26331 18.1095 7.1343C18.5483 6.31951 19.2142 5.61246 20.0795 5.11652C22.5489 3.70111 25.7065 4.54108 27.1321 6.99263C28.5578 9.44419 27.7117 12.579 25.2423 13.9944C24.3771 14.4903 23.4273 14.7094 22.4972 14.6792C22.35 14.6744 22.2003 14.678 22.049 14.6889Z" fill="#EF4823"/>
<path d="M19.1285 12.5123C18.8602 10.9926 17.9411 9.59726 16.49 8.76549C15.0389 7.93372 13.3622 7.84126 11.9023 8.37037C11.9134 8.22018 11.9169 8.07157 11.9121 7.92537C11.8817 7.00194 12.1024 6.05904 12.6019 5.20003C14.0276 2.74847 17.1852 1.90851 19.6546 3.32391C22.1239 4.73932 22.97 7.87411 21.5443 10.3257C21.0447 11.1847 20.3326 11.8458 19.5118 12.2814C19.3819 12.3504 19.2541 12.4277 19.1285 12.5123Z" fill="#EF4823"/>
<path d="M15.5009 12.0778C14.5032 10.8949 13.0045 10.1427 11.3289 10.1427C9.65322 10.1427 8.15461 10.8949 7.15686 12.0778C7.09077 11.9422 7.01899 11.8118 6.94119 11.6875C6.44981 10.9029 6.16602 9.97682 6.16602 8.98491C6.16602 6.15408 8.47751 3.85925 11.3289 3.85925C14.1803 3.85925 16.4917 6.15408 16.4917 8.98491C16.4917 9.97682 16.208 10.9029 15.7166 11.6875C15.6387 11.8118 15.567 11.9422 15.5009 12.0778Z" fill="#EF4823"/>
<path d="M12.1411 13.5015C10.6813 12.9724 9.0046 13.0649 7.55346 13.8966C6.10233 14.7284 5.1833 16.1237 4.91497 17.6434C4.78945 17.5588 4.66159 17.4815 4.53164 17.4125C3.71093 16.9769 2.99875 16.3158 2.4992 15.4568C1.07351 13.0052 1.91957 9.87045 4.38894 8.45502C6.8583 7.03961 10.0158 7.87957 11.4416 10.3312C11.9411 11.1901 12.1618 12.133 12.1313 13.0564C12.1265 13.2026 12.1301 13.3513 12.1411 13.5015Z" fill="#EF4823"/>
<path d="M9.94775 16.4024C8.417 16.6688 7.0115 17.5812 6.17369 19.0218C5.33588 20.4625 5.24275 22.1271 5.77571 23.5764C5.62441 23.5654 5.47469 23.5619 5.32742 23.5666C4.39729 23.5969 3.44755 23.3778 2.5823 22.8819C0.112934 21.4664 -0.733132 18.3317 0.692555 15.8801C2.11824 13.4286 5.2758 12.5885 7.74517 14.004C8.61041 14.4999 9.27635 15.207 9.71511 16.0217C9.78458 16.1507 9.86254 16.2777 9.94775 16.4024Z" fill="#EF4823"/>
<path d="M9.50868 20.0032C8.3172 20.9937 7.5595 22.4816 7.5595 24.1451C7.5595 25.8086 8.3172 27.2965 9.50868 28.287C9.37214 28.3526 9.24072 28.4239 9.11558 28.5011C8.32526 28.9889 7.39244 29.2707 6.39333 29.2707C3.54196 29.2707 1.23047 26.9759 1.23047 24.1451C1.23047 21.3142 3.54196 19.0194 6.39333 19.0194C7.39244 19.0194 8.32526 19.3012 9.11558 19.7891C9.24072 19.8663 9.37214 19.9375 9.50868 20.0032Z" fill="#EF4823"/>
<path d="M10.9437 23.339C10.4107 24.7883 10.5038 26.4529 11.3416 27.8936C12.1794 29.3343 13.585 30.2466 15.1157 30.513C15.0305 30.6377 14.9526 30.7647 14.8831 30.8937C14.4444 31.7084 13.7784 32.4154 12.9132 32.9114C10.4438 34.3269 7.28621 33.4868 5.86053 31.0353C4.43483 28.5837 5.28091 25.449 7.75026 24.0335C8.61552 23.5376 9.56528 23.3185 10.4954 23.3487C10.6426 23.3535 10.7923 23.35 10.9437 23.339Z" fill="#EF4823"/>
<path d="M13.8641 25.5165C14.1325 27.0362 15.0515 28.4315 16.5026 29.2632C17.9538 30.095 19.6306 30.1875 21.0904 29.6584C21.0793 29.8086 21.0758 29.9572 21.0805 30.1034C21.111 31.0268 20.8904 31.9698 20.3908 32.8287C18.9651 35.2803 15.8076 36.1203 13.3382 34.7048C10.8688 33.2894 10.0227 30.1547 11.4485 27.7031C11.948 26.8441 12.6602 26.183 13.4808 25.7474C13.6108 25.6784 13.7387 25.601 13.8641 25.5165Z" fill="#EF4823"/>
<path d="M17.4908 25.9518C18.4886 27.1347 19.9872 27.8869 21.6629 27.8869C23.3385 27.8869 24.8372 27.1347 25.8349 25.9518C25.901 26.0874 25.9727 26.2178 26.0506 26.342C26.5419 27.1266 26.8257 28.0528 26.8257 29.0447C26.8257 31.8755 24.5143 34.1703 21.6629 34.1703C18.8115 34.1703 16.5 31.8755 16.5 29.0447C16.5 28.0528 16.7838 27.1266 17.2751 26.342C17.353 26.2178 17.4248 26.0874 17.4908 25.9518Z" fill="#EF4823"/>
<path d="M20.8516 24.5286C22.3114 25.0577 23.9881 24.9653 25.4392 24.1336C26.8903 23.3018 27.8094 21.9064 28.0777 20.3867C28.2032 20.4712 28.3311 20.5486 28.461 20.6176C29.2818 21.0532 29.9939 21.7144 30.4935 22.5733C31.9192 25.0249 31.0731 28.1597 28.6038 29.5752C26.1344 30.9905 22.9769 30.1506 21.5511 27.699C21.0516 26.84 20.831 25.8971 20.8613 24.9737C20.8662 24.8275 20.8626 24.6789 20.8516 24.5286Z" fill="#EF4823"/>
<path d="M26.822 19.0029C26.821 19.0047 26.8199 19.0065 26.8189 19.0083C25.9811 20.449 24.5756 21.3614 23.0449 21.6278C23.13 21.7525 23.208 21.8794 23.2775 22.0084C23.7162 22.8232 24.3822 23.5302 25.2474 24.0262C27.7168 25.4416 30.8743 24.6016 32.3001 22.1501C33.5223 20.0483 33.0748 17.4443 31.3663 15.8522C30.6156 17.6405 28.8739 18.9162 26.822 19.0029Z" fill="#EF4823"/>
<path d="M45.099 9.32302V24.6315H41.6816V9.32302H45.099ZM42.2234 24.6315L42.2859 21.6319H51.1418V24.6315H42.2234ZM51.6766 19.439C51.6766 18.3495 51.9058 17.3979 52.3643 16.5842C52.8227 15.7567 53.4686 15.1154 54.3021 14.6603C55.1356 14.2052 56.108 13.9776 57.2194 13.9776C58.3307 13.9776 59.2961 14.2052 60.1157 14.6603C60.9493 15.1154 61.5952 15.7567 62.0536 16.5842C62.512 17.3979 62.7412 18.3495 62.7412 19.439C62.7412 20.5286 62.512 21.4802 62.0536 22.2939C61.5952 23.1076 60.9493 23.742 60.1157 24.1971C59.2961 24.6522 58.3307 24.8797 57.2194 24.8797C56.108 24.8797 55.1356 24.6522 54.3021 24.1971C53.4686 23.742 52.8227 23.1076 52.3643 22.2939C51.9058 21.4802 51.6766 20.5286 51.6766 19.439ZM54.9064 19.4184C54.9064 19.9424 55.0036 20.4045 55.1981 20.8044C55.3926 21.1906 55.6635 21.4939 56.0107 21.7147C56.3581 21.9215 56.761 22.0249 57.2194 22.0249C57.6778 22.0249 58.0806 21.9215 58.4279 21.7147C58.7752 21.4939 59.0391 21.1906 59.2198 20.8044C59.4142 20.4045 59.5115 19.9424 59.5115 19.4184C59.5115 18.8943 59.4142 18.4392 59.2198 18.053C59.0391 17.6669 58.7752 17.3703 58.4279 17.1634C58.0806 16.9428 57.6778 16.8324 57.2194 16.8324C56.761 16.8324 56.3581 16.9428 56.0107 17.1634C55.6635 17.3703 55.3926 17.6669 55.1981 18.053C55.0036 18.4392 54.9064 18.8943 54.9064 19.4184ZM63.4659 19.2736C63.4659 18.2116 63.6812 17.2807 64.1118 16.4808C64.5425 15.6809 65.1329 15.0603 65.883 14.6189C66.6331 14.1638 67.4944 13.9362 68.4668 13.9362C69.2864 13.9362 70.0088 14.1017 70.6339 14.4327C71.273 14.7637 71.7035 15.1982 71.9259 15.736L71.6133 15.9429L71.8634 14.288H74.7597V23.9695C74.7597 25.1832 74.5235 26.2314 74.0513 27.114C73.5789 28.0104 72.9052 28.7 72.03 29.1827C71.1688 29.6654 70.1408 29.9068 68.946 29.9068C67.9459 29.9068 67.043 29.7068 66.2372 29.3068C65.4454 28.9206 64.7995 28.369 64.2993 27.6518C63.8131 26.9347 63.5214 26.1072 63.4242 25.1694H66.6748C66.7026 25.7624 66.9388 26.2175 67.3833 26.5348C67.8417 26.852 68.4251 27.0106 69.1337 27.0106C69.9255 27.0106 70.5367 26.7899 70.9673 26.3485C71.398 25.921 71.6133 25.3487 71.6133 24.6315V22.4387L71.905 22.7076C71.6827 23.2455 71.2521 23.6799 70.6131 24.0109C69.9741 24.3419 69.2379 24.5074 68.4043 24.5074C67.4458 24.5074 66.5914 24.2868 65.8413 23.8454C65.1051 23.4041 64.5216 22.7904 64.0909 22.0043C63.6742 21.2182 63.4659 20.3079 63.4659 19.2736ZM66.7164 19.1908C66.7164 19.6873 66.8206 20.1286 67.0291 20.5147C67.2375 20.901 67.5152 21.2043 67.8626 21.425C68.2098 21.6319 68.5918 21.7353 69.0086 21.7353C69.5087 21.7353 69.9463 21.6319 70.3214 21.425C70.7104 21.2043 71.009 20.901 71.2174 20.5147C71.4396 20.1286 71.5508 19.6873 71.5508 19.1908C71.5508 18.6805 71.4396 18.2461 71.2174 17.8875C70.9951 17.5152 70.6895 17.2255 70.3005 17.0187C69.9255 16.8118 69.4879 16.7083 68.9877 16.7083C68.571 16.7083 68.189 16.8118 67.8417 17.0187C67.4944 17.2255 67.2166 17.5152 67.0083 17.8875C66.8137 18.2599 66.7164 18.6943 66.7164 19.1908ZM75.9034 19.439C75.9034 18.3495 76.1326 17.3979 76.591 16.5842C77.0494 15.7567 77.6954 15.1154 78.5289 14.6603C79.3623 14.2052 80.3348 13.9776 81.4461 13.9776C82.5574 13.9776 83.5229 14.2052 84.3426 14.6603C85.176 15.1154 85.8219 15.7567 86.2803 16.5842C86.7388 17.3979 86.968 18.3495 86.968 19.439C86.968 20.5286 86.7388 21.4802 86.2803 22.2939C85.8219 23.1076 85.176 23.742 84.3426 24.1971C83.5229 24.6522 82.5574 24.8797 81.4461 24.8797C80.3348 24.8797 79.3623 24.6522 78.5289 24.1971C77.6954 23.742 77.0494 23.1076 76.591 22.2939C76.1326 21.4802 75.9034 20.5286 75.9034 19.439ZM79.1331 19.4184C79.1331 19.9424 79.2304 20.4045 79.4248 20.8044C79.6193 21.1906 79.8902 21.4939 80.2376 21.7147C80.5848 21.9215 80.9877 22.0249 81.4461 22.0249C81.9045 22.0249 82.3074 21.9215 82.6547 21.7147C83.0019 21.4939 83.2659 21.1906 83.4465 20.8044C83.641 20.4045 83.7382 19.9424 83.7382 19.4184C83.7382 18.8943 83.641 18.4392 83.4465 18.053C83.2659 17.6669 83.0019 17.3703 82.6547 17.1634C82.3074 16.9428 81.9045 16.8324 81.4461 16.8324C80.9877 16.8324 80.5848 16.9428 80.2376 17.1634C79.8902 17.3703 79.6193 17.6669 79.4248 18.053C79.2304 18.4392 79.1331 18.8943 79.1331 19.4184ZM88.3178 24.6315V14.288H91.5475V24.6315H88.3178ZM89.943 12.6743C89.4291 12.6743 88.9915 12.5019 88.6303 12.1572C88.283 11.7986 88.1094 11.3641 88.1094 10.8539C88.1094 10.3436 88.283 9.91606 88.6303 9.57122C88.9915 9.22647 89.4291 9.05408 89.943 9.05408C90.4432 9.05408 90.8668 9.22647 91.2141 9.57122C91.5753 9.91606 91.7559 10.3436 91.7559 10.8539C91.7559 11.3641 91.5753 11.7986 91.2141 12.1572C90.8668 12.5019 90.4432 12.6743 89.943 12.6743ZM93.636 29.5965V14.288H96.5745L96.7405 15.5499C97.0325 15.0672 97.4982 14.681 98.1366 14.3913C98.7759 14.1017 99.464 13.957 100.2 13.957C101.172 13.957 102.019 14.1707 102.742 14.5982C103.464 15.0258 104.034 15.6395 104.451 16.4394C104.867 17.2255 105.089 18.1771 105.118 19.2942C105.146 20.3837 104.964 21.3561 104.576 22.2111C104.187 23.0524 103.624 23.7144 102.888 24.1971C102.151 24.6798 101.263 24.9211 100.221 24.9211C99.4983 24.9211 98.8246 24.797 98.1996 24.5488C97.5745 24.3005 97.1089 23.9833 96.8035 23.5972V29.5965H93.636ZM96.8655 19.4598C96.8655 19.97 96.9696 20.4251 97.1785 20.8251C97.4009 21.2112 97.6996 21.5147 98.0746 21.7353C98.463 21.9422 98.9076 22.0456 99.4077 22.0456C99.922 22.0456 100.36 21.9353 100.721 21.7147C101.096 21.4939 101.381 21.1906 101.575 20.8044C101.784 20.4182 101.888 19.97 101.888 19.4598C101.888 18.9494 101.784 18.5012 101.575 18.1151C101.381 17.7289 101.096 17.4255 100.721 17.2048C100.36 16.9842 99.922 16.8738 99.4077 16.8738C98.9076 16.8738 98.463 16.9842 98.0746 17.2048C97.6996 17.4117 97.4009 17.7083 97.1785 18.0944C96.9696 18.4806 96.8655 18.9357 96.8655 19.4598ZM105.668 21.3629H108.565C108.565 21.7215 108.682 22.0043 108.919 22.2111C109.169 22.418 109.529 22.5215 110.002 22.5215C110.279 22.5215 110.509 22.487 110.69 22.418C110.884 22.349 111.03 22.2525 111.127 22.1284C111.238 21.9905 111.294 21.8388 111.294 21.6733C111.294 21.4939 111.232 21.3423 111.107 21.2182C110.995 21.0941 110.8 20.9975 110.523 20.9286L108.69 20.4527C107.661 20.1769 106.932 19.77 106.502 19.2322C106.07 18.6943 105.856 18.0806 105.856 17.391C105.856 16.7014 106.029 16.1015 106.377 15.5913C106.737 15.0672 107.224 14.6672 107.835 14.3913C108.446 14.1017 109.133 13.957 109.898 13.957C111.05 13.957 111.995 14.2741 112.732 14.9086C113.482 15.5291 113.878 16.3773 113.92 17.453H111.023C111.037 17.0945 110.933 16.8118 110.711 16.6049C110.488 16.3842 110.196 16.2739 109.836 16.2739C109.516 16.2739 109.252 16.3566 109.044 16.5222C108.849 16.6738 108.752 16.8876 108.752 17.1634C108.752 17.4255 108.849 17.6185 109.044 17.7427C109.238 17.853 109.502 17.9496 109.836 18.0324L111.69 18.4875C112.551 18.6943 113.204 19.046 113.649 19.5425C114.094 20.039 114.315 20.6734 114.315 21.4457C114.315 22.5076 113.92 23.3489 113.128 23.9695C112.336 24.5901 111.308 24.9005 110.044 24.9005C108.738 24.9005 107.689 24.5764 106.898 23.9282C106.119 23.2662 105.71 22.4111 105.668 21.3629ZM119.435 24.9005C118.213 24.9005 117.268 24.5212 116.601 23.7627C115.935 23.0041 115.601 22.0111 115.601 20.7837V14.288H118.81V19.6253C118.81 20.5906 118.984 21.2388 119.331 21.5698C119.679 21.9008 120.137 22.0663 120.706 22.0663C121.443 22.0663 121.95 21.8594 122.228 21.4457C122.505 21.032 122.645 20.439 122.645 19.6666V14.288H125.854V24.6315H122.833L122.624 23.4731C122.304 23.9005 121.853 24.2454 121.269 24.5074C120.685 24.7695 120.075 24.9005 119.435 24.9005ZM131.151 24.6315H127.921V14.288H130.922L131.151 16.067L130.797 15.6946C131.074 15.1705 131.491 14.7499 132.047 14.4327C132.616 14.1017 133.227 13.9362 133.881 13.9362C134.909 13.9362 135.714 14.1638 136.298 14.6189C136.895 15.074 137.326 15.674 137.589 16.4187H137.089C137.256 15.674 137.659 15.074 138.298 14.6189C138.937 14.1638 139.701 13.9362 140.59 13.9362C141.938 13.9362 142.931 14.2948 143.57 15.012C144.209 15.7291 144.528 16.6807 144.528 17.8668V24.6315H141.403V18.653C141.403 18.0047 141.243 17.522 140.923 17.2048C140.618 16.8876 140.208 16.7291 139.694 16.7291C139.389 16.7291 139.097 16.798 138.819 16.9359C138.541 17.06 138.311 17.2875 138.131 17.6185C137.951 17.9358 137.86 18.3909 137.86 18.9839V24.6315H134.693V18.653C134.693 18.0047 134.54 17.5289 134.235 17.2255C133.929 16.9083 133.519 16.7497 133.005 16.7497C132.699 16.7497 132.401 16.8187 132.109 16.9566C131.831 17.0807 131.602 17.3083 131.422 17.6393C131.241 17.9565 131.151 18.4047 131.151 18.9839V24.6315Z" fill="#161616"/>
</svg>
