<svg width="146" height="36" viewBox="0 0 146 36" fill="none" xmlns="http://www.w3.org/2000/svg">
<path d="M40.7598 24.707H51.3056V21.546H44.508V9.63965H40.7598V24.707Z" fill="#161616"/>
<path d="M57.5527 22.5992C56.0491 22.5992 55.2656 21.2927 55.2656 19.3329C55.2656 17.3731 56.0491 16.0455 57.5527 16.0455C59.0562 16.0455 59.8609 17.3731 59.8609 19.3329C59.8609 21.2927 59.0562 22.5992 57.5527 22.5992ZM57.5738 25.0437C61.068 25.0437 63.355 22.5782 63.355 19.3329C63.355 16.0876 61.068 13.6221 57.5738 13.6221C54.1009 13.6221 51.7715 16.0876 51.7715 19.3329C51.7715 22.5782 54.1009 25.0437 57.5738 25.0437Z" fill="#161616"/>
<path d="M69.4021 28.4361C71.0115 28.4361 72.4303 28.0779 73.3832 27.2349C74.2515 26.4552 74.8232 25.2751 74.8232 23.6525V13.9167H71.5197V15.0757H71.4774C70.8421 14.1696 69.8679 13.6006 68.4279 13.6006C65.7385 13.6006 63.875 15.8343 63.875 18.9953C63.875 22.3038 66.1409 24.1161 68.5762 24.1161C69.8891 24.1161 70.715 23.5893 71.3503 22.8728H71.435V23.9475C71.435 25.254 70.8209 26.0127 69.3597 26.0127C68.2162 26.0127 67.6444 25.528 67.4538 24.959H64.1079C64.4468 27.2139 66.4162 28.4361 69.4021 28.4361ZM69.3809 21.5662C68.0891 21.5662 67.2421 20.5126 67.2421 18.89C67.2421 17.2462 68.0891 16.1926 69.3809 16.1926C70.8209 16.1926 71.5832 17.4148 71.5832 18.8689C71.5832 20.3861 70.8844 21.5662 69.3809 21.5662Z" fill="#161616"/>
<path d="M81.6171 22.5992C80.1136 22.5992 79.3301 21.2927 79.3301 19.3329C79.3301 17.3731 80.1136 16.0455 81.6171 16.0455C83.1206 16.0455 83.9253 17.3731 83.9253 19.3329C83.9253 21.2927 83.1206 22.5992 81.6171 22.5992ZM81.6383 25.0437C85.1324 25.0437 87.4195 22.5782 87.4195 19.3329C87.4195 16.0876 85.1324 13.6221 81.6383 13.6221C78.1654 13.6221 75.8359 16.0876 75.8359 19.3329C75.8359 22.5782 78.1654 25.0437 81.6383 25.0437Z" fill="#161616"/>
<path d="M88.4277 24.707H91.8795V13.9175H88.4277V24.707ZM88.4277 12.4213H91.8795V9.63965H88.4277V12.4213Z" fill="#161616"/>
<path d="M93.377 28.2675H96.8287V23.5893H96.8711C97.5487 24.4954 98.544 25.0433 99.9417 25.0433C102.779 25.0433 104.664 22.8096 104.664 19.3114C104.664 16.0661 102.906 13.6006 100.026 13.6006C98.544 13.6006 97.4852 14.2539 96.744 15.2232H96.6805V13.9167H93.377V28.2675ZM99.0522 22.3881C97.5699 22.3881 96.7228 21.1869 96.7228 19.4379C96.7228 17.6888 97.4852 16.3612 98.9887 16.3612C100.471 16.3612 101.17 17.5834 101.17 19.4379C101.17 21.2712 100.365 22.3881 99.0522 22.3881Z" fill="#161616"/>
<path d="M110.285 25.0433C113.122 25.0433 115.219 23.8211 115.219 21.4609C115.219 18.7003 112.974 18.2156 111.068 17.8995C109.692 17.6466 108.463 17.5413 108.463 16.7826C108.463 16.1083 109.12 15.7922 109.967 15.7922C110.92 15.7922 111.576 16.0872 111.703 17.0566H114.88C114.711 14.9282 113.059 13.6006 109.988 13.6006C107.426 13.6006 105.308 14.7807 105.308 17.0566C105.308 19.5854 107.32 20.0911 109.205 20.4072C110.645 20.6601 111.958 20.7655 111.958 21.7348C111.958 22.4302 111.301 22.8096 110.263 22.8096C109.12 22.8096 108.4 22.2827 108.273 21.208H105.012C105.118 23.5893 107.108 25.0433 110.285 25.0433Z" fill="#161616"/>
<path d="M119.907 25.0227C121.411 25.0227 122.364 24.4326 123.147 23.379H123.211V24.7066H126.515V13.9171H123.063V19.944C123.063 21.2295 122.343 22.1146 121.157 22.1146C120.056 22.1146 119.526 21.4613 119.526 20.2812V13.9171H116.096V20.9977C116.096 23.4 117.409 25.0227 119.907 25.0227Z" fill="#161616"/>
<path d="M128.016 24.7061H131.467V18.6581C131.467 17.3727 132.103 16.4665 133.183 16.4665C134.22 16.4665 134.707 17.1409 134.707 18.2999V24.7061H138.159V18.6581C138.159 17.3727 138.773 16.4665 139.874 16.4665C140.912 16.4665 141.399 17.1409 141.399 18.2999V24.7061H144.851V17.6888C144.851 15.2654 143.623 13.6006 141.166 13.6006C139.769 13.6006 138.604 14.1906 137.757 15.4972H137.714C137.164 14.3381 136.084 13.6006 134.665 13.6006C133.098 13.6006 132.06 14.3381 131.383 15.455H131.319V13.9167H128.016V24.7061Z" fill="#161616"/>
<g clip-path="url(#clip0_418_8490)">
<path d="M31.9569 19.1998H26.2412C21.2485 19.1998 17.2012 23.2472 17.2012 28.2398V33.9555C25.0811 33.3712 31.3725 27.0798 31.9569 19.1998Z" fill="#EF4823"/>
<path d="M14.8006 33.9555V28.2398C14.8006 23.2472 10.7533 19.1998 5.7606 19.1998H0.0449219C0.629189 27.0798 6.92068 33.3712 14.8006 33.9555Z" fill="#EF4823"/>
<path d="M31.9569 16.7999C31.3725 8.91995 25.0811 2.62846 17.2012 2.04419V7.75987C17.2012 12.7525 21.2485 16.7999 26.2412 16.7999H31.9569Z" fill="#EF4823"/>
<path d="M14.8006 2.04419C6.92068 2.62846 0.629189 8.91995 0.0449219 16.7999H5.7606C10.7533 16.7999 14.8006 12.7525 14.8006 7.75987V2.04419Z" fill="#EF4823"/>
<path d="M10.8672 17.9998C13.0852 16.8916 14.8928 15.084 16.0009 12.866C17.1092 15.084 18.9167 16.8916 21.1348 17.9998C18.9167 19.108 17.1092 20.9156 16.0009 23.1336C14.8928 20.9156 13.0852 19.108 10.8672 17.9998Z" fill="#EF4823"/>
</g>
<defs>
<clipPath id="clip0_418_8490">
<rect width="32" height="32" fill="white" transform="translate(0 2)"/>
</clipPath>
</defs>
</svg>
