<svg width="148" height="36" viewBox="0 0 148 36" fill="none" xmlns="http://www.w3.org/2000/svg">
<g clip-path="url(#clip0_296_1488)">
<path d="M44.6416 25.747H55.0469V22.586H48.3399V10.6797H44.6416V25.747Z" fill="#161616"/>
<path d="M61.2115 23.6403C59.7281 23.6403 58.955 22.3337 58.955 20.3739C58.955 18.4141 59.7281 17.0865 61.2115 17.0865C62.695 17.0865 63.489 18.4141 63.489 20.3739C63.489 22.3337 62.695 23.6403 61.2115 23.6403ZM61.2324 26.0847C64.68 26.0847 66.9365 23.6192 66.9365 20.3739C66.9365 17.1286 64.68 14.6631 61.2324 14.6631C57.8058 14.6631 55.5074 17.1286 55.5074 20.3739C55.5074 23.6192 57.8058 26.0847 61.2324 26.0847Z" fill="#161616"/>
<path d="M72.9039 29.4771C74.4919 29.4771 75.8918 29.1189 76.832 28.2759C77.6887 27.4962 78.2528 26.3161 78.2528 24.6935V14.9577H74.9933V16.1167H74.9516C74.3247 15.2106 73.3636 14.6416 71.9428 14.6416C69.2892 14.6416 67.4506 16.8754 67.4506 20.0363C67.4506 23.3448 69.6862 25.1571 72.0891 25.1571C73.3845 25.1571 74.1994 24.6303 74.8262 23.9138H74.9098V24.9885C74.9098 26.2951 74.3038 27.0537 72.8621 27.0537C71.7339 27.0537 71.1697 26.569 70.9817 26H67.6804C68.0147 28.2549 69.9579 29.4771 72.9039 29.4771ZM72.883 22.6073C71.6085 22.6073 70.7727 21.5536 70.7727 19.931C70.7727 18.2873 71.6085 17.2336 72.883 17.2336C74.3038 17.2336 75.056 18.4558 75.056 19.9099C75.056 21.4272 74.3665 22.6073 72.883 22.6073Z" fill="#161616"/>
<path d="M84.9549 23.6403C83.4715 23.6403 82.6984 22.3337 82.6984 20.3739C82.6984 18.4141 83.4715 17.0865 84.9549 17.0865C86.4384 17.0865 87.2321 18.4141 87.2321 20.3739C87.2321 22.3337 86.4384 23.6403 84.9549 23.6403ZM84.9758 26.0847C88.423 26.0847 90.6796 23.6192 90.6796 20.3739C90.6796 17.1286 88.423 14.6631 84.9758 14.6631C81.5492 14.6631 79.2509 17.1286 79.2509 20.3739C79.2509 23.6192 81.5492 26.0847 84.9758 26.0847Z" fill="#161616"/>
<path d="M91.6747 25.747H95.0804V14.9575H91.6747V25.747ZM91.6747 13.4613H95.0804V10.6797H91.6747V13.4613Z" fill="#161616"/>
<path d="M96.5579 29.3085H99.9636V24.6303H100.005C100.674 25.5364 101.656 26.0843 103.035 26.0843C105.835 26.0843 107.694 23.8506 107.694 20.3524C107.694 17.1072 105.96 14.6416 103.119 14.6416C101.656 14.6416 100.611 15.2949 99.88 16.2642H99.8173V14.9577H96.5579V29.3085ZM102.157 23.4291C100.695 23.4291 99.8591 22.2279 99.8591 20.4789C99.8591 18.7298 100.611 17.4022 102.095 17.4022C103.557 17.4022 104.247 18.6244 104.247 20.4789C104.247 22.3122 103.453 23.4291 102.157 23.4291Z" fill="#161616"/>
<path d="M113.239 26.0843C116.039 26.0843 118.107 24.8621 118.107 22.5019C118.107 19.7413 115.893 19.2566 114.012 18.9405C112.654 18.6877 111.442 18.5823 111.442 17.8237C111.442 17.1493 112.09 16.8332 112.926 16.8332C113.866 16.8332 114.514 17.1282 114.639 18.0976H117.773C117.606 15.9692 115.976 14.6416 112.947 14.6416C110.418 14.6416 108.329 15.8217 108.329 18.0976C108.329 20.6264 110.314 21.1321 112.174 21.4482C113.594 21.7011 114.89 21.8065 114.89 22.7758C114.89 23.4713 114.242 23.8506 113.218 23.8506C112.09 23.8506 111.38 23.3237 111.254 22.249H108.036C108.141 24.6303 110.105 26.0843 113.239 26.0843Z" fill="#161616"/>
<path d="M122.734 26.0636C124.217 26.0636 125.158 25.4735 125.931 24.4199H125.993V25.7475H129.253V14.958H125.847V20.9849C125.847 22.2704 125.137 23.1555 123.967 23.1555C122.88 23.1555 122.358 22.5022 122.358 21.3221V14.958H118.973V22.0386C118.973 24.4409 120.268 26.0636 122.734 26.0636Z" fill="#161616"/>
<path d="M130.734 25.7472H134.14V19.6992C134.14 18.4137 134.767 17.5076 135.833 17.5076C136.856 17.5076 137.337 18.1819 137.337 19.3409V25.7472H140.743V19.6992C140.743 18.4137 141.349 17.5076 142.435 17.5076C143.459 17.5076 143.94 18.1819 143.94 19.3409V25.7472H147.345V18.7298C147.345 16.3064 146.133 14.6416 143.71 14.6416C142.331 14.6416 141.182 15.2317 140.346 16.5382H140.304C139.761 15.3792 138.695 14.6416 137.295 14.6416C135.749 14.6416 134.725 15.3792 134.057 16.496H133.994V14.9577H130.734V25.7472Z" fill="#161616"/>
<path fill-rule="evenodd" clip-rule="evenodd" d="M17.5001 35.4061C27.1165 35.4061 34.9119 27.5438 34.9119 17.8451C34.9119 8.14649 27.1165 0.28418 17.5001 0.28418C7.88388 0.28418 0.0883789 8.14649 0.0883789 17.8451C0.0883789 27.5438 7.88388 35.4061 17.5001 35.4061ZM20.1876 13.8523C21.6718 12.3553 21.6718 9.92828 20.1876 8.43129C18.7033 6.93433 16.297 6.93433 14.8127 8.43129C13.3285 9.92828 13.3285 12.3553 14.8127 13.8523L17.5001 16.5627L20.1876 13.8523ZM21.4591 20.5557C22.9434 22.0526 25.3498 22.0526 26.834 20.5557C28.3182 19.0587 28.3182 16.6317 26.834 15.1347C25.3498 13.6378 22.9434 13.6378 21.4591 15.1347L18.7717 17.8452L21.4591 20.5557ZM20.1876 27.259C21.6718 25.762 21.6718 23.335 20.1876 21.838L17.5001 19.1276L14.8127 21.838C13.3285 23.335 13.3285 25.762 14.8127 27.259C16.297 28.756 18.7033 28.756 20.1876 27.259ZM8.16624 20.5557C6.68203 19.0587 6.68203 16.6317 8.16624 15.1347C9.65054 13.6378 12.0569 13.6378 13.5412 15.1347L16.2286 17.8452L13.5412 20.5557C12.0569 22.0526 9.65054 22.0526 8.16624 20.5557Z" fill="#EF4823"/>
</g>
<defs>
<clipPath id="clip0_296_1488">
<rect width="148" height="36" fill="white"/>
</clipPath>
</defs>
</svg>
