<svg width="146" height="36" viewBox="0 0 146 36" fill="none" xmlns="http://www.w3.org/2000/svg">
<g clip-path="url(#clip0_296_1432)">
<path d="M42.5154 25.2822H52.9645V22.1212H46.2293V10.2148H42.5154V25.2822Z" fill="#161616"/>
<path d="M59.1552 23.1744C57.6655 23.1744 56.8892 21.8679 56.8892 19.9081C56.8892 17.9483 57.6655 16.6207 59.1552 16.6207C60.6449 16.6207 61.4423 17.9483 61.4423 19.9081C61.4423 21.8679 60.6449 23.1744 59.1552 23.1744ZM59.1762 25.6189C62.6382 25.6189 64.9043 23.1534 64.9043 19.9081C64.9043 16.6628 62.6382 14.1973 59.1762 14.1973C55.7351 14.1973 53.4271 16.6628 53.4271 19.9081C53.4271 23.1534 55.7351 25.6189 59.1762 25.6189Z" fill="#161616"/>
<path d="M70.8968 29.0123C72.4915 29.0123 73.8973 28.654 74.8415 27.8111C75.7017 27.0314 76.2682 25.8513 76.2682 24.2287V14.4929H72.995V15.6519H72.9531C72.3236 14.7457 71.3585 14.1768 69.9317 14.1768C67.267 14.1768 65.4205 16.4105 65.4205 19.5715C65.4205 22.88 67.6656 24.6923 70.0785 24.6923C71.3794 24.6923 72.1977 24.1654 72.8272 23.449H72.9111V24.5237C72.9111 25.8302 72.3026 26.5889 70.8549 26.5889C69.7219 26.5889 69.1553 26.1042 68.9665 25.5352H65.6513C65.987 27.79 67.9384 29.0123 70.8968 29.0123ZM70.8759 22.1424C69.596 22.1424 68.7567 21.0888 68.7567 19.4661C68.7567 17.8224 69.596 16.7688 70.8759 16.7688C72.3026 16.7688 73.058 17.991 73.058 19.4451C73.058 20.9623 72.3656 22.1424 70.8759 22.1424Z" fill="#161616"/>
<path d="M82.9986 23.1744C81.5089 23.1744 80.7325 21.8679 80.7325 19.9081C80.7325 17.9483 81.5089 16.6207 82.9986 16.6207C84.4883 16.6207 85.2856 17.9483 85.2856 19.9081C85.2856 21.8679 84.4883 23.1744 82.9986 23.1744ZM83.0196 25.6189C86.4816 25.6189 88.7479 23.1534 88.7479 19.9081C88.7479 16.6628 86.4816 14.1973 83.0196 14.1973C79.5785 14.1973 77.2705 16.6628 77.2705 19.9081C77.2705 23.1534 79.5785 25.6189 83.0196 25.6189Z" fill="#161616"/>
<path d="M89.7463 25.2822H93.1664V14.4927H89.7463V25.2822ZM89.7463 12.9965H93.1664V10.2148H89.7463V12.9965Z" fill="#161616"/>
<path d="M94.65 28.8437H98.07V24.1654H98.112C98.7834 25.0716 99.7696 25.6195 101.154 25.6195C103.966 25.6195 105.833 23.3857 105.833 19.8876C105.833 16.6423 104.092 14.1768 101.238 14.1768C99.7696 14.1768 98.7205 14.83 97.9861 15.7994H97.9232V14.4929H94.65V28.8437ZM100.273 22.9643C98.8044 22.9643 97.9651 21.7631 97.9651 20.014C97.9651 18.265 98.7205 16.9373 100.21 16.9373C101.679 16.9373 102.371 18.1596 102.371 20.014C102.371 21.8474 101.574 22.9643 100.273 22.9643Z" fill="#161616"/>
<path d="M111.402 25.6195C114.214 25.6195 116.291 24.3972 116.291 22.0371C116.291 19.2765 114.067 18.7918 112.179 18.4757C110.815 18.2228 109.598 18.1174 109.598 17.3588C109.598 16.6845 110.248 16.3684 111.088 16.3684C112.032 16.3684 112.682 16.6634 112.808 17.6328H115.955C115.788 15.5044 114.151 14.1768 111.109 14.1768C108.57 14.1768 106.472 15.3569 106.472 17.6328C106.472 20.1615 108.465 20.6673 110.332 20.9834C111.759 21.2363 113.06 21.3416 113.06 22.311C113.06 23.0064 112.41 23.3857 111.381 23.3857C110.248 23.3857 109.535 22.8589 109.409 21.7842H106.178C106.283 24.1654 108.255 25.6195 111.402 25.6195Z" fill="#161616"/>
<path d="M120.936 25.5987C122.426 25.5987 123.37 25.0087 124.146 23.955H124.209V25.2826H127.482V14.4932H124.062V20.5201C124.062 21.8056 123.349 22.6906 122.174 22.6906C121.083 22.6906 120.558 22.0374 120.558 20.8573V14.4932H117.159V21.5737C117.159 23.9761 118.46 25.5987 120.936 25.5987Z" fill="#161616"/>
<path d="M128.97 25.2823H132.391V19.2343C132.391 17.9489 133.02 17.0427 134.09 17.0427C135.118 17.0427 135.601 17.7171 135.601 18.8761V25.2823H139.021V19.2343C139.021 17.9489 139.629 17.0427 140.72 17.0427C141.749 17.0427 142.231 17.7171 142.231 18.8761V25.2823H145.651V18.265C145.651 15.8415 144.434 14.1768 142 14.1768C140.615 14.1768 139.461 14.7668 138.622 16.0733H138.58C138.035 14.9143 136.965 14.1768 135.559 14.1768C134.006 14.1768 132.978 14.9143 132.307 16.0312H132.244V14.4929H128.97V25.2823Z" fill="#161616"/>
<path fill-rule="evenodd" clip-rule="evenodd" d="M7.56592 3.41691C6.31516 4.29528 5.18415 5.33379 4.20232 6.50284C8.21452 6.12873 13.3119 6.73961 19.2299 9.71148C25.5495 12.8849 30.6383 12.9922 34.1799 12.3061C33.8585 11.3289 33.4539 10.3898 32.9748 9.49697C28.9206 9.92642 23.7232 9.35798 17.666 6.31633C13.8196 4.3848 10.4291 3.58913 7.56592 3.41691ZM30.6065 6.11145C27.4049 2.51878 22.7522 0.257812 17.5737 0.257812C16.0529 0.257812 14.5774 0.452833 13.1707 0.819307C15.0759 1.3414 17.0997 2.10521 19.2299 3.17492C23.6646 5.40188 27.4933 6.11892 30.6065 6.11145ZM34.9371 15.7361C30.6585 16.5847 24.7502 16.4104 17.666 12.8529C11.043 9.527 5.7717 9.56888 2.21653 10.3624C2.03302 10.4033 1.85383 10.4463 1.67897 10.4911C1.21351 11.5078 0.841969 12.5769 0.575382 13.6871C0.860111 13.6107 1.15434 13.5381 1.4579 13.4703C5.77094 12.5077 11.8649 12.5495 19.2299 16.248C25.8529 19.5739 31.1242 19.532 34.6795 18.7385C34.8012 18.7114 34.9213 18.6833 35.0393 18.6543C35.0522 18.3775 35.0587 18.0989 35.0587 17.8188C35.0587 17.1141 35.0174 16.4192 34.9371 15.7361ZM34.4684 22.3603C30.2314 23.1043 24.4951 22.8187 17.666 19.3894C11.043 16.0635 5.7717 16.1054 2.21653 16.8989C1.42738 17.075 0.71748 17.2895 0.0912456 17.5159C0.0895382 17.6166 0.0886841 17.7176 0.0886841 17.8188C0.0886841 27.5174 7.91699 35.3797 17.5737 35.3797C25.6667 35.3797 32.4756 29.8576 34.4684 22.3603Z" fill="#EF4823"/>
</g>
<defs>
<clipPath id="clip0_296_1432">
<rect width="146" height="36" fill="white"/>
</clipPath>
</defs>
</svg>
