<svg width="150" height="36" viewBox="0 0 150 36" fill="none" xmlns="http://www.w3.org/2000/svg">
<g clip-path="url(#clip0_296_1460)">
<path d="M45.7589 24.707H56.3048V21.546H49.5071V9.63965H45.7589V24.707Z" fill="#161616"/>
<path d="M62.5528 22.5992C61.0493 22.5992 60.2657 21.2927 60.2657 19.3329C60.2657 17.3731 61.0493 16.0455 62.5528 16.0455C64.0563 16.0455 64.861 17.3731 64.861 19.3329C64.861 21.2927 64.0563 22.5992 62.5528 22.5992ZM62.574 25.0437C66.0681 25.0437 68.3551 22.5782 68.3551 19.3329C68.3551 16.0876 66.0681 13.6221 62.574 13.6221C59.101 13.6221 56.7716 16.0876 56.7716 19.3329C56.7716 22.5782 59.101 25.0437 62.574 25.0437Z" fill="#161616"/>
<path d="M74.4033 28.4361C76.0127 28.4361 77.4315 28.0779 78.3845 27.2349C79.2527 26.4552 79.8245 25.2751 79.8245 23.6525V13.9167H76.5209V15.0757H76.4786C75.8433 14.1696 74.8692 13.6006 73.4292 13.6006C70.7398 13.6006 68.8762 15.8343 68.8762 18.9953C68.8762 22.3038 71.1421 24.1161 73.5774 24.1161C74.8903 24.1161 75.7162 23.5893 76.3515 22.8728H76.4362V23.9475C76.4362 25.254 75.8221 26.0127 74.3609 26.0127C73.2174 26.0127 72.6456 25.528 72.455 24.959H69.1092C69.448 27.2139 71.4174 28.4361 74.4033 28.4361ZM74.3821 21.5662C73.0903 21.5662 72.2433 20.5126 72.2433 18.89C72.2433 17.2462 73.0903 16.1926 74.3821 16.1926C75.8221 16.1926 76.5845 17.4148 76.5845 18.8689C76.5845 20.3861 75.8856 21.5662 74.3821 21.5662Z" fill="#161616"/>
<path d="M86.6171 22.5992C85.1136 22.5992 84.3301 21.2927 84.3301 19.3329C84.3301 17.3731 85.1136 16.0455 86.6171 16.0455C88.1206 16.0455 88.9253 17.3731 88.9253 19.3329C88.9253 21.2927 88.1206 22.5992 86.6171 22.5992ZM86.6383 25.0437C90.1324 25.0437 92.4195 22.5782 92.4195 19.3329C92.4195 16.0876 90.1324 13.6221 86.6383 13.6221C83.1654 13.6221 80.8359 16.0876 80.8359 19.3329C80.8359 22.5782 83.1654 25.0437 86.6383 25.0437Z" fill="#161616"/>
<path d="M93.427 24.707H96.8788V13.9175H93.427V24.707ZM93.427 12.4213H96.8788V9.63965H93.427V12.4213Z" fill="#161616"/>
<path d="M98.3771 28.2675H101.829V23.5893H101.871C102.549 24.4954 103.544 25.0433 104.942 25.0433C107.779 25.0433 109.664 22.8096 109.664 19.3114C109.664 16.0661 107.906 13.6006 105.026 13.6006C103.544 13.6006 102.485 14.2539 101.744 15.2232H101.681V13.9167H98.3771V28.2675ZM104.052 22.3881C102.57 22.3881 101.723 21.1869 101.723 19.4379C101.723 17.6888 102.485 16.3612 103.989 16.3612C105.471 16.3612 106.17 17.5834 106.17 19.4379C106.17 21.2712 105.365 22.3881 104.052 22.3881Z" fill="#161616"/>
<path d="M115.284 25.0433C118.121 25.0433 120.218 23.8211 120.218 21.4609C120.218 18.7003 117.973 18.2156 116.067 17.8995C114.691 17.6466 113.463 17.5413 113.463 16.7826C113.463 16.1083 114.119 15.7922 114.966 15.7922C115.919 15.7922 116.576 16.0872 116.703 17.0566H119.879C119.71 14.9282 118.058 13.6006 114.987 13.6006C112.425 13.6006 110.307 14.7807 110.307 17.0566C110.307 19.5854 112.319 20.0911 114.204 20.4072C115.644 20.6601 116.957 20.7655 116.957 21.7348C116.957 22.4302 116.3 22.8096 115.263 22.8096C114.119 22.8096 113.399 22.2827 113.272 21.208H110.011C110.117 23.5893 112.107 25.0433 115.284 25.0433Z" fill="#161616"/>
<path d="M124.907 25.0226C126.41 25.0226 127.363 24.4325 128.147 23.3788H128.21V24.7065H131.514V13.917H128.062V19.9439C128.062 21.2294 127.342 22.1145 126.156 22.1145C125.055 22.1145 124.526 21.4612 124.526 20.2811V13.917H121.095V20.9976C121.095 23.3999 122.408 25.0226 124.907 25.0226Z" fill="#161616"/>
<path d="M133.015 24.7061H136.466V18.6581C136.466 17.3727 137.102 16.4665 138.182 16.4665C139.219 16.4665 139.706 17.1409 139.706 18.2999V24.7061H143.158V18.6581C143.158 17.3727 143.772 16.4665 144.873 16.4665C145.911 16.4665 146.398 17.1409 146.398 18.2999V24.7061H149.85V17.6888C149.85 15.2654 148.622 13.6006 146.165 13.6006C144.768 13.6006 143.603 14.1906 142.756 15.4972H142.713C142.163 14.3381 141.083 13.6006 139.664 13.6006C138.097 13.6006 137.059 14.3381 136.382 15.455H136.318V13.9167H133.015V24.7061Z" fill="#161616"/>
<path fill-rule="evenodd" clip-rule="evenodd" d="M18.2507 35.243C27.9969 35.243 35.8978 27.3807 35.8978 17.682C35.8978 7.98341 27.9969 0.121094 18.2507 0.121094C8.50448 0.121094 0.603638 7.98341 0.603638 17.682C0.603638 27.3807 8.50448 35.243 18.2507 35.243ZM23.756 8.30173C24.024 7.3545 23.1002 6.79438 22.2566 7.39248L10.4799 15.7412C9.56501 16.3898 9.70892 17.682 10.6961 17.682H13.7972V17.6582H19.8412L14.9165 19.3873L12.7454 27.0624C12.4775 28.0097 13.4011 28.5698 14.2448 27.9716L26.0215 19.623C26.9364 18.9744 26.7924 17.682 25.8053 17.682H21.1026L23.756 8.30173Z" fill="#EF4823"/>
</g>
<defs>
<clipPath id="clip0_296_1460">
<rect width="150" height="36" fill="white"/>
</clipPath>
</defs>
</svg>
