<svg width="148" height="36" viewBox="0 0 148 36" fill="none" xmlns="http://www.w3.org/2000/svg">
<g clip-path="url(#clip0_776_552)">
<path d="M42.1934 26.102H51.962V23.1926H45.1721V9.60742H42.1934V26.102Z" fill="#031600"/>
<path d="M57.8332 26.442C59.016 26.442 60.0564 26.167 60.9544 25.6172C61.8597 25.0598 62.5642 24.2923 63.068 23.3149C63.5791 22.3298 63.8346 21.1958 63.8346 19.9129C63.8346 18.6376 63.5827 17.5113 63.079 16.5338C62.5752 15.5487 61.8706 14.7774 60.9653 14.22C60.0673 13.6625 59.0233 13.3838 57.8332 13.3838C56.6651 13.3838 55.632 13.6587 54.734 14.2085C53.836 14.7584 53.1315 15.5258 52.6203 16.5109C52.1093 17.4883 51.8538 18.6223 51.8538 19.9129C51.8538 21.1881 52.102 22.3184 52.5985 23.3034C53.1022 24.2809 53.8031 25.0483 54.7011 25.6058C55.5992 26.1632 56.6432 26.442 57.8332 26.442ZM57.8332 23.5325C56.906 23.5325 56.2015 23.208 55.7197 22.5589C55.245 21.9022 55.0078 21.0202 55.0078 19.9129C55.0078 18.8362 55.2341 17.9656 55.6868 17.3012C56.1467 16.6293 56.8622 16.2932 57.8332 16.2932C58.7751 16.2932 59.4832 16.6216 59.9578 17.2784C60.4397 17.9351 60.6806 18.8132 60.6806 19.9129C60.6806 20.9744 60.4434 21.8449 59.9687 22.5245C59.5015 23.1965 58.7896 23.5325 57.8332 23.5325Z" fill="#031600"/>
<path d="M69.7242 26.442C70.2791 26.442 70.7902 26.3732 71.2575 26.2358C71.732 26.0984 72.1628 25.9036 72.5497 25.6516V26.9002C72.5644 27.3584 72.4511 27.7401 72.2102 28.0456C71.9766 28.3587 71.6627 28.5916 71.2684 28.7444C70.8741 28.9047 70.4543 28.9849 70.009 28.9849C69.5928 28.9849 69.2059 28.8894 68.8482 28.6985C68.4977 28.5077 68.2275 28.2289 68.0377 27.8624L65.278 29.2598C65.7306 30.0616 66.3768 30.7069 67.2164 31.1956C68.056 31.692 68.9796 31.9402 69.9871 31.9402C70.8559 31.9402 71.6627 31.8179 72.4073 31.5736C73.1521 31.3369 73.7799 30.9742 74.291 30.4854C74.8093 29.9967 75.1635 29.3744 75.3533 28.6184C75.4189 28.3511 75.4627 28.08 75.4847 27.805C75.5139 27.5378 75.5285 27.2514 75.5285 26.946V13.7274H72.9221V14.4147C72.5205 14.0863 72.0642 13.8343 71.5531 13.6587C71.0493 13.4754 70.4909 13.3838 69.8776 13.3838C68.746 13.3838 67.7603 13.6664 66.9207 14.2314C66.0811 14.7965 65.4277 15.5716 64.9604 16.5567C64.5004 17.5341 64.2705 18.6529 64.2705 19.9129C64.2705 21.15 64.4968 22.261 64.9495 23.2462C65.4094 24.2312 66.0482 25.0102 66.8659 25.5829C67.6836 26.1556 68.6364 26.442 69.7242 26.442ZM70.2061 23.67C69.5637 23.67 69.038 23.5019 68.6291 23.166C68.2203 22.83 67.9172 22.3795 67.7202 21.8144C67.5231 21.2416 67.4245 20.6078 67.4245 19.9129C67.4245 19.2256 67.5267 18.5995 67.7311 18.0344C67.9356 17.4616 68.2495 17.0073 68.6729 16.6712C69.1036 16.3276 69.6513 16.1558 70.3156 16.1558C71.2502 16.1558 71.9181 16.5033 72.3197 17.1982C72.7213 17.8854 72.9221 18.7904 72.9221 19.9129C72.9221 21.0354 72.7176 21.9441 72.3088 22.639C71.9072 23.3264 71.2064 23.67 70.2061 23.67Z" fill="#031600"/>
<path d="M82.604 26.442C83.7868 26.442 84.8272 26.167 85.7251 25.6172C86.6303 25.0598 87.335 24.2923 87.8384 23.3149C88.3495 22.3298 88.605 21.1958 88.605 19.9129C88.605 18.6376 88.3538 17.5113 87.8495 16.5338C87.3462 15.5487 86.6414 14.7774 85.7361 14.22C84.8381 13.6625 83.794 13.3838 82.604 13.3838C81.4358 13.3838 80.4027 13.6587 79.5048 14.2085C78.6068 14.7584 77.9022 15.5258 77.3911 16.5109C76.8801 17.4883 76.6245 18.6223 76.6245 19.9129C76.6245 21.1881 76.8728 22.3184 77.3692 23.3034C77.873 24.2809 78.5739 25.0483 79.4719 25.6058C80.3699 26.1632 81.414 26.442 82.604 26.442ZM82.604 23.5325C81.6767 23.5325 80.9722 23.208 80.4903 22.5589C80.0158 21.9022 79.7786 21.0202 79.7786 19.9129C79.7786 18.8362 80.0049 17.9656 80.4575 17.3012C80.9175 16.6293 81.6329 16.2932 82.604 16.2932C83.5458 16.2932 84.254 16.6216 84.7285 17.2784C85.2104 17.9351 85.4513 18.8132 85.4513 19.9129C85.4513 20.9744 85.214 21.8449 84.7395 22.5245C84.2722 23.1965 83.5604 23.5325 82.604 23.5325Z" fill="#031600"/>
<path d="M89.9182 12.0098H92.8971V9.26074H89.9182V12.0098ZM89.9182 26.0989H92.8971V13.728H89.9182V26.0989Z" fill="#031600"/>
<path d="M94.8455 31.5966H97.8459V25.6516C98.2331 25.9036 98.6599 26.0984 99.1271 26.2358C99.6021 26.3732 100.117 26.442 100.672 26.442C101.759 26.442 102.713 26.1556 103.53 25.5829C104.348 25.0102 104.983 24.2312 105.435 23.2462C105.896 22.261 106.125 21.15 106.125 19.9129C106.125 18.6529 105.892 17.5341 105.425 16.5567C104.965 15.5716 104.315 14.7965 103.475 14.2314C102.635 13.6664 101.65 13.3838 100.519 13.3838C99.905 13.3838 99.3431 13.4754 98.832 13.6587C98.3278 13.8343 97.8752 14.0863 97.4742 14.4147V13.7274H94.8455V31.5966ZM100.19 23.67C99.1968 23.67 98.4964 23.3264 98.0868 22.639C97.6781 21.9441 97.4742 21.0354 97.4742 19.9129C97.4742 18.7904 97.6747 17.8854 98.0765 17.1982C98.4852 16.5033 99.1529 16.1558 100.081 16.1558C100.745 16.1558 101.289 16.3276 101.712 16.6712C102.143 17.0073 102.461 17.4616 102.665 18.0344C102.869 18.5995 102.972 19.2256 102.972 19.9129C102.972 20.6078 102.873 21.2416 102.676 21.8144C102.479 22.3795 102.176 22.83 101.767 23.166C101.358 23.502 100.833 23.67 100.19 23.67Z" fill="#031600"/>
<path d="M111.521 26.442C113.068 26.442 114.28 26.0793 115.156 25.3538C116.032 24.6283 116.47 23.6318 116.47 22.3642C116.47 21.402 116.185 20.6422 115.617 20.0847C115.054 19.5273 114.098 19.0652 112.747 18.6987C111.827 18.4543 111.141 18.2558 110.688 18.103C110.243 17.9504 109.947 17.8014 109.801 17.6564C109.662 17.5113 109.593 17.3318 109.593 17.118C109.593 16.7591 109.757 16.4842 110.086 16.2932C110.422 16.1023 110.863 16.026 111.411 16.0642C112.572 16.1558 113.207 16.6751 113.317 17.622L116.361 17.0492C116.208 15.9267 115.682 15.0371 114.784 14.3804C113.886 13.716 112.74 13.3838 111.345 13.3838C109.914 13.3838 108.772 13.7351 107.917 14.4376C107.064 15.1401 106.636 16.087 106.636 17.2784C106.636 18.2252 106.932 18.9736 107.523 19.5234C108.114 20.0657 109.133 20.5314 110.579 20.9209C111.433 21.1576 112.06 21.3485 112.462 21.4936C112.871 21.6387 113.134 21.7876 113.25 21.9404C113.367 22.0854 113.426 22.2802 113.426 22.5245C113.426 22.914 113.28 23.2194 112.988 23.4409C112.696 23.6547 112.28 23.7616 111.739 23.7616C111.082 23.7616 110.538 23.5974 110.108 23.269C109.685 22.9407 109.41 22.4864 109.286 21.906L106.242 22.387C106.439 23.6776 106.994 24.678 107.907 25.3882C108.827 26.0907 110.031 26.442 111.521 26.442Z" fill="#031600"/>
<path d="M121.966 26.467C122.82 26.467 123.565 26.3181 124.201 26.0203C124.836 25.7224 125.368 25.3254 125.799 24.829V26.1004H128.427V13.7295H125.427V20.0066C125.427 20.7703 125.343 21.3888 125.175 21.8623C125.015 22.3281 124.806 22.6831 124.551 22.9275C124.295 23.1643 124.022 23.3246 123.729 23.4086C123.437 23.4926 123.164 23.5346 122.908 23.5346C122.273 23.5346 121.78 23.3857 121.43 23.0879C121.087 22.7901 120.838 22.4197 120.685 21.9768C120.532 21.5338 120.44 21.0948 120.411 20.6595C120.382 20.2166 120.367 19.8539 120.367 19.5713V13.7295H117.344V20.671C117.344 20.8771 117.359 21.2055 117.388 21.6561C117.418 22.1066 117.502 22.6068 117.64 23.1566C117.779 23.6988 118.009 24.2219 118.331 24.7259C118.659 25.2299 119.115 25.646 119.7 25.9744C120.283 26.3028 121.039 26.467 121.966 26.467Z" fill="#031600"/>
<path d="M130.152 26.1004H133.153V18.6091C133.153 17.899 133.339 17.3224 133.711 16.8794C134.091 16.4289 134.591 16.2036 135.212 16.2036C135.862 16.2036 136.369 16.4328 136.734 16.891C137.106 17.3415 137.292 17.9753 137.292 18.7924V26.1004H140.271V18.6091C140.271 17.899 140.457 17.3224 140.83 16.8794C141.209 16.4289 141.709 16.2036 142.33 16.2036C142.98 16.2036 143.487 16.4328 143.852 16.891C144.224 17.3415 144.411 17.9753 144.411 18.7924V26.1004H147.389V17.9676C147.389 16.616 147.042 15.5241 146.349 14.6916C145.663 13.8517 144.644 13.4316 143.293 13.4316C142.534 13.4316 141.837 13.6035 141.202 13.9471C140.567 14.2908 140.06 14.7604 139.679 15.356C139.373 14.7757 138.935 14.3099 138.365 13.9586C137.796 13.6073 137.088 13.4316 136.241 13.4316C135.525 13.4316 134.869 13.5806 134.27 13.8784C133.671 14.1686 133.174 14.5695 132.78 15.0811V13.7295H130.152V26.1004Z" fill="#031600"/>
<path d="M17.2093 0C7.70486 0 0 8.05887 0 18C9.50444 18 17.2093 9.94113 17.2093 0Z" fill="#EF4823"/>
<path d="M17.209 36C26.7134 36 34.4183 27.9411 34.4183 18C24.9138 18 17.209 26.0589 17.209 36Z" fill="#EF4823"/>
<path d="M17.209 0C26.7134 0 34.4183 8.05887 34.4183 18C24.9138 18 17.209 9.94113 17.209 0Z" fill="#EF4823"/>
<path d="M17.2093 36C7.70486 36 -8.30904e-07 27.9411 0 18C9.50444 18 17.2093 26.0589 17.2093 36Z" fill="#EF4823"/>
</g>
<defs>
<clipPath id="clip0_776_552">
<rect width="148" height="36" fill="white"/>
</clipPath>
</defs>
</svg>
