<svg width="130" height="130" viewBox="0 0 130 130" fill="none" xmlns="http://www.w3.org/2000/svg">
<circle cx="65" cy="65" r="65" fill="#EF4823"/>
<path d="M70.2203 21.3464C67.1491 20.9886 65.1097 18.3268 65.4538 15.374C65.7996 12.4065 68.2801 10.2563 71.4694 10.6279C73.1526 10.8241 74.2589 11.4767 75.06 12.6924L73.4503 13.7917C72.9059 13.0699 72.1759 12.6556 71.2457 12.5472C69.2524 12.315 67.815 13.7337 67.5948 15.6235C67.3745 17.5132 68.4507 19.1949 70.4883 19.4323C71.4923 19.5493 72.2849 19.2975 72.9677 18.7036L74.3241 20.1636C73.4314 21.0173 72.0217 21.5563 70.2203 21.3464Z" fill="white"/>
<path d="M79.0241 23.4332C76.77 22.6288 75.7557 20.3414 76.5052 18.2416C77.2548 16.1418 79.4934 14.9995 81.7474 15.804C84.0014 16.6084 85.0108 18.9098 84.2613 21.0096C83.5117 23.1094 81.2781 24.2377 79.0241 23.4332ZM78.3952 18.9161C77.9905 20.05 78.4347 21.2817 79.6387 21.7114C80.8427 22.1411 81.9665 21.469 82.3713 20.3351C82.776 19.2012 82.3368 17.9555 81.1328 17.5258C79.9288 17.0961 78.8 17.7822 78.3952 18.9161Z" fill="white"/>
<path d="M84.773 25.4818L88.8562 18.919L90.5349 19.9633L89.9382 20.9225C90.7344 20.4024 91.6263 20.4321 92.6361 21.0602C94.0497 21.9396 94.4835 23.6624 93.4548 25.3157L90.9578 29.329L89.2538 28.2691L91.4917 24.6722C92.1984 23.5363 91.9367 22.6908 91.091 22.1647C90.3715 21.7172 89.4216 21.809 88.7149 22.9448L86.477 26.5417L84.773 25.4818Z" fill="white"/>
<path d="M94.7112 32.5417C93.5617 31.5304 93.4079 30.445 94.5174 29.1839L96.9132 26.4609L96.0984 25.7442L97.2276 24.4608L98.0423 25.1775L99.0733 24.0057L100.717 25.1749L99.5491 26.5029L100.777 27.5828L99.6476 28.8662L98.4199 27.7863L96.0929 30.4312C95.7689 30.7995 95.8002 31.1239 96.0904 31.3792L96.7154 31.929L95.5372 33.2682L94.7112 32.5417Z" fill="white"/>
<path d="M98.9044 37.2047C97.5766 35.5449 97.9226 33.0982 99.6639 31.7055C101.405 30.3129 103.892 30.4941 105.219 32.154C106.055 33.1986 106.062 34.0877 105.672 34.9326L106.624 34.1713L107.868 35.7267L101.832 40.5546L100.615 39.034L101.602 38.2448C100.657 38.4676 99.7679 38.2842 98.9044 37.2047ZM100.929 33.2632C100.012 33.9967 99.7263 35.3291 100.525 36.3273C101.351 37.3604 102.67 37.3907 103.61 36.6386C104.55 35.8866 104.834 34.5751 104.007 33.542C103.209 32.5438 101.869 32.5112 100.929 33.2632Z" fill="white"/>
<path d="M104.554 45.8585C103.563 43.8776 104.394 41.4846 106.402 40.4809C108.409 39.4771 110.789 40.215 111.86 42.3221C112.505 43.5784 112.524 44.8481 112.006 45.8385L110.184 45.0209C110.503 44.4625 110.543 43.7779 110.238 43.1663C109.666 42.023 108.376 41.7372 107.299 42.2756C106.222 42.814 105.697 44.0571 106.269 45.2004C106.614 45.8917 107.186 46.1709 107.844 46.2905L107.366 48.1584C106.202 47.9258 105.232 47.2145 104.554 45.8585Z" fill="white"/>
<path d="M107.668 53.2394C107.215 51.7769 107.651 50.7708 109.255 50.2739L112.72 49.2011L112.399 48.1646L114.032 47.659L114.353 48.6955L115.844 48.2338L116.637 50.089L114.947 50.6122L115.43 52.1741L113.797 52.6797L113.314 51.1179L109.948 52.1599C109.48 52.305 109.337 52.5982 109.451 52.9673L109.698 53.7624L107.994 54.2901L107.668 53.2394Z" fill="white"/>
<path d="M109.231 63.6146C109.122 61.0753 110.714 59.3407 113.09 59.2388L119.639 58.958L119.729 61.037L113.402 61.3083C111.932 61.3713 111.07 62.1075 111.132 63.5331C111.193 64.9587 112.114 65.6184 113.584 65.5554L119.911 65.2841L120 67.3631L113.45 67.644C111.074 67.7458 109.339 66.154 109.231 63.6146Z" fill="white"/>
<path d="M108.79 72.7189C108.995 71.4271 109.601 70.4548 110.63 69.7603L111.636 71.2897C110.916 71.7472 110.515 72.2854 110.412 72.9313C110.305 73.6066 110.582 74.0419 111.037 74.1142C111.433 74.1772 111.684 74.0213 112.154 72.8619C112.963 70.8984 113.937 70.737 114.906 70.8909C116.242 71.1031 117.072 72.3186 116.787 74.1095C116.592 75.3426 116.153 76.1157 115.016 76.7328L114.143 75.1193C114.789 74.8456 115.099 74.4132 115.18 73.8994C115.266 73.3562 115.126 72.9126 114.656 72.8379C114.392 72.796 114.139 72.8761 113.759 73.7489C112.834 75.8746 111.931 76.2578 110.786 76.0759C109.376 75.8521 108.522 74.407 108.79 72.7189Z" fill="white"/>
<path d="M115.06 83.3722L116.117 84.2478L114.943 85.4088L116.495 85.8913L115.983 87.1593L114.536 86.4149L114.559 88.0269L113.184 87.9369L113.446 86.2955L111.869 86.8286L111.536 85.5082L113.157 85.265L112.184 83.9425L113.346 83.2093L114.1 84.716L115.06 83.3722Z" fill="white"/>
<path d="M100.129 93.2095C101.963 90.7204 105.286 90.2699 107.679 92.0331C110.085 93.8051 110.722 97.0252 108.817 99.6101C107.812 100.974 106.697 101.611 105.244 101.704L105.087 99.7609C105.984 99.6462 106.706 99.2179 107.262 98.464C108.452 96.8484 107.933 94.8967 106.401 93.7683C104.869 92.6398 102.875 92.7401 101.658 94.3915C101.058 95.2053 100.884 96.0183 101.061 96.9057L99.1206 97.3593C98.8219 96.1608 99.053 94.6695 100.129 93.2095Z" fill="white"/>
<path d="M93.9474 99.8326C95.7605 98.2706 98.2507 98.519 99.7061 100.208C101.162 101.897 101.049 104.408 99.2355 105.97C97.4223 107.532 94.9225 107.272 93.4671 105.583C92.0116 103.894 92.1343 101.395 93.9474 99.8326ZM98.1858 101.518C97.3998 100.606 96.1094 100.383 95.1409 101.218C94.1723 102.052 94.2015 103.361 94.9874 104.273C95.7734 105.185 97.0735 105.419 98.042 104.585C99.0105 103.75 98.9717 102.43 98.1858 101.518Z" fill="white"/>
<path d="M89.3273 103.822L93.0248 110.61L91.2886 111.556L90.7482 110.564C90.8081 111.513 90.3426 112.274 89.2983 112.843C87.8362 113.639 86.1233 113.167 85.1919 111.457L82.9307 107.306L84.6931 106.346L86.7195 110.066C87.3595 111.241 88.2242 111.43 89.0989 110.954C89.843 110.549 90.2314 109.677 89.5915 108.502L87.565 104.782L89.3273 103.822Z" fill="white"/>
<path d="M78.2854 108.981C79.7327 108.482 80.7524 108.885 81.3006 110.472L82.4842 113.9L83.5099 113.546L84.0678 115.162L83.042 115.516L83.5514 116.991L81.7223 117.843L81.1451 116.171L79.5994 116.704L79.0416 115.089L80.5872 114.555L79.4376 111.225C79.2775 110.762 78.9799 110.629 78.6146 110.755L77.8277 111.026L77.2456 109.34L78.2854 108.981Z" fill="white"/>
<path d="M72.1552 110.316C74.2552 109.986 76.2081 111.501 76.5537 113.703C76.8992 115.906 75.5085 117.975 73.4084 118.304C72.0867 118.511 71.3113 118.076 70.7711 117.318L70.96 118.523L68.9921 118.831L67.7941 111.195L69.7179 110.894L69.9138 112.142C70.189 111.211 70.7894 110.53 72.1552 110.316ZM74.5734 114.029C74.3914 112.869 73.3761 111.96 72.1131 112.158C70.8061 112.363 70.1257 113.493 70.3123 114.682C70.4989 115.872 71.4973 116.768 72.8043 116.563C74.0672 116.365 74.76 115.218 74.5734 114.029Z" fill="white"/>
<path d="M61.7654 110.928C63.9769 111.05 65.6433 112.958 65.5197 115.199C65.3961 117.44 63.5752 119.141 61.2144 119.026C59.8036 118.963 58.691 118.35 58.0879 117.409L59.7011 116.233C60.0278 116.787 60.6027 117.161 61.2855 117.198C62.5619 117.269 63.4496 116.291 63.5159 115.089C63.5823 113.886 62.763 112.814 61.4866 112.744C60.7148 112.701 60.1888 113.059 59.7586 113.571L58.3736 112.23C59.1525 111.335 60.2515 110.845 61.7654 110.928Z" fill="white"/>
<path d="M53.8251 109.982C55.3203 110.312 55.9796 111.188 55.6179 112.828L54.837 116.37L55.8967 116.603L55.5286 118.273L54.4689 118.039L54.1328 119.563L52.1283 119.334L52.5091 117.607L50.9123 117.255L51.2804 115.586L52.8772 115.938L53.6358 112.498C53.7414 112.019 53.5571 111.75 53.1797 111.667L52.3668 111.487L52.7509 109.746L53.8251 109.982Z" fill="white"/>
<path d="M44.0248 106.201C46.2842 107.365 47.0011 109.608 45.9113 111.722L42.9075 117.548L41.0577 116.594L43.9594 110.966C44.6337 109.658 44.4214 108.546 43.1529 107.892C41.8845 107.238 40.8548 107.71 40.1805 109.018L37.2788 114.646L35.429 113.693L38.4329 107.867C39.5227 105.753 41.7654 105.036 44.0248 106.201Z" fill="white"/>
<path d="M36.3961 101.336C37.4161 102.155 37.9598 103.163 38.0527 104.401L36.2254 104.516C36.1852 103.664 35.917 103.048 35.4071 102.639C34.8739 102.21 34.3585 102.235 34.0699 102.594C33.8186 102.907 33.8297 103.202 34.6032 104.185C35.9072 105.861 35.5642 106.787 34.9499 107.552C34.1028 108.607 32.6354 108.725 31.2214 107.589C30.2478 106.807 29.7942 106.043 29.8221 104.75L31.6561 104.793C31.5735 105.489 31.7955 105.972 32.2011 106.298C32.63 106.642 33.0848 106.741 33.3827 106.37C33.5502 106.161 33.6064 105.901 33.0367 105.139C31.6496 103.282 31.7652 102.307 32.4912 101.403C33.3847 100.29 35.0632 100.266 36.3961 101.336Z" fill="white"/>
<path d="M24.0376 101.508L22.754 101.994L22.3244 100.4L21.138 101.512L20.2882 100.44L21.6501 99.5501L20.2372 98.7734L20.9943 97.6229L22.2923 98.6614L22.608 97.0262L23.9204 97.3893L23.3312 98.9188L24.9618 98.7261L25.0256 100.098L23.3429 100.01L24.0376 101.508Z" fill="white"/>
<path d="M22.8506 83.6697C24.1102 86.4931 22.8617 89.6053 20.1466 90.8163C17.4179 92.0335 14.3027 90.9979 12.9946 88.0659C12.3042 86.5184 12.301 85.2341 12.9376 83.9248L14.7047 84.7479C14.3617 85.5844 14.3779 86.4235 14.7595 87.2787C15.577 89.1112 17.5308 89.6232 19.2685 88.8481C21.0062 88.073 21.9033 86.2894 21.0675 84.4162C20.6557 83.4931 20.0346 82.9401 19.1754 82.656L19.7388 80.7446C20.9286 81.0765 22.1117 82.0136 22.8506 83.6697Z" fill="white"/>
<path d="M20.1519 75.0134C20.6086 77.3625 19.1573 79.401 16.9685 79.8264C14.7797 80.2518 12.6559 78.9081 12.1992 76.559C11.7426 74.2099 13.2084 72.1686 15.3973 71.7432C17.5861 71.3178 19.6953 72.6643 20.1519 75.0134ZM16.5856 77.8567C17.7676 77.6269 18.601 76.617 18.3571 75.3622C18.1132 74.1074 16.9621 73.4832 15.7801 73.7129C14.5982 73.9426 13.7502 74.9554 13.9941 76.2102C14.238 77.465 15.4037 78.0864 16.5856 77.8567Z" fill="white"/>
<path d="M18.9831 68.9897L11.2548 68.8337L11.2947 66.8572L12.4242 66.88C11.5703 66.4614 11.14 65.6796 11.164 64.4908C11.1977 62.8264 12.457 61.5733 14.404 61.6126L19.1301 61.708L19.0896 63.7142L14.8539 63.6287C13.5163 63.6017 12.9232 64.2587 12.9031 65.2543C12.886 66.1014 13.4503 66.871 14.7879 66.898L19.0236 66.9835L18.9831 68.9897Z" fill="white"/>
<path d="M19.9712 56.8383C19.6895 58.3431 18.835 59.03 17.1839 58.721L13.6187 58.0538L13.4191 59.1203L11.7388 58.8059L11.9384 57.7393L10.4042 57.4522L10.5688 55.4416L12.3076 55.767L12.6084 54.1599L14.2887 54.4744L13.9879 56.0815L17.4508 56.7295C17.933 56.8198 18.1959 56.627 18.267 56.2472L18.4202 55.429L20.1735 55.7571L19.9712 56.8383Z" fill="white"/>
<path d="M21.8465 50.8415C21.0934 52.8291 18.811 53.7764 16.7259 52.9865C14.6407 52.1966 13.5313 49.9643 14.2845 47.9767C14.7585 46.7257 15.5203 46.2673 16.4462 46.173L15.3064 45.7412L16.0121 43.8786L23.2406 46.617L22.5506 48.4379L21.3691 47.9903C22.0417 48.6901 22.3363 49.5488 21.8465 50.8415ZM17.423 51.1048C18.5211 51.5208 19.8136 51.0885 20.2665 49.8932C20.7352 48.6561 20.0902 47.5058 18.9642 47.0792C17.8382 46.6526 16.565 47.0763 16.0962 48.3133C15.6433 49.5087 16.297 50.6782 17.423 51.1048Z" fill="white"/>
<path d="M26.4268 41.5795C25.2241 43.4392 22.7407 43.9399 20.8558 42.7211C18.9709 41.5024 18.3968 39.078 19.6678 37.0853C20.4221 35.8915 21.5055 35.2291 22.6221 35.1722L22.8437 37.1563C22.2006 37.1653 21.5906 37.479 21.2193 38.0531C20.5251 39.1265 20.9344 40.3824 21.9455 41.0361C22.9566 41.6899 24.2941 41.5104 24.9883 40.437C25.408 39.7879 25.3579 39.1537 25.1265 38.5262L26.9786 37.989C27.3695 39.1091 27.2502 40.3064 26.4268 41.5795Z" fill="white"/>
<path d="M31.2022 35.135C30.1744 36.2698 29.0867 36.4078 27.8416 35.2804L25.1532 32.8459L24.4247 33.6501L23.1576 32.5027L23.886 31.6985L22.7291 30.6509L23.922 29.0238L25.2331 30.2112L26.3308 28.9993L27.5979 30.1467L26.5002 31.3586L29.1116 33.7232C29.4752 34.0525 29.8001 34.0259 30.0596 33.7394L30.6184 33.1224L31.9406 34.3197L31.2022 35.135Z" fill="white"/>
<path d="M39.323 28.4954C37.1955 29.8864 34.8909 29.4042 33.5892 27.4138L30.0015 21.9277L31.7433 20.7889L35.209 26.0884C36.0144 27.3199 37.0873 27.684 38.2816 26.9031C39.476 26.1222 39.5726 24.9934 38.7672 23.7619L35.3015 18.4624L37.0433 17.3235L40.631 22.8096C41.9327 24.8 41.4504 27.1044 39.323 28.4954Z" fill="white"/>
<path d="M47.3213 24.2584C46.1053 24.7407 44.9598 24.7153 43.8378 24.1849L44.6403 22.5394C45.4011 22.9253 46.0689 22.9962 46.6769 22.7551C47.3125 22.503 47.5457 22.0427 47.3758 21.6144C47.2278 21.2413 46.966 21.1053 45.7288 21.2922C43.6272 21.5981 42.9917 20.8427 42.63 19.9308C42.1312 18.6735 42.7534 17.3394 44.4392 16.6708C45.5999 16.2105 46.4888 16.1937 47.5993 16.8566L46.6562 18.4299C46.0916 18.0142 45.5617 17.9686 45.0781 18.1604C44.5668 18.3631 44.2566 18.71 44.432 19.1522C44.5307 19.4008 44.7289 19.5781 45.6733 19.4593C47.9736 19.1706 48.7641 19.7525 49.1917 20.8302C49.7178 22.1566 48.9103 23.6282 47.3213 24.2584Z" fill="white"/>
<path d="M53.2887 13.4337L53.5028 12.0778L55.1004 12.4956L54.7237 10.9142L56.0756 10.7079L56.1731 12.3319L57.5484 11.4905L58.1719 12.7185L56.6262 13.3303L57.8896 14.4155L56.9233 15.3749L55.8873 14.1046L55.2458 15.6159L54.0226 14.9906L54.9341 13.5735L53.2887 13.4337Z" fill="white"/>
<circle cx="65" cy="65" r="32" fill="white"/>
<path d="M73 58.3333C73 58.7333 72.8667 59 72.6 59.2667L59.2667 72.6C58.7333 73.1333 57.9333 73.1333 57.4 72.6C56.8667 72.0667 56.8667 71.2667 57.4 70.7333L70.7333 57.4C71.2667 56.8667 72.0667 56.8667 72.6 57.4C72.8667 57.6667 73 57.9333 73 58.3333Z" fill="#EF4823"/>
<path d="M72.9999 58.3337L72.9999 70.3337C72.9999 71.1337 72.4666 71.667 71.6666 71.667C70.8666 71.667 70.3333 71.1337 70.3332 70.3337L70.3332 59.667L59.6666 59.667C58.8666 59.667 58.3333 59.1337 58.3333 58.3337C58.3333 57.5337 58.8666 57.0003 59.6666 57.0003L71.6666 57.0003C72.4666 57.0003 72.9999 57.5337 72.9999 58.3337Z" fill="#EF4823"/>
</svg>
