<svg width="60" height="60" viewBox="0 0 60 60" fill="none" xmlns="http://www.w3.org/2000/svg">
<path d="M20.769 27.6926H12.692C11.7304 27.6926 10.9129 27.3561 10.2398 26.683C9.56702 26.0099 9.2302 25.1926 9.2302 24.2307V23.0774C9.2302 20.5292 10.1318 18.3539 11.9349 16.5508C13.7379 14.7483 15.9135 13.8467 18.4615 13.8467H20.769C21.3939 13.8467 21.9346 13.6182 22.3915 13.1617C22.8482 12.7049 23.0766 12.1642 23.0766 11.5392V6.92338C23.0766 6.29848 22.8481 5.75731 22.3915 5.3005C21.9347 4.84432 21.3941 4.61548 20.769 4.61548H18.4615C15.9613 4.61548 13.576 5.10272 11.3041 6.07582C9.03242 7.04955 7.06754 8.36579 5.40867 10.0247C3.74992 11.6828 2.43406 13.6478 1.46046 15.9197C0.486863 18.1914 0 20.5773 0 23.0773V48.4613C0 50.3854 0.672768 52.0191 2.01894 53.3658C3.36523 54.7117 5.00023 55.3846 6.92318 55.3846H20.7699C22.6928 55.3846 24.3273 54.7117 25.6737 53.3658C27.0196 52.0191 27.6927 50.3854 27.6927 48.4613V34.6158C27.6927 32.6921 27.0196 31.0583 25.6728 29.7115C24.327 28.3657 22.6919 27.6926 20.769 27.6926Z" fill="#161616" fill-opacity="0.1"/>
<path d="M57.9819 29.7115C56.6361 28.3657 55.0015 27.6926 53.0781 27.6926H45.0013C44.0402 27.6926 43.2219 27.3561 42.5499 26.683C41.8765 26.0099 41.5403 25.1926 41.5403 24.2307V23.0774C41.5403 20.5292 42.4419 18.3539 44.2441 16.5508C46.0465 14.7483 48.222 13.8467 50.7713 13.8467H53.0783C53.7033 13.8467 54.2443 13.6182 54.7009 13.1617C55.1572 12.7049 55.3864 12.1642 55.3864 11.5392V6.92338C55.3864 6.29848 55.1573 5.75731 54.7009 5.3005C54.2445 4.84432 53.7034 4.61548 53.0783 4.61548H50.7713C48.2696 4.61548 45.8848 5.10272 43.6123 6.07582C41.341 7.04955 39.3768 8.36579 37.7179 10.0247C36.059 11.6828 34.7425 13.6478 33.7693 15.9197C32.796 18.1914 32.3085 20.5773 32.3085 23.0773V48.4613C32.3085 50.3854 32.9819 52.0191 34.3277 53.3658C35.6736 54.7117 37.3082 55.3846 39.2314 55.3846H53.0774C55.0007 55.3846 56.6352 54.7117 57.981 53.3658C59.3278 52.0191 59.9998 50.3854 59.9998 48.4613V34.6158C59.9999 32.692 59.3278 31.0583 57.9819 29.7115Z" fill="#161616" fill-opacity="0.1"/>
</svg>
