<svg width="24" height="24" viewBox="0 0 24 24" fill="none" xmlns="http://www.w3.org/2000/svg">
<path d="M20.88 4.20555C20.5189 3.87974 20.0724 3.66366 19.5929 3.58262C19.1133 3.50159 18.6206 3.55898 18.1725 3.74805C17.7149 3.96492 17.3338 4.31536 17.0794 4.75318C16.8251 5.191 16.7093 5.69563 16.7475 6.20055C16.8415 6.93049 17.0977 7.63012 17.4975 8.24805C18.0375 9.34305 18.6525 10.5805 18.45 11.923L16.2375 17.998L12.33 6.94305H13.2225L15.3375 12.943C15.3899 13.088 15.4857 13.2133 15.6118 13.3019C15.738 13.3904 15.8884 13.438 16.0425 13.438C16.1626 13.4388 16.2812 13.4106 16.3882 13.356C16.4952 13.3013 16.5875 13.2218 16.6573 13.124C16.7272 13.0262 16.7725 12.9131 16.7895 12.7942C16.8065 12.6752 16.7947 12.554 16.755 12.4405L14.8125 6.94305H15.405C15.6039 6.94305 15.7947 6.86403 15.9353 6.72338C16.076 6.58272 16.155 6.39196 16.155 6.19305C16.155 5.99413 16.076 5.80337 15.9353 5.66272C15.7947 5.52206 15.6039 5.44305 15.405 5.44305H10.44C10.2411 5.44305 10.0503 5.52206 9.90967 5.66272C9.76902 5.80337 9.69 5.99413 9.69 6.19305C9.69 6.39196 9.76902 6.58272 9.90967 6.72338C10.0503 6.86403 10.2411 6.94305 10.44 6.94305H10.74L11.7375 9.74805L8.79 17.998L4.89 6.94305H5.775L7.8975 12.943C7.94991 13.088 8.0457 13.2133 8.17185 13.3019C8.29799 13.3904 8.44837 13.438 8.6025 13.438C8.68652 13.4395 8.77018 13.4268 8.85 13.4005C8.94323 13.3678 9.02906 13.3169 9.10257 13.2508C9.17607 13.1848 9.2358 13.1049 9.27831 13.0156C9.32083 12.9264 9.34529 12.8297 9.3503 12.731C9.35531 12.6323 9.34076 12.5336 9.3075 12.4405L7.365 6.94305H7.965C8.16391 6.94305 8.35468 6.86403 8.49533 6.72338C8.63598 6.58272 8.715 6.39196 8.715 6.19305C8.715 5.99413 8.63598 5.80337 8.49533 5.66272C8.35468 5.52206 8.16391 5.44305 7.965 5.44305H3C2.80109 5.44305 2.61032 5.52206 2.46967 5.66272C2.32902 5.80337 2.25 5.99413 2.25 6.19305C2.25 6.39196 2.32902 6.58272 2.46967 6.72338C2.61032 6.86403 2.80109 6.94305 3 6.94305H3.3L8.085 20.4955C8.13616 20.6419 8.23142 20.7688 8.35767 20.8588C8.48393 20.9488 8.63496 20.9974 8.79 20.998C8.94414 20.998 9.09451 20.9504 9.22065 20.8619C9.3468 20.7733 9.44259 20.648 9.495 20.503L12.525 11.998L15.525 20.488C15.5762 20.6344 15.6714 20.7613 15.7977 20.8513C15.9239 20.9413 16.075 20.9899 16.23 20.9905C16.3841 20.9905 16.5345 20.9429 16.6607 20.8544C16.7868 20.7658 16.8826 20.6405 16.935 20.4955L19.8375 12.373C19.8375 12.373 19.8375 12.373 19.8375 12.3355L21.06 8.90805L21.5175 7.53555C21.7595 6.98095 21.8281 6.36614 21.7143 5.77185C21.6005 5.17756 21.3097 4.63157 20.88 4.20555ZM20.13 7.06305L19.455 8.99805C19.245 8.47305 19.0125 8.00055 18.8025 7.57305C18.5457 7.14529 18.3584 6.6795 18.2475 6.19305C18.219 5.98381 18.2513 5.7708 18.3403 5.57934C18.4294 5.38789 18.5716 5.22604 18.75 5.11305C18.8656 5.06162 18.991 5.03603 19.1175 5.03805C19.3932 5.03487 19.6603 5.1337 19.8675 5.31555C20.0747 5.55109 20.2079 5.84241 20.2506 6.15317C20.2932 6.46393 20.2435 6.78038 20.1075 7.06305H20.13Z" fill="white"/>
</svg>
