<svg width="50" height="50" viewBox="0 0 50 50" fill="none" xmlns="http://www.w3.org/2000/svg">
<path d="M41.9642 35.7137C43.2004 35.7137 44.4087 36.0803 45.4365 36.767C46.4643 37.4538 47.2654 38.4299 47.7385 39.572C48.2115 40.714 48.3353 41.9707 48.0941 43.183C47.853 44.3954 47.2577 45.5091 46.3836 46.3831C45.5096 47.2572 44.3959 47.8525 43.1835 48.0936C41.9712 48.3348 40.7145 48.211 39.5724 47.738C38.4304 47.2649 37.4543 46.4639 36.7675 45.436C36.0808 44.4082 35.7142 43.1999 35.7142 41.9637V8.03516C35.7142 6.79903 36.0808 5.59065 36.7675 4.56284C37.4543 3.53504 38.4304 2.73396 39.5724 2.26091C40.7145 1.78786 41.9712 1.66409 43.1835 1.90525C44.3959 2.14641 45.5096 2.74166 46.3836 3.61574C47.2577 4.48982 47.853 5.60346 48.0941 6.81584C48.3353 8.02823 48.2115 9.28489 47.7385 10.4269C47.2654 11.569 46.4643 12.5451 45.4365 13.2318C44.4087 13.9186 43.2004 14.2852 41.9642 14.2852H8.03565C6.79951 14.2852 5.59114 13.9186 4.56333 13.2318C3.53553 12.5451 2.73445 11.569 2.2614 10.4269C1.78835 9.28489 1.66458 8.02823 1.90574 6.81584C2.1469 5.60346 2.74215 4.48982 3.61623 3.61574C4.49031 2.74166 5.60395 2.14641 6.81633 1.90525C8.02871 1.66409 9.28538 1.78786 10.4274 2.26091C11.5695 2.73396 12.5456 3.53504 13.2323 4.56284C13.9191 5.59065 14.2856 6.79903 14.2856 8.03516V41.9637C14.2856 43.1999 13.9191 44.4082 13.2323 45.436C12.5456 46.4639 11.5695 47.2649 10.4274 47.738C9.28538 48.211 8.02871 48.3348 6.81633 48.0936C5.60395 47.8525 4.49031 47.2572 3.61623 46.3831C2.74215 45.5091 2.1469 44.3954 1.90574 43.183C1.66458 41.9707 1.78835 40.714 2.2614 39.572C2.73445 38.4299 3.53553 37.4538 4.56333 36.767C5.59114 36.0803 6.79951 35.7137 8.03565 35.7137H41.9642Z" stroke="white" stroke-width="1.5" stroke-linecap="round" stroke-linejoin="round"/>
</svg>
