<svg width="24" height="24" viewBox="0 0 24 24" fill="none" xmlns="http://www.w3.org/2000/svg">
<g clip-path="url(#clip0_799_746)">
<path d="M12.1658 12.8281L9.32825 21.0737C10.1758 21.3222 11.0719 21.4593 12.0005 21.4593C13.1015 21.4593 14.1582 21.2687 15.1407 20.923C15.1154 20.8824 15.0924 20.8393 15.0736 20.7926L12.1658 12.8281Z" fill="white"/>
<path d="M2.54205 12.0013C2.54205 15.7453 4.71784 18.9806 7.87288 20.5134L3.36144 8.15234C2.83679 9.32859 2.54205 10.6303 2.54205 12.0013Z" fill="white"/>
<path d="M18.3846 11.5233C18.3846 10.3545 17.9651 9.54524 17.6053 8.91467C17.1257 8.13563 16.6762 7.47611 16.6762 6.69682C16.6762 5.82744 17.3355 5.0182 18.2645 5.0182C18.3066 5.0182 18.3462 5.0234 18.3873 5.02538C16.7049 3.48436 14.4633 2.54297 12.0007 2.54297C8.69595 2.54297 5.78888 4.23816 4.09839 6.8062C4.32013 6.81288 4.52875 6.81758 4.70693 6.81758C5.69633 6.81758 7.22794 6.69756 7.22794 6.69756C7.73823 6.66687 7.79763 7.41597 7.28857 7.47611C7.28857 7.47611 6.77605 7.53625 6.20612 7.56644L9.64972 17.8111L11.7193 11.6032L10.2454 7.56619C9.73609 7.536 9.25376 7.47586 9.25376 7.47586C8.74446 7.44617 8.80385 6.66712 9.3134 6.69731C9.3134 6.69731 10.8757 6.81733 11.8045 6.81733C12.7936 6.81733 14.3257 6.69731 14.3257 6.69731C14.836 6.66712 14.8957 7.41573 14.3859 7.47586C14.3859 7.47586 13.8729 7.536 13.3034 7.56619L16.7218 17.7332L17.6651 14.5808C18.0737 13.2727 18.3846 12.3328 18.3846 11.5233Z" fill="white"/>
<path d="M20.299 7.46094C20.3396 7.76187 20.3629 8.08581 20.3629 8.43351C20.3629 9.39321 20.1839 10.4722 19.644 11.8212L16.7547 20.1737C19.5662 18.5339 21.4582 15.4875 21.4582 11.9989C21.4584 10.3542 21.038 8.80794 20.299 7.46094Z" fill="white"/>
<path d="M12 0C5.37265 0 0.000244141 5.37265 0.000244141 12C0.000244141 18.6273 5.37265 24 12 24C18.6273 24 23.9997 18.6273 23.9997 12C23.9997 5.37265 18.6273 0 12 0ZM12.0005 22.5194C6.19971 22.5194 1.48113 17.8008 1.48113 11.9995C1.48113 6.19922 6.19946 1.48064 12.0005 1.48064C17.8005 1.48064 22.5189 6.19946 22.5189 11.9995C22.5191 17.8003 17.8003 22.5194 12.0005 22.5194Z" fill="white"/>
</g>
<defs>
<clipPath id="clip0_799_746">
<rect width="24" height="24" fill="white"/>
</clipPath>
</defs>
</svg>
