<svg width="24" height="24" viewBox="0 0 24 24" fill="none" xmlns="http://www.w3.org/2000/svg">
<path fill-rule="evenodd" clip-rule="evenodd" d="M11.5 2.13397C11.8094 1.95534 12.1906 1.95534 12.5 2.13397L20.2943 6.63397C20.6037 6.81261 20.7943 7.14273 20.7943 7.5V16.5C20.7943 16.8573 20.6037 17.1874 20.2943 17.366L12.5 21.866C12.1906 22.0447 11.8094 22.0447 11.5 21.866L9.55148 20.741C9.07319 20.4649 8.90931 19.8533 9.18546 19.375C9.4616 18.8967 10.0732 18.7328 10.5515 19.009L12 19.8453L18.7943 15.9227V8.07735L12 4.1547L5.20581 8.07735V15.9591L6.77244 16.9834C6.77859 16.9828 6.78482 16.9822 6.79113 16.9815C6.98724 16.9619 7.23183 16.9239 7.46268 16.8547C7.70399 16.7823 7.85978 16.6965 7.94045 16.6239C7.99249 16.5771 8.00004 16.5555 8.00004 16.5V9C8.00004 8.44772 8.44775 8 9.00004 8C9.55232 8 10 8.44772 10 9V16.5C10 17.1945 9.69509 17.7354 9.27837 18.1105C8.89028 18.4598 8.42106 18.6552 8.03736 18.7703C7.6432 18.8886 7.26277 18.9443 6.99013 18.9716C6.85137 18.9855 6.73459 18.9925 6.65024 18.9962C6.60795 18.998 6.57346 18.9989 6.54807 18.9994L6.51685 18.9999L6.50657 19H6.50282H6.50129C6.50098 19 6.5 19 6.5 18V19C6.30562 19 6.11545 18.9433 5.95276 18.837L3.65857 17.337C3.37607 17.1523 3.20581 16.8375 3.20581 16.5V7.5C3.20581 7.14273 3.39641 6.81261 3.70581 6.63397L11.5 2.13397ZM11.8599 8.79428C12.4626 8.29198 13.3374 8 14.5 8C15.6627 8 16.5375 8.29198 17.1402 8.79428C17.7359 9.29071 18 9.94387 18 10.5C18 11.0523 17.5523 11.5 17 11.5C16.4478 11.5 16 11.0523 16 10.5C16 10.5111 16.0006 10.5162 16.0003 10.5163C15.999 10.5165 15.9836 10.4338 15.8599 10.3307C15.7126 10.208 15.3374 10 14.5 10C13.6627 10 13.2875 10.208 13.1402 10.3307C13.0219 10.4293 13.0026 10.5092 13.0001 10.5158C13.0006 10.7665 13.0137 10.7917 13.0189 10.8017C13.0191 10.8021 13.0193 10.8024 13.0195 10.8028C13.0199 10.8036 13.0318 10.8292 13.0863 10.8776C13.1456 10.9303 13.2545 11.0092 13.4473 11.1056C13.8348 11.2993 14.2308 11.4019 14.7426 11.5299L14.7752 11.538C15.2576 11.6585 15.8484 11.8061 16.4473 12.1056C17.2091 12.4865 17.6071 13.075 17.8035 13.5661C17.8997 13.8064 17.948 14.023 17.9728 14.1839C17.9853 14.265 17.992 14.3339 17.9957 14.3873C17.9976 14.414 17.9986 14.437 17.9993 14.4559L17.9999 14.4811L18 14.4914V14.4959V14.498C18 14.4985 18 14.5 17 14.5L18 14.498C18 15.0541 17.7359 15.7093 17.1402 16.2057C16.5375 16.708 15.6627 17 14.5 17C13.3374 17 12.4626 16.708 11.8599 16.2057C11.2641 15.7093 11 15.0561 11 14.5C11 13.9477 11.4478 13.5 12 13.5C12.5523 13.5 13 13.9477 13 14.5C13 14.4889 12.9995 14.4838 12.9998 14.4837C13.0011 14.4835 13.0165 14.5662 13.1402 14.6693C13.2875 14.792 13.6627 15 14.5 15C15.3374 15 15.7126 14.792 15.8599 14.6693C15.9581 14.5874 15.9881 14.5184 15.9969 14.4936C15.9966 14.4918 15.9963 14.4899 15.996 14.488C15.9895 14.4457 15.9754 14.3811 15.9466 14.3089C15.893 14.175 15.7909 14.0135 15.5528 13.8944C15.1653 13.7007 14.7693 13.5981 14.2575 13.4701L14.2248 13.462C13.7425 13.3415 13.1517 13.1939 12.5528 12.8944C11.9396 12.5878 11.486 12.2081 11.2306 11.6972C10.9978 11.2316 10.9992 10.7735 11 10.536C11 10.5233 11 10.5113 11 10.5C11 9.94388 11.2641 9.29071 11.8599 8.79428Z" fill="white"/>
</svg>
