<svg width="108" height="102" viewBox="0 0 108 102" fill="none" xmlns="http://www.w3.org/2000/svg">
<path d="M24.7956 29.8931L8.78369 57.9336H25.1931H25.2034L41.2165 29.8931H24.7956Z" stroke="#EF4823" stroke-width="1.5" stroke-linecap="round" stroke-linejoin="round"/>
<path d="M57.8589 0.75L49.6496 15.1278L65.9933 43.7497L74.2037 29.3719L57.8589 0.75Z" stroke="#EF4823" stroke-width="1.5" stroke-linecap="round" stroke-linejoin="round"/>
<path d="M25.2008 57.9457L25.206 57.9341H25.1943L25.2008 57.9457Z" stroke="#EF4823" stroke-width="1.5" stroke-linecap="round" stroke-linejoin="round"/>
<path d="M49.6474 15.1284H0.75L16.9889 43.5666L24.796 29.8934H41.2169L49.2787 43.7503H65.9923L49.6474 15.1284Z" stroke="#EF4823" stroke-width="1.5" stroke-linecap="round" stroke-linejoin="round"/>
<path d="M8.96045 0.75L0.75 15.1278H49.6474L57.8579 0.75H8.96045Z" stroke="#EF4823" stroke-width="1.5" stroke-linecap="round" stroke-linejoin="round"/>
<path d="M49.392 72.3114L41.0271 57.9336L49.2791 43.75L41.2172 29.8931L25.2042 57.9336L49.6535 100.75L65.8924 72.3114H49.392Z" stroke="#EF4823" stroke-width="1.5" stroke-linecap="round" stroke-linejoin="round"/>
<path d="M25.2033 57.9341L25.1987 57.9445L25.1929 57.9341H8.78357L33.2329 100.75H49.6526L25.2033 57.9341Z" stroke="#EF4823" stroke-width="1.5" stroke-linecap="round" stroke-linejoin="round"/>
<path d="M74.0925 57.9341H41.0272L49.3921 72.3119H82.3018L74.0925 57.9341Z" stroke="#EF4823" stroke-width="1.5" stroke-linecap="round" stroke-linejoin="round"/>
<path d="M98.5452 15.1284L74.0959 57.9444L82.3006 72.3118L106.75 29.4969L98.5452 15.1284Z" stroke="#EF4823" stroke-width="1.5" stroke-linecap="round" stroke-linejoin="round"/>
<path d="M66.0687 15.1284L74.2031 29.3725L65.9927 43.7503H49.2791L41.0272 57.934H74.0925L98.5464 15.1284H66.0687Z" stroke="#EF4823" stroke-width="1.5" stroke-linecap="round" stroke-linejoin="round"/>
</svg>
