<svg width="50" height="50" viewBox="0 0 50 50" fill="none" xmlns="http://www.w3.org/2000/svg">
<g clip-path="url(#clip0_296_875)">
<path d="M25.3454 26.7236L19.4338 43.9019C21.1997 44.4195 23.0665 44.7052 25.001 44.7052C27.2947 44.7052 29.4962 44.3082 31.543 43.5879C31.4904 43.5034 31.4425 43.4137 31.4033 43.3162L25.3454 26.7236Z" fill="#EF4823"/>
<path d="M5.2959 24.9991C5.2959 32.7992 9.82879 39.5392 16.4018 42.7327L7.00295 16.9805C5.90994 19.431 5.2959 22.1429 5.2959 24.9991Z" fill="#EF4823"/>
<path d="M38.3012 24.0049C38.3012 21.5699 37.4273 19.884 36.6776 18.5703C35.6785 16.9473 34.7422 15.5733 34.7422 13.9497C34.7422 12.1385 36.1157 10.4526 38.0511 10.4526C38.1388 10.4526 38.2213 10.4635 38.3068 10.4676C34.802 7.25713 30.132 5.2959 25.0015 5.2959C18.1166 5.2959 12.0602 8.82756 8.53833 14.1776C9.00028 14.1915 9.43491 14.2013 9.80612 14.2013C11.8674 14.2013 15.0582 13.9513 15.0582 13.9513C16.1213 13.8874 16.2451 15.448 15.1845 15.5733C15.1845 15.5733 14.1168 15.6986 12.9294 15.7615L20.1036 37.1045L24.4153 24.1714L21.3446 15.7609C20.2835 15.698 19.2787 15.5728 19.2787 15.5728C18.2176 15.5109 18.3414 13.8879 19.4029 13.9508C19.4029 13.9508 22.6577 14.2008 24.5927 14.2008C26.6534 14.2008 29.8453 13.9508 29.8453 13.9508C30.9084 13.8879 31.0327 15.4475 29.9706 15.5728C29.9706 15.5728 28.9018 15.698 27.7155 15.7609L34.8371 36.9421L36.8024 30.3748C37.6536 27.6495 38.3012 25.6913 38.3012 24.0049Z" fill="#EF4823"/>
<path d="M42.2896 15.5459C42.3742 16.1728 42.4227 16.8477 42.4227 17.5721C42.4227 19.5715 42.0499 21.8194 40.9249 24.6297L34.9056 42.0307C40.763 38.6146 44.7046 32.2679 44.7046 24.9999C44.7051 21.5734 43.8291 18.3521 42.2896 15.5459Z" fill="#EF4823"/>
<path d="M25 0C11.193 0 0.000488281 11.193 0.000488281 25C0.000488281 38.807 11.193 50 25 50C38.8069 50 49.9995 38.807 49.9995 25C49.9995 11.193 38.8069 0 25 0ZM25.001 46.9153C12.916 46.9153 3.08566 37.085 3.08566 24.999C3.08566 12.915 12.9155 3.08466 25.001 3.08466C37.0844 3.08466 46.9143 12.9155 46.9143 24.999C46.9148 37.0839 37.0839 46.9153 25.001 46.9153Z" fill="#EF4823"/>
</g>
<defs>
<clipPath id="clip0_296_875">
<rect width="50" height="50" fill="white"/>
</clipPath>
</defs>
</svg>
