<svg width="24" height="24" viewBox="0 0 24 24" fill="none" xmlns="http://www.w3.org/2000/svg">
<g clip-path="url(#clip0_799_671)">
<path d="M5.4375 13.875C5.4375 12.4534 6.59399 11.2969 8.01562 11.2969H15.9844C16.6306 11.2969 17.1562 10.7712 17.1562 10.125V3.51562C17.1562 1.57709 15.5792 0 13.6406 0H10.3594C8.42084 0 6.84375 1.57709 6.84375 3.51562V5.4375H12C12.3884 5.4375 12.7031 5.75226 12.7031 6.14062C12.7031 6.52899 12.3884 6.84375 12 6.84375H3.51562C1.57709 6.84375 0 8.42084 0 10.3594V13.6406C0 15.5792 1.57709 17.1562 3.51562 17.1562H5.4375V13.875ZM10.3594 3.5625C9.97101 3.5625 9.65625 3.24774 9.65625 2.85938C9.65625 2.47101 9.97101 2.15625 10.3594 2.15625C10.7477 2.15625 11.0625 2.47101 11.0625 2.85938C11.0625 3.24774 10.7477 3.5625 10.3594 3.5625Z" fill="white"/>
<path d="M20.4844 6.84375H18.5625V10.125C18.5625 11.5466 17.406 12.7031 15.9844 12.7031H8.01562C7.36945 12.7031 6.84375 13.2288 6.84375 13.875V20.4844C6.84375 22.4229 8.42084 24 10.3594 24H13.6406C15.5792 24 17.1562 22.4229 17.1562 20.4844V18.5625H12C11.6116 18.5625 11.2969 18.2477 11.2969 17.8594C11.2969 17.471 11.6116 17.1562 12 17.1562H20.4844C22.4229 17.1562 24 15.5792 24 13.6406V10.3594C24 8.42084 22.4229 6.84375 20.4844 6.84375ZM13.6406 20.4375C14.029 20.4375 14.3438 20.7523 14.3438 21.1406C14.3438 21.529 14.029 21.8438 13.6406 21.8438C13.2523 21.8438 12.9375 21.529 12.9375 21.1406C12.9375 20.7523 13.2523 20.4375 13.6406 20.4375Z" fill="white"/>
</g>
<defs>
<clipPath id="clip0_799_671">
<rect width="24" height="24" fill="white"/>
</clipPath>
</defs>
</svg>
