<svg width="24" height="24" viewBox="0 0 24 24" fill="none" xmlns="http://www.w3.org/2000/svg">
<g clip-path="url(#clip0_605_1233)">
<path d="M12 17.1758V18.9072" stroke="white" stroke-width="1.5" stroke-linecap="round" stroke-linejoin="round"/>
<path d="M12 8.58789V10.1993" stroke="white" stroke-width="1.5" stroke-linecap="round" stroke-linejoin="round"/>
<path d="M12.0006 23.1247C18.0006 23.1247 22.2863 20.999 22.2863 16.2675C22.2863 11.1247 19.7148 7.69612 14.572 5.12469L16.5948 2.51897C16.6976 2.34801 16.7534 2.15291 16.7564 1.95346C16.7595 1.75401 16.7098 1.5573 16.6123 1.38325C16.5148 1.20921 16.3731 1.06403 16.2014 0.962425C16.0298 0.860819 15.8343 0.806401 15.6348 0.804688H8.36627C8.16681 0.806401 7.97134 0.860819 7.79968 0.962425C7.62802 1.06403 7.48628 1.20921 7.38882 1.38325C7.29135 1.5573 7.24163 1.75401 7.2447 1.95346C7.24776 2.15291 7.30351 2.34801 7.40627 2.51897L9.42913 5.14183C4.28627 7.7304 1.71484 11.159 1.71484 16.3018C1.71484 20.999 6.00056 23.1247 12.0006 23.1247Z" stroke="white" stroke-width="1.5" stroke-linecap="round" stroke-linejoin="round"/>
<path d="M10.2867 16.3878C10.4958 16.6361 10.7591 16.8331 11.0562 16.9639C11.3534 17.0946 11.6766 17.1556 12.0009 17.142C12.4967 17.1758 12.9863 17.0161 13.3667 16.6964C13.7472 16.3767 13.9888 15.922 14.0409 15.4278C13.9888 14.9336 13.7472 14.4788 13.3667 14.1591C12.9863 13.8394 12.4967 13.6797 12.0009 13.7135C11.5052 13.7473 11.0156 13.5875 10.6351 13.2678C10.2547 12.9481 10.013 12.4934 9.96094 11.9992C10.0088 11.5033 10.2493 11.0459 10.6308 10.7254C11.0122 10.4048 11.5042 10.2467 12.0009 10.2849C12.3196 10.2654 12.6386 10.3168 12.935 10.4354C13.2315 10.5539 13.4979 10.7367 13.7152 10.9706" stroke="white" stroke-width="1.5" stroke-linecap="round" stroke-linejoin="round"/>
</g>
<defs>
<clipPath id="clip0_605_1233">
<rect width="24" height="24" fill="white"/>
</clipPath>
</defs>
</svg>
