<svg width="24" height="24" viewBox="0 0 24 24" fill="none" xmlns="http://www.w3.org/2000/svg">
<g clip-path="url(#clip0_799_791)">
<path d="M24 12C24 14.2874 23.3598 16.4253 22.249 18.2444C21.5481 19.393 20.6591 20.4142 19.6256 21.2655C19.5184 21.3536 19.4096 21.4403 19.2994 21.5246C18.4148 22.2039 17.4333 22.7623 16.3788 23.1762C15.0225 23.7081 13.5453 24 12 24C10.4547 24 8.97797 23.7081 7.62122 23.1762C6.56667 22.7628 5.58516 22.2039 4.70058 21.5251C3.52702 20.6249 2.52492 19.512 1.75102 18.2449C0.640172 16.4258 0 14.2874 0 12C0 5.37258 5.37258 0 12 0C14.8962 0 17.5523 1.02562 19.6256 2.73455C22.297 4.93519 24 8.26875 24 12Z" fill="white"/>
<path d="M16.3788 11.4509V23.1771C15.0226 23.709 13.5453 24.0009 12 24.0009C10.4547 24.0009 8.978 23.709 7.62125 23.1771V11.4509L10.4719 9.80469V21.5255L12 22.4081L13.5282 21.5255V9.80469L16.3788 11.4509Z" fill="#161616"/>
<path d="M22.249 8.06077V18.2446C21.5481 19.3932 20.6591 20.4144 19.6256 21.2656C19.5184 21.3538 19.4096 21.4405 19.2994 21.5248V9.76378L12 5.54958L4.7006 9.76378V21.5252C3.52704 20.625 2.52494 19.5122 1.75104 18.2451V8.06077L12 2.14453L22.249 8.06077Z" fill="#161616"/>
</g>
<defs>
<clipPath id="clip0_799_791">
<rect width="24" height="24" fill="white"/>
</clipPath>
</defs>
</svg>
