<svg width="24" height="24" viewBox="0 0 24 24" fill="none" xmlns="http://www.w3.org/2000/svg">
<path d="M20.5714 3.42969H22.2857C22.513 3.42969 22.731 3.51999 22.8918 3.68074C23.0525 3.84148 23.1428 4.0595 23.1428 4.28683V18.0011C23.1428 18.2284 23.0525 18.4465 22.8918 18.6072C22.731 18.768 22.513 18.8583 22.2857 18.8583H1.71426C1.48693 18.8583 1.26891 18.768 1.10817 18.6072C0.947423 18.4465 0.857117 18.2284 0.857117 18.0011V4.28683C0.857117 4.0595 0.947423 3.84148 1.10817 3.68074C1.26891 3.51999 1.48693 3.42969 1.71426 3.42969H3.42855" stroke="white" stroke-width="1.5" stroke-linecap="round" stroke-linejoin="round"/>
<path d="M10.2857 18.8594L8.57141 23.1451" stroke="white" stroke-width="1.5" stroke-linecap="round" stroke-linejoin="round"/>
<path d="M13.7142 18.8594L15.4285 23.1451" stroke="white" stroke-width="1.5" stroke-linecap="round" stroke-linejoin="round"/>
<path d="M6.85712 23.1445H17.1428" stroke="white" stroke-width="1.5" stroke-linecap="round" stroke-linejoin="round"/>
<path d="M12.0514 3.42969V6.00112" stroke="white" stroke-width="1.5" stroke-linecap="round" stroke-linejoin="round"/>
<path d="M6.85712 6.42969L9.08569 7.7154" stroke="white" stroke-width="1.5" stroke-linecap="round" stroke-linejoin="round"/>
<path d="M6.85712 12.4302L9.08569 11.1445" stroke="white" stroke-width="1.5" stroke-linecap="round" stroke-linejoin="round"/>
<path d="M12.0514 15.4308V12.8594" stroke="white" stroke-width="1.5" stroke-linecap="round" stroke-linejoin="round"/>
<path d="M17.2457 12.4302L15.0171 11.1445" stroke="white" stroke-width="1.5" stroke-linecap="round" stroke-linejoin="round"/>
<path d="M17.2457 6.42969L15.0171 7.7154" stroke="white" stroke-width="1.5" stroke-linecap="round" stroke-linejoin="round"/>
<path d="M12.0514 12.8571C13.9449 12.8571 15.4799 11.3221 15.4799 9.42857C15.4799 7.53502 13.9449 6 12.0514 6C10.1578 6 8.6228 7.53502 8.6228 9.42857C8.6228 11.3221 10.1578 12.8571 12.0514 12.8571Z" stroke="white" stroke-width="1.5" stroke-linecap="round" stroke-linejoin="round"/>
</svg>
