<svg width="50" height="50" viewBox="0 0 50 50" fill="none" xmlns="http://www.w3.org/2000/svg">
<g clip-path="url(#clip0_594_298)">
<path d="M40.2344 0H9.76562C7.17562 0 4.6917 1.02888 2.86029 2.86029C1.02888 4.6917 0 7.17562 0 9.76562L0 40.2344C0 42.8244 1.02888 45.3083 2.86029 47.1397C4.6917 48.9711 7.17562 50 9.76562 50H40.2344C42.8244 50 45.3083 48.9711 47.1397 47.1397C48.9711 45.3083 50 42.8244 50 40.2344V9.76562C50 7.17562 48.9711 4.6917 47.1397 2.86029C45.3083 1.02888 42.8244 0 40.2344 0ZM21.1025 33.874L19.5537 30.7764C18.9189 29.583 18.5127 28.6943 18.0303 27.7041H17.9795C17.624 28.6943 17.1924 29.583 16.6338 30.7764L15.2344 33.874H10.8193L15.7705 25.2158L10.9971 16.7617H15.4404L16.9385 19.8867C17.4463 20.9277 17.8271 21.7656 18.2334 22.7295H18.2842C18.6904 21.6387 19.0205 20.874 19.4561 19.8867L20.9033 16.7617H25.3203L20.4971 25.1143L25.5752 33.874H21.1025ZM35.751 33.874L35.5986 32.0713H35.5225C34.7607 33.4385 33.2373 34.1533 31.6387 34.1533C28.6934 34.1533 26.332 31.6396 26.332 27.7803C26.3066 23.5908 28.9219 21.1543 31.8926 21.1543C33.4404 21.1543 34.6084 21.7129 35.167 22.5498H35.2178V15.8477H39.0771V30.167C39.0771 31.5635 39.1279 33.0361 39.1748 33.8779L35.751 33.874Z" fill="white"/>
<path d="M32.9102 24.1211C31.1338 24.1211 30.2451 25.6953 30.2451 27.6504C30.2451 29.7578 31.2852 31.0781 32.8818 31.0781C33.4159 31.0815 33.9344 30.8978 34.3471 30.5589C34.7599 30.22 35.041 29.7472 35.1416 29.2227C35.1932 28.9293 35.2187 28.6319 35.2178 28.334V26.7139C35.2253 26.4758 35.2083 26.2375 35.167 26.0029C34.9395 24.9873 34.1016 24.1211 32.9102 24.1211Z" fill="white"/>
</g>
<defs>
<clipPath id="clip0_594_298">
<rect width="50" height="50" fill="white"/>
</clipPath>
</defs>
</svg>
