<svg width="30" height="30" viewBox="0 0 30 30" fill="none" xmlns="http://www.w3.org/2000/svg">
<g clip-path="url(#clip0_440_2110)">
<path d="M3.21439 12.8572H5.35725C5.64141 12.8572 5.91393 12.9701 6.11486 13.171C6.31579 13.3719 6.42868 13.6444 6.42868 13.9286V19.2857C6.42868 19.5699 6.31579 19.8424 6.11486 20.0434C5.91393 20.2443 5.64141 20.3572 5.35725 20.3572H3.21439C2.64607 20.3572 2.10103 20.1314 1.69916 19.7295C1.2973 19.3277 1.07153 18.7826 1.07153 18.2143V15C1.07153 14.4317 1.2973 13.8867 1.69916 13.4848C2.10103 13.0829 2.64607 12.8572 3.21439 12.8572V12.8572Z" stroke="white" stroke-width="1.5" stroke-linecap="round" stroke-linejoin="round"/>
<path d="M26.7859 20.3572H24.643C24.3588 20.3572 24.0863 20.2443 23.8854 20.0434C23.6844 19.8424 23.5716 19.5699 23.5716 19.2857V13.9286C23.5716 13.6444 23.6844 13.3719 23.8854 13.171C24.0863 12.9701 24.3588 12.8572 24.643 12.8572H26.7859C27.3542 12.8572 27.8992 13.0829 28.3011 13.4848C28.7029 13.8867 28.9287 14.4317 28.9287 15V18.2143C28.9287 18.7826 28.7029 19.3277 28.3011 19.7295C27.8992 20.1314 27.3542 20.3572 26.7859 20.3572V20.3572Z" stroke="white" stroke-width="1.5" stroke-linecap="round" stroke-linejoin="round"/>
<path d="M20.3572 26.25C21.4938 26.25 22.5839 25.7985 23.3876 24.9948C24.1914 24.1911 24.6429 23.101 24.6429 21.9643V20.3572" stroke="white" stroke-width="1.5" stroke-linecap="round" stroke-linejoin="round"/>
<path d="M17.6787 23.5714C18.3891 23.5714 19.0705 23.8536 19.5728 24.3559C20.0751 24.8583 20.3573 25.5396 20.3573 26.25C20.3573 26.9604 20.0751 27.6417 19.5728 28.144C19.0705 28.6463 18.3891 28.9286 17.6787 28.9286H14.4645C13.7541 28.9286 13.0728 28.6463 12.5704 28.144C12.0681 27.6417 11.7859 26.9604 11.7859 26.25C11.7859 25.5396 12.0681 24.8583 12.5704 24.3559C13.0728 23.8536 13.7541 23.5714 14.4645 23.5714H17.6787Z" stroke="white" stroke-width="1.5" stroke-linecap="round" stroke-linejoin="round"/>
<path d="M5.35718 12.8571V10.7143C5.35718 8.15682 6.37312 5.70413 8.18151 3.89574C9.98989 2.08735 12.4426 1.07141 15 1.07141C17.5575 1.07141 20.0102 2.08735 21.8186 3.89574C23.627 5.70413 24.6429 8.15682 24.6429 10.7143V12.8571" stroke="white" stroke-width="1.5" stroke-linecap="round" stroke-linejoin="round"/>
<path d="M11.7859 8.57141V11.7857" stroke="white" stroke-width="1.5" stroke-linecap="round" stroke-linejoin="round"/>
<path d="M18.2144 8.57141V11.7857" stroke="white" stroke-width="1.5" stroke-linecap="round" stroke-linejoin="round"/>
<path d="M11.7859 16.0714C11.7859 18.9214 18.2145 18.9214 18.2145 16.0714" stroke="white" stroke-width="1.5" stroke-linecap="round" stroke-linejoin="round"/>
</g>
<defs>
<clipPath id="clip0_440_2110">
<rect width="30" height="30" fill="white"/>
</clipPath>
</defs>
</svg>
