<svg width="24" height="24" viewBox="0 0 24 24" fill="none" xmlns="http://www.w3.org/2000/svg">
<path d="M8.96575 3.85693L9.70289 1.95408C9.82721 1.6319 10.0459 1.35478 10.3304 1.15901C10.6149 0.963243 10.9519 0.857954 11.2972 0.856934H12.7029C13.0482 0.857954 13.3852 0.963243 13.6697 1.15901C13.9541 1.35478 14.1729 1.6319 14.2972 1.95408L15.0343 3.85693L17.5372 5.29693L19.56 4.98836C19.8969 4.94264 20.2397 4.99809 20.5449 5.14766C20.8502 5.29723 21.1041 5.53416 21.2743 5.82836L21.96 7.02836C22.1357 7.32725 22.2167 7.67238 22.1922 8.01823C22.1677 8.36407 22.039 8.69436 21.8229 8.96551L20.5715 10.5598V13.4398L21.8572 15.0341C22.0732 15.3052 22.202 15.6355 22.2265 15.9814C22.251 16.3272 22.17 16.6723 21.9943 16.9712L21.3086 18.1712C21.1383 18.4654 20.8845 18.7024 20.5792 18.8519C20.274 19.0015 19.9312 19.0569 19.5943 19.0112L17.5715 18.7026L15.0686 20.1426L14.3315 22.0455C14.2071 22.3677 13.9884 22.6448 13.704 22.8406C13.4195 23.0363 13.0825 23.1416 12.7372 23.1426H11.2972C10.9519 23.1416 10.6149 23.0363 10.3304 22.8406C10.0459 22.6448 9.82721 22.3677 9.70289 22.0455L8.96575 20.1426L6.46289 18.7026L4.44004 19.0112C4.10321 19.0569 3.76039 19.0015 3.45515 18.8519C3.14991 18.7024 2.89602 18.4654 2.72575 18.1712L2.04004 16.9712C1.86433 16.6723 1.78337 16.3272 1.80785 15.9814C1.83234 15.6355 1.96111 15.3052 2.17718 15.0341L3.42861 13.4398V10.5598L2.14289 8.96551C1.92683 8.69436 1.79805 8.36407 1.77357 8.01823C1.74908 7.67238 1.83004 7.32725 2.00575 7.02836L2.69147 5.82836C2.86173 5.53416 3.11562 5.29723 3.42086 5.14766C3.72611 4.99809 4.06892 4.94264 4.40575 4.98836L6.42861 5.29693L8.96575 3.85693ZM8.57147 11.9998C8.57147 12.6779 8.77255 13.3408 9.14928 13.9046C9.52602 14.4684 10.0615 14.9079 10.688 15.1674C11.3145 15.4269 12.0038 15.4948 12.6689 15.3625C13.334 15.2302 13.9449 14.9037 14.4244 14.4242C14.9039 13.9447 15.2304 13.3337 15.3627 12.6687C15.495 12.0036 15.4271 11.3142 15.1676 10.6877C14.9081 10.0612 14.4687 9.52577 13.9048 9.14904C13.341 8.7723 12.6781 8.57122 12 8.57122C11.0907 8.57122 10.2187 8.93244 9.57567 9.57542C8.93269 10.2184 8.57147 11.0905 8.57147 11.9998V11.9998Z" stroke="white" stroke-width="1.5" stroke-linecap="round" stroke-linejoin="round"/>
</svg>
