<svg width="34" height="34" viewBox="0 0 34 34" fill="none" xmlns="http://www.w3.org/2000/svg">
<path d="M26.3993 25.5133C24.2493 27.6421 21.3289 28.7956 18.2558 28.7956C11.9571 28.7956 7.37715 24.0347 7.37715 17.5C7.37715 10.9354 11.9571 6.17444 18.2558 6.17444C21.2992 6.17444 24.1871 7.32659 26.3696 9.42684L27.2291 10.2552L31.0089 6.61789L30.1791 5.78949C27.0453 2.68401 22.8046 1 18.2558 1C8.97588 1 2 8.0965 2 17.5286C2 26.9321 9.00697 34 18.2558 34C22.8357 34 27.0764 32.2861 30.2102 29.1806L31.04 28.3522L27.2913 24.6563L26.3993 25.5133Z" fill="white"/>
<path d="M17.84 12.8809C19.2403 12.8809 20.5833 13.4371 21.5735 14.4273C22.5637 15.4175 23.12 16.7605 23.12 18.1609C23.12 19.5612 22.5637 20.9042 21.5735 21.8944C20.5833 22.8846 19.2403 23.4409 17.84 23.4409C16.4397 23.4409 15.0967 22.8846 14.1065 21.8944C13.1163 20.9042 12.56 19.5612 12.56 18.1609C12.56 16.7605 13.1163 15.4175 14.1065 14.4273C15.0967 13.4371 16.4397 12.8809 17.84 12.8809Z" fill="white"/>
</svg>
