<svg width="24" height="24" viewBox="0 0 24 24" fill="none" xmlns="http://www.w3.org/2000/svg">
<path d="M11.9999 9.69141C10.8207 9.69141 9.85706 10.7292 9.85706 11.9991C9.85706 13.269 10.8207 14.3068 11.9999 14.3068C13.1791 14.3068 14.1428 13.269 14.1428 11.9991C14.1428 10.7292 13.1791 9.69141 11.9999 9.69141Z" fill="white"/>
<path d="M2 11.9982C2 12.71 2.33226 13.3672 2.86705 13.922C3.40187 14.4767 4.14498 14.9498 5.04688 15.3455C6.8507 16.1368 9.29796 16.6136 12 16.6136C14.702 16.6136 17.1494 16.1368 18.9531 15.3455C19.8551 14.9498 20.5981 14.4767 21.133 13.922C21.6677 13.3672 22 12.71 22 11.9982C22 11.2864 21.6677 10.6283 21.133 10.0736C20.5981 9.5188 19.8551 9.04573 18.9531 8.65004C17.1494 7.85873 14.702 7.38281 12 7.38281C9.29796 7.38281 6.8507 7.85873 5.04688 8.65004C4.14498 9.04573 3.40187 9.5188 2.86705 10.0736C2.33226 10.6283 2 11.2864 2 11.9982ZM2.71498 11.9982C2.71498 11.5418 2.92263 11.0861 3.3637 10.6287C3.80474 10.1712 4.47379 9.73353 5.31682 9.36373C7.0029 8.62396 9.37668 8.15275 12 8.15275C14.6233 8.15275 16.9971 8.62396 18.6832 9.36373C19.5262 9.73353 20.1953 10.1712 20.6363 10.6287C21.0774 11.0861 21.285 11.5418 21.285 11.9982C21.285 12.4545 21.0774 12.9094 20.6363 13.3669C20.1953 13.8243 19.5262 14.2628 18.6832 14.6326C16.9971 15.3723 14.6233 15.8428 12 15.8428C9.37668 15.8428 7.0029 15.3723 5.31682 14.6326C4.47379 14.2628 3.80474 13.8243 3.3637 13.3669C2.92263 12.9094 2.71498 12.4545 2.71498 11.9982Z" fill="white"/>
<path d="M17.2128 21.7141C17.7885 21.3565 18.1424 20.7026 18.3075 19.9077C18.4726 19.1129 18.4639 18.157 18.3111 17.085C18.0044 14.9409 17.1101 12.3267 15.7012 9.70132C14.2923 7.07598 12.6349 4.93568 11.0624 3.57792C10.2761 2.899 9.51093 2.41294 8.78854 2.16932C8.06615 1.92575 7.36286 1.92843 6.78711 2.28604C6.21136 2.64369 5.85812 3.29722 5.69301 4.09207C5.52794 4.88691 5.53665 5.8428 5.68944 6.91479C5.99619 9.05887 6.89037 11.6731 8.2993 14.2985C9.70823 16.9238 11.3656 19.0641 12.9381 20.4218C13.7244 21.1008 14.4896 21.5868 15.212 21.8304C15.9344 22.074 16.6371 22.0718 17.2128 21.7141ZM16.8547 21.0468C16.4941 21.2708 16.0234 21.2973 15.425 21.0955C14.8265 20.8937 14.124 20.4596 13.3857 19.8221C11.9091 18.5472 10.2899 16.469 8.91863 13.9138C7.54735 11.3586 6.684 8.81087 6.39596 6.79761C6.25196 5.79103 6.25386 4.9195 6.39064 4.26104C6.52743 3.60262 6.78403 3.17729 7.1446 2.9533C7.50521 2.72937 7.97597 2.70292 8.5744 2.90465C9.17282 3.10646 9.87587 3.54019 10.6142 4.17761C12.0908 5.45257 13.7094 7.5311 15.0807 10.0864C16.4519 12.6416 17.3159 15.1889 17.6039 17.2021C17.7479 18.2088 17.7455 19.0806 17.6086 19.7391C17.4718 20.3975 17.2153 20.8228 16.8547 21.0468Z" fill="white"/>
<path d="M6.78712 21.7141C6.21137 21.3565 5.85756 20.7025 5.69241 19.9077C5.52731 19.1128 5.53573 18.1576 5.68884 17.0855C5.99555 14.9413 6.89012 12.3264 8.29905 9.70091C9.70802 7.0755 11.3654 4.93516 12.938 3.57732C13.7243 2.8984 14.4891 2.41295 15.2115 2.16934C15.9339 1.92576 16.6372 1.9284 17.213 2.28605C17.7887 2.64367 18.142 3.29724 18.3071 4.09213C18.4721 4.88697 18.4638 5.84226 18.3106 6.91434C18.0039 9.05845 17.1097 11.6728 15.7007 14.2982C14.2918 16.9236 12.634 19.0646 11.0614 20.4224C10.2751 21.1014 9.5103 21.5868 8.78794 21.8304C8.06555 22.0741 7.36287 22.0718 6.78712 21.7141ZM7.14523 21.0469C7.50583 21.2708 7.97624 21.2979 8.57467 21.0961C9.17313 20.8943 9.87597 20.4595 10.6143 19.8221C12.0909 18.5472 13.7101 16.4688 15.0815 13.9135C16.4528 11.3582 17.3158 8.81116 17.6038 6.79785C17.7478 5.79117 17.7462 4.91899 17.6094 4.26049C17.4727 3.60203 17.2161 3.17674 16.8555 2.95274C16.4949 2.72878 16.0242 2.7023 15.4258 2.9041C14.8273 3.10591 14.1238 3.54023 13.3855 4.17776C11.9088 5.45272 10.2906 7.53066 8.91934 10.086C7.54802 12.6413 6.68401 15.1887 6.39597 17.202C6.25197 18.2086 6.25411 19.0812 6.391 19.7397C6.52779 20.3981 6.78462 20.8228 7.14523 21.0469Z" fill="white"/>
</svg>
