<svg width="50" height="50" viewBox="0 0 50 50" fill="none" xmlns="http://www.w3.org/2000/svg">
<g clip-path="url(#clip0_593_196)">
<path d="M25.3454 26.7227L19.4339 43.9009C21.1997 44.4186 23.0666 44.7042 25.001 44.7042C27.2948 44.7042 29.4963 44.3072 31.5431 43.587C31.4905 43.5024 31.4426 43.4127 31.4034 43.3153L25.3454 26.7227Z" fill="white"/>
<path d="M5.2959 24.9991C5.2959 32.7992 9.82879 39.5392 16.4018 42.7327L7.00295 16.9805C5.90994 19.431 5.2959 22.1429 5.2959 24.9991Z" fill="white"/>
<path d="M38.3012 24.0059C38.3012 21.5709 37.4273 19.8849 36.6776 18.5713C35.6785 16.9482 34.7422 15.5743 34.7422 13.9507C34.7422 12.1395 36.1157 10.4536 38.0511 10.4536C38.1388 10.4536 38.2213 10.4644 38.3068 10.4686C34.802 7.2581 30.132 5.29688 25.0015 5.29688C18.1166 5.29688 12.0602 8.82853 8.53833 14.1786C9.00028 14.1925 9.43491 14.2023 9.80612 14.2023C11.8674 14.2023 15.0582 13.9523 15.0582 13.9523C16.1213 13.8883 16.2451 15.449 15.1845 15.5743C15.1845 15.5743 14.1168 15.6995 12.9294 15.7624L20.1036 37.1055L24.4153 24.1724L21.3446 15.7619C20.2835 15.699 19.2787 15.5737 19.2787 15.5737C18.2176 15.5119 18.3414 13.8889 19.4029 13.9518C19.4029 13.9518 22.6577 14.2018 24.5927 14.2018C26.6534 14.2018 29.8453 13.9518 29.8453 13.9518C30.9084 13.8889 31.0327 15.4485 29.9706 15.5737C29.9706 15.5737 28.9018 15.699 27.7155 15.7619L34.8371 36.9431L36.8024 30.3758C37.6536 27.6505 38.3012 25.6923 38.3012 24.0059Z" fill="white"/>
<path d="M42.2896 15.5469C42.3742 16.1738 42.4227 16.8487 42.4227 17.5731C42.4227 19.5724 42.0499 21.8203 40.9249 24.6307L34.9056 42.0317C40.763 38.6156 44.7046 32.2689 44.7046 25.0009C44.7051 21.5744 43.8291 18.3531 42.2896 15.5469Z" fill="white"/>
<path d="M25 0C11.193 0 0.000488281 11.193 0.000488281 25C0.000488281 38.807 11.193 50 25 50C38.8069 50 49.9995 38.807 49.9995 25C49.9995 11.193 38.8069 0 25 0ZM25.001 46.9153C12.916 46.9153 3.08566 37.085 3.08566 24.999C3.08566 12.915 12.9155 3.08466 25.001 3.08466C37.0844 3.08466 46.9143 12.9155 46.9143 24.999C46.9148 37.0839 37.0839 46.9153 25.001 46.9153Z" fill="white"/>
</g>
<defs>
<clipPath id="clip0_593_196">
<rect width="50" height="50" fill="white"/>
</clipPath>
</defs>
</svg>
