<svg width="50" height="50" viewBox="0 0 50 50" fill="none" xmlns="http://www.w3.org/2000/svg">
<g clip-path="url(#clip0_594_331)">
<path d="M35.1668 13.8893C35.1668 16.3522 33.1633 18.3567 30.6994 18.3567H26.0886V9.42188H30.6994C33.1633 9.42188 35.1668 11.4264 35.1668 13.8893Z" fill="white"/>
<path d="M30.6994 20.5326H30.556C28.0921 20.5326 26.0886 22.5371 26.0886 25C26.0886 27.4639 28.0921 29.4674 30.556 29.4674H30.6994C33.1633 29.4674 35.1668 27.4639 35.1668 25C35.1668 22.5371 33.1633 20.5326 30.6994 20.5326ZM19.3006 9.42158C16.8367 9.42158 14.8332 11.4261 14.8332 13.889C14.8332 16.3519 16.8367 18.3564 19.3006 18.3564H23.9114V9.42158H19.3006ZM19.3006 9.42158C16.8367 9.42158 14.8332 11.4261 14.8332 13.889C14.8332 16.3519 16.8367 18.3564 19.3006 18.3564H23.9114V9.42158H19.3006ZM30.6994 20.5326H30.556C28.0921 20.5326 26.0886 22.5371 26.0886 25C26.0886 27.4639 28.0921 29.4674 30.556 29.4674H30.6994C33.1633 29.4674 35.1668 27.4639 35.1668 25C35.1668 22.5371 33.1633 20.5326 30.6994 20.5326ZM19.3006 20.5326C16.8367 20.5326 14.8332 22.5371 14.8332 25C14.8332 27.4639 16.8367 29.4674 19.3006 29.4674H23.9114V20.5326H19.3006ZM19.3006 9.42158C16.8367 9.42158 14.8332 11.4261 14.8332 13.889C14.8332 16.3519 16.8367 18.3564 19.3006 18.3564H23.9114V9.42158H19.3006ZM19.3006 9.42158C16.8367 9.42158 14.8332 11.4261 14.8332 13.889C14.8332 16.3519 16.8367 18.3564 19.3006 18.3564H23.9114V9.42158H19.3006ZM19.3006 20.5326C16.8367 20.5326 14.8332 22.5371 14.8332 25C14.8332 27.4639 16.8367 29.4674 19.3006 29.4674H23.9114V20.5326H19.3006ZM30.6994 20.5326H30.556C28.0921 20.5326 26.0886 22.5371 26.0886 25C26.0886 27.4639 28.0921 29.4674 30.556 29.4674H30.6994C33.1633 29.4674 35.1668 27.4639 35.1668 25C35.1668 22.5371 33.1633 20.5326 30.6994 20.5326ZM30.6994 20.5326H30.556C28.0921 20.5326 26.0886 22.5371 26.0886 25C26.0886 27.4639 28.0921 29.4674 30.556 29.4674H30.6994C33.1633 29.4674 35.1668 27.4639 35.1668 25C35.1668 22.5371 33.1633 20.5326 30.6994 20.5326ZM14.8332 36.111C14.8332 38.5739 16.8533 40.5784 19.3357 40.5784C21.8591 40.5784 23.9114 38.5417 23.9114 36.0388V31.6436H19.3006C16.8367 31.6436 14.8332 33.6481 14.8332 36.111ZM14.8332 25C14.8332 27.4639 16.8367 29.4674 19.3006 29.4674H23.9114V20.5326H19.3006C16.8367 20.5326 14.8332 22.5371 14.8332 25ZM14.8332 13.889C14.8332 16.3519 16.8367 18.3564 19.3006 18.3564H23.9114V9.42158H19.3006C16.8367 9.42158 14.8332 11.4261 14.8332 13.889ZM44.5972 0H5.40285C2.41904 0 0 2.41904 0 5.40285V44.5972C0 47.581 2.41904 50 5.40285 50H44.5972C47.581 50 50 47.581 50 44.5972V5.40285C50 2.41904 47.581 0 44.5972 0ZM37.343 25C37.343 28.6637 34.3631 31.6436 30.6994 31.6436H30.556C28.8373 31.6436 27.2688 30.9871 26.0886 29.9132V36.0388C26.0886 39.7415 23.0589 42.7546 19.3357 42.7546C15.6526 42.7546 12.657 39.7747 12.657 36.111C12.657 33.7895 13.8529 31.7431 15.6613 30.556C13.8529 29.3679 12.657 27.3215 12.657 25C12.657 22.6795 13.8529 20.633 15.6613 19.445C13.8529 18.2569 12.657 16.2105 12.657 13.889C12.657 10.2253 15.6369 7.24542 19.3006 7.24542H30.6994C34.3631 7.24542 37.343 10.2253 37.343 13.889C37.343 16.2105 36.1471 18.2569 34.3387 19.445C36.1471 20.633 37.343 22.6795 37.343 25ZM30.6994 20.5326H30.556C28.0921 20.5326 26.0886 22.5371 26.0886 25C26.0886 27.4639 28.0921 29.4674 30.556 29.4674H30.6994C33.1633 29.4674 35.1668 27.4639 35.1668 25C35.1668 22.5371 33.1633 20.5326 30.6994 20.5326ZM14.8332 36.111C14.8332 38.5739 16.8533 40.5784 19.3357 40.5784C21.8591 40.5784 23.9114 38.5417 23.9114 36.0388V31.6436H19.3006C16.8367 31.6436 14.8332 33.6481 14.8332 36.111ZM14.8332 25C14.8332 27.4639 16.8367 29.4674 19.3006 29.4674H23.9114V20.5326H19.3006C16.8367 20.5326 14.8332 22.5371 14.8332 25ZM14.8332 13.889C14.8332 16.3519 16.8367 18.3564 19.3006 18.3564H23.9114V9.42158H19.3006C16.8367 9.42158 14.8332 11.4261 14.8332 13.889ZM19.3006 9.42158C16.8367 9.42158 14.8332 11.4261 14.8332 13.889C14.8332 16.3519 16.8367 18.3564 19.3006 18.3564H23.9114V9.42158H19.3006ZM19.3006 20.5326C16.8367 20.5326 14.8332 22.5371 14.8332 25C14.8332 27.4639 16.8367 29.4674 19.3006 29.4674H23.9114V20.5326H19.3006ZM19.3006 31.6436C16.8367 31.6436 14.8332 33.6481 14.8332 36.111C14.8332 38.5739 16.8533 40.5784 19.3357 40.5784C21.8591 40.5784 23.9114 38.5417 23.9114 36.0388V31.6436H19.3006ZM30.6994 20.5326H30.556C28.0921 20.5326 26.0886 22.5371 26.0886 25C26.0886 27.4639 28.0921 29.4674 30.556 29.4674H30.6994C33.1633 29.4674 35.1668 27.4639 35.1668 25C35.1668 22.5371 33.1633 20.5326 30.6994 20.5326ZM30.6994 20.5326H30.556C28.0921 20.5326 26.0886 22.5371 26.0886 25C26.0886 27.4639 28.0921 29.4674 30.556 29.4674H30.6994C33.1633 29.4674 35.1668 27.4639 35.1668 25C35.1668 22.5371 33.1633 20.5326 30.6994 20.5326ZM19.3006 20.5326C16.8367 20.5326 14.8332 22.5371 14.8332 25C14.8332 27.4639 16.8367 29.4674 19.3006 29.4674H23.9114V20.5326H19.3006ZM19.3006 9.42158C16.8367 9.42158 14.8332 11.4261 14.8332 13.889C14.8332 16.3519 16.8367 18.3564 19.3006 18.3564H23.9114V9.42158H19.3006ZM19.3006 9.42158C16.8367 9.42158 14.8332 11.4261 14.8332 13.889C14.8332 16.3519 16.8367 18.3564 19.3006 18.3564H23.9114V9.42158H19.3006ZM19.3006 20.5326C16.8367 20.5326 14.8332 22.5371 14.8332 25C14.8332 27.4639 16.8367 29.4674 19.3006 29.4674H23.9114V20.5326H19.3006ZM30.6994 20.5326H30.556C28.0921 20.5326 26.0886 22.5371 26.0886 25C26.0886 27.4639 28.0921 29.4674 30.556 29.4674H30.6994C33.1633 29.4674 35.1668 27.4639 35.1668 25C35.1668 22.5371 33.1633 20.5326 30.6994 20.5326ZM19.3006 9.42158C16.8367 9.42158 14.8332 11.4261 14.8332 13.889C14.8332 16.3519 16.8367 18.3564 19.3006 18.3564H23.9114V9.42158H19.3006ZM19.3006 9.42158C16.8367 9.42158 14.8332 11.4261 14.8332 13.889C14.8332 16.3519 16.8367 18.3564 19.3006 18.3564H23.9114V9.42158H19.3006ZM30.6994 20.5326H30.556C28.0921 20.5326 26.0886 22.5371 26.0886 25C26.0886 27.4639 28.0921 29.4674 30.556 29.4674H30.6994C33.1633 29.4674 35.1668 27.4639 35.1668 25C35.1668 22.5371 33.1633 20.5326 30.6994 20.5326Z" fill="white"/>
</g>
<defs>
<clipPath id="clip0_594_331">
<rect width="50" height="50" fill="white"/>
</clipPath>
</defs>
</svg>
