<svg width="24" height="24" viewBox="0 0 24 24" fill="none" xmlns="http://www.w3.org/2000/svg">
<g clip-path="url(#clip0_799_759)">
<path d="M15.8651 2.79987C15.8635 2.80034 15.5967 2.88293 15.1464 3.02234C15.0712 2.77826 14.9604 2.4784 14.8024 2.17718C14.2931 1.20565 13.5476 0.691382 12.6463 0.69007C12.6453 0.69007 12.6444 0.69007 12.6433 0.69007C12.5808 0.69007 12.5186 0.695976 12.4563 0.701601C12.4298 0.669726 12.403 0.638086 12.3748 0.607898C11.9824 0.187945 11.4786 -0.0166175 10.8756 0.00105437C9.71149 0.0344294 8.55274 0.874992 7.6129 2.36777C6.9513 3.41843 6.44871 4.73824 6.30574 5.75979C4.96943 6.1736 4.03441 6.46315 4.01421 6.46952C3.33968 6.68121 3.31849 6.7024 3.23004 7.33793C3.16305 7.81905 1.39825 21.4676 1.39825 21.4676L16.0423 24V2.76991C15.9701 2.77451 15.9056 2.78796 15.8651 2.79987ZM12.4836 3.84682C11.7086 4.08677 10.8626 4.34876 10.014 4.61154C10.2529 3.69752 10.7052 2.78754 11.2609 2.19129C11.4677 1.96952 11.7569 1.72207 12.0994 1.58074C12.4216 2.25213 12.4914 3.20388 12.4836 3.84682ZM10.8979 0.775523C11.1712 0.769804 11.4014 0.829758 11.598 0.959133C11.2836 1.12235 10.9794 1.35705 10.6942 1.66296C9.95482 2.45609 9.38852 3.68754 9.16268 4.87512C8.45786 5.09337 7.76852 5.30679 7.13435 5.5032C7.53438 3.63293 9.1015 0.827179 10.8979 0.775523ZM8.63308 11.4267C8.71174 12.6725 11.9891 12.9447 12.1733 15.8627C12.3183 18.1584 10.9557 19.7286 8.99229 19.8527C6.63621 20.0014 5.3389 18.6112 5.3389 18.6112L5.83811 16.4871C5.83811 16.4871 7.14368 17.4722 8.1888 17.4062C8.87144 17.3631 9.11543 16.8079 9.09063 16.4152C8.98802 14.7902 6.31929 14.8859 6.15068 12.2156C6.00879 9.96832 7.48446 7.69165 10.7407 7.48605C11.9953 7.40684 12.6378 7.72718 12.6378 7.72718L11.8931 10.5127C11.8931 10.5127 11.0625 10.1345 10.0778 10.1966C8.63397 10.2877 8.61865 11.1985 8.63308 11.4267ZM13.2574 3.60724C13.2488 3.01784 13.1784 2.19799 12.9038 1.48929C13.787 1.65663 14.2218 2.65591 14.4054 3.25179C14.0651 3.35716 13.6773 3.47716 13.2574 3.60724Z" fill="white"/>
<path d="M16.5266 23.9406L22.6016 22.4306C22.6016 22.4306 19.986 4.74614 19.9694 4.62488C19.9528 4.50356 19.8466 4.43648 19.759 4.42917C19.6713 4.42186 17.9611 4.39584 17.9611 4.39584C17.9611 4.39584 16.9183 3.38311 16.5266 3V23.9406H16.5266Z" fill="white"/>
</g>
<defs>
<clipPath id="clip0_799_759">
<rect width="24" height="24" fill="white"/>
</clipPath>
</defs>
</svg>
