<svg width="24" height="24" viewBox="0 0 24 24" fill="none" xmlns="http://www.w3.org/2000/svg">
<path d="M17.1426 2.57141H6.85686C5.91009 2.57141 5.14258 3.33892 5.14258 4.2857V12.8571C5.14258 13.8039 5.91009 14.5714 6.85686 14.5714H17.1426C18.0894 14.5714 18.8569 13.8039 18.8569 12.8571V4.2857C18.8569 3.33892 18.0894 2.57141 17.1426 2.57141Z" stroke="white" stroke-width="1.5" stroke-linecap="round" stroke-linejoin="round"/>
<path d="M5.14265 7.71423H2.57122C2.11656 7.71423 1.68053 7.89485 1.35904 8.21634C1.03755 8.53783 0.856934 8.97386 0.856934 9.42852V17.1428C0.856934 17.5975 1.03755 18.0335 1.35904 18.355C1.68053 18.6765 2.11656 18.8571 2.57122 18.8571H21.4284C21.883 18.8571 22.3191 18.6765 22.6405 18.355C22.962 18.0335 23.1426 17.5975 23.1426 17.1428V9.42852C23.1426 8.97386 22.962 8.53783 22.6405 8.21634C22.3191 7.89485 21.883 7.71423 21.4284 7.71423H18.8569" stroke="white" stroke-width="1.5" stroke-linecap="round" stroke-linejoin="round"/>
<path d="M6.85714 18.8572L6 23.1429" stroke="white" stroke-width="1.5" stroke-linecap="round" stroke-linejoin="round"/>
<path d="M17.1426 18.8572L17.9997 23.1429" stroke="white" stroke-width="1.5" stroke-linecap="round" stroke-linejoin="round"/>
</svg>
