<svg width="35" height="35" viewBox="0 0 35 35" fill="none" xmlns="http://www.w3.org/2000/svg">
<g clip-path="url(#clip0_405_27713)">
<path d="M7.75674 21.1521L6.53844 25.7002L2.08558 25.7944C0.754824 23.3262 0 20.5022 0 17.5012C0 14.5993 0.705742 11.8627 1.95672 9.45312H1.95768L5.92197 10.1799L7.65857 14.1204C7.29511 15.1801 7.097 16.3176 7.097 17.5012C7.09714 18.7858 7.32983 20.0166 7.75674 21.1521Z" fill="white"/>
<path d="M34.6962 14.2344C34.8972 15.293 35.002 16.3863 35.002 17.5036C35.002 18.7565 34.8703 19.9786 34.6193 21.1575C33.7674 25.169 31.5414 28.6719 28.4578 31.1507L28.4569 31.1498L23.4636 30.895L22.7569 26.4834C24.803 25.2834 26.4021 23.4055 27.2444 21.1575H17.8867V14.2344H27.3809H34.6962Z" fill="white"/>
<path d="M28.4552 31.1436L28.4561 31.1446C25.4571 33.5551 21.6475 34.9974 17.5004 34.9974C10.8359 34.9974 5.04173 31.2725 2.08594 25.7907L7.7571 21.1484C9.23496 25.0926 13.0398 27.9004 17.5004 27.9004C19.4176 27.9004 21.2138 27.3821 22.7551 26.4773L28.4552 31.1436Z" fill="white"/>
<path d="M28.6705 4.02883L23.0013 8.67015C21.4061 7.67306 19.5205 7.09707 17.5003 7.09707C12.9388 7.09707 9.06278 10.0336 7.65896 14.1192L1.95799 9.45191H1.95703C4.86955 3.83653 10.7368 0 17.5003 0C21.7465 0 25.6397 1.51252 28.6705 4.02883Z" fill="white"/>
</g>
<defs>
<clipPath id="clip0_405_27713">
<rect width="35" height="35" fill="white"/>
</clipPath>
</defs>
</svg>
