<svg width="100" height="100" viewBox="0 0 100 100" fill="none" xmlns="http://www.w3.org/2000/svg">
<path d="M21.5317 52.6748C23.673 50.2019 26.1421 48.0251 28.8722 46.2029C29.5547 45.7479 30.2553 45.3291 30.9618 44.9232C36.7519 41.6295 43.3174 39.8958 50.0003 39.8958C56.6832 39.8958 63.2487 41.6295 69.0387 44.9232C69.032 44.1231 69.0111 43.3214 68.949 42.5168C68.6983 39.2903 68.0033 36.1125 66.8831 33.0711C55.9895 29.089 44.0111 29.0889 33.1174 33.0708C29.6234 34.3504 26.2963 36.0361 23.2064 38.0924C22.547 38.5321 21.9057 38.9915 21.2733 39.4603C16.2413 43.1918 12.0209 47.8839 8.86324 53.2576C4.29676 60.9836 3.47517 71.6006 8.04153 79.3267C12.608 87.0534 22.43 91.6659 31.5627 91.6659C37.8897 91.6851 44.1573 90.4612 50.0002 88.0656C49.3282 87.7897 48.6612 87.4986 47.9991 87.1923L47.9499 87.1707C47.9077 87.1511 47.8641 87.1349 47.822 87.115C44.4606 85.5329 41.3024 83.5607 38.4143 81.2402C36.1532 81.6428 33.8603 81.8458 31.5627 81.8466C26.0638 81.8466 19.4958 79.0696 16.7465 74.417C13.997 69.7652 14.8175 62.8208 17.5679 58.1683C18.719 56.2231 20.0457 54.3845 21.5317 52.6748Z" stroke="#EF4823" stroke-width="1.5" stroke-miterlimit="10"/>
<path d="M78.9726 41.7794C78.9124 41.0022 78.8259 40.2304 78.7264 39.4612C77.9283 33.3194 75.878 27.4007 72.6992 22.0622C68.1328 14.3363 59.1315 8.3335 49.9997 8.3335C40.8679 8.3335 31.8665 14.3382 27.3001 22.0632C24.1212 27.4013 22.0708 33.3197 21.2728 39.4613C21.9052 38.9924 22.5464 38.533 23.2058 38.0934C26.2958 36.0371 29.6229 34.3513 33.1168 33.0717C33.8909 30.9571 34.8575 28.9161 36.005 26.9738C38.7544 22.3221 44.5007 18.1527 49.9997 18.1527C55.4987 18.1527 61.2448 22.3202 63.9943 26.9728C65.1419 28.9156 66.1086 30.957 66.8826 33.0721C68.0028 36.1134 68.6978 39.2912 68.9485 42.5178C69.0106 43.3223 69.0315 44.124 69.0382 44.9241C69.0553 51.4799 67.3 57.9215 63.9533 63.5845C60.6067 69.2474 55.7898 73.9267 49.9997 77.1395C50.7123 77.5341 51.4335 77.9172 52.1778 78.267C55.1653 79.668 58.3292 80.6683 61.5855 81.2412C70.538 74.0563 76.5383 63.9038 78.468 52.6758C79.0809 49.0771 79.2503 45.4183 78.9726 41.7794Z" stroke="#EF4823" stroke-width="1.5" stroke-miterlimit="10"/>
<path d="M91.1371 53.2592C87.9796 47.885 83.7591 43.1925 78.7268 39.4609C78.8262 40.2301 78.9128 41.0019 78.973 41.7791C79.2507 45.418 79.0813 49.0767 78.4683 52.6755C79.9546 54.3854 81.2812 56.2243 82.4321 58.1698C85.1816 62.8215 86.0032 69.7659 83.2538 74.4176C80.5042 79.0702 73.9364 81.8473 68.4374 81.8473C66.1398 81.8464 63.8469 81.6434 61.5859 81.2409C58.3296 80.668 55.1657 79.6677 52.1782 78.2667C51.4339 77.9169 50.7127 77.5338 50.0001 77.1392C44.21 73.9264 39.3931 69.2472 36.0465 63.5842C32.6998 57.9213 30.9445 51.4796 30.9617 44.9238C30.2551 45.3297 29.5545 45.7486 28.8721 46.2035C26.1419 48.0257 23.6729 50.2026 21.5316 52.6754C23.4613 63.9035 29.4616 74.056 38.4142 81.2409C41.3022 83.5614 44.4604 85.5336 47.8218 87.1157C47.864 87.1355 47.9075 87.1518 47.9498 87.1714C47.9661 87.179 47.9828 87.1854 47.999 87.193C48.6607 87.5004 49.3277 87.7915 50.0001 88.0663C55.8429 90.4619 62.1105 91.6858 68.4374 91.6666C77.5704 91.6666 87.3922 87.0541 91.9586 79.3273C96.525 71.6012 95.7024 60.9842 91.1371 53.2592Z" stroke="#EF4823" stroke-width="1.5" stroke-miterlimit="10"/>
</svg>
