<svg width="20" height="20" viewBox="0 0 20 20" fill="none" xmlns="http://www.w3.org/2000/svg">
<g clip-path="url(#clip0_577_509)">
<path d="M16.4286 7.14342C16.4286 10.7006 9.99998 19.2863 9.99998 19.2863C9.99998 19.2863 3.57141 10.7006 3.57141 7.14342C3.57141 5.43845 4.2487 3.80332 5.4543 2.59773C6.65989 1.39214 8.29502 0.714844 9.99998 0.714844C11.7049 0.714844 13.3401 1.39214 14.5457 2.59773C15.7513 3.80332 16.4286 5.43845 16.4286 7.14342V7.14342Z" stroke="#EF4823" stroke-width="1.5" stroke-linecap="round" stroke-linejoin="round"/>
<path d="M9.99997 9.28571C11.1834 9.28571 12.1428 8.32632 12.1428 7.14286C12.1428 5.95939 11.1834 5 9.99997 5C8.81651 5 7.85712 5.95939 7.85712 7.14286C7.85712 8.32632 8.81651 9.28571 9.99997 9.28571Z" stroke="#EF4823" stroke-width="1.5" stroke-linecap="round" stroke-linejoin="round"/>
</g>
<defs>
<clipPath id="clip0_577_509">
<rect width="20" height="20" fill="white"/>
</clipPath>
</defs>
</svg>
