<svg width="24" height="24" viewBox="0 0 24 24" fill="none" xmlns="http://www.w3.org/2000/svg">
<path d="M18.1406 4.92211C18.3331 5.04777 18.4317 5.13098 18.4844 5.35759C18.4983 5.43736 18.511 5.51736 18.5226 5.59751C18.5299 5.64086 18.5371 5.68422 18.5446 5.72889C18.5597 5.82008 18.5743 5.91136 18.5884 6.00272C18.6083 6.13149 18.6295 6.25995 18.6513 6.38841C18.6954 6.64899 18.7372 6.9099 18.7789 7.17086C18.7948 7.27002 18.8108 7.36918 18.8268 7.46834C18.8697 7.73507 18.9125 8.00183 18.9552 8.26859C19.0006 8.55153 19.0461 8.83444 19.0917 9.11735C19.1781 9.65476 19.2644 10.1922 19.3506 10.7296C19.4471 11.3312 19.5438 11.9327 19.6405 12.5342C19.7593 13.273 19.878 14.0117 19.9966 14.7505C20.005 14.8027 20.0133 14.8548 20.022 14.9085C20.0633 15.1659 20.1046 15.4234 20.1459 15.6808C20.2304 16.2078 20.3153 16.7347 20.4007 17.2614C20.4353 17.4747 20.4698 17.688 20.5043 17.9013C20.5233 18.019 20.5424 18.1366 20.5616 18.2542C20.588 18.4168 20.6144 18.5795 20.6407 18.7421C20.6486 18.7907 20.6565 18.8393 20.6647 18.8894C20.6719 18.9339 20.6791 18.9783 20.6864 19.0241C20.6927 19.0627 20.699 19.1014 20.7055 19.1412C20.7187 19.2407 20.7188 19.2407 20.7188 19.381C20.6837 19.4003 20.6487 19.4195 20.6126 19.4394C19.9487 19.8042 19.2854 20.1701 18.6245 20.5404C18.2665 20.7409 17.9078 20.94 17.5488 21.1387C17.1592 21.3544 16.7704 21.5715 16.3828 21.7909C15.9422 22.0402 15.4998 22.2864 15.0568 22.5316C14.6908 22.7343 14.3252 22.9378 13.96 23.142C13.9115 23.169 13.8631 23.1961 13.8133 23.2239C13.6004 23.3429 13.3879 23.4622 13.1763 23.5833C13.1419 23.6028 13.1075 23.6224 13.0721 23.6426C13.0106 23.6777 12.9492 23.713 12.8879 23.7486C12.5879 23.9195 12.3326 23.9837 11.9883 23.9843C11.9555 23.9854 11.9227 23.9866 11.8889 23.9878C11.3801 23.9905 10.9473 23.7002 10.5176 23.4579C10.4618 23.4267 10.406 23.3955 10.3502 23.3643C9.94177 23.1356 9.53751 22.9 9.13395 22.6629C8.76233 22.4455 8.38511 22.2399 8.0056 22.0366C7.66192 21.8522 7.32233 21.6617 6.98421 21.4673C6.66836 21.2859 6.35059 21.1081 6.03223 20.9311C5.64084 20.7133 5.25249 20.491 4.86621 20.2643C4.34425 19.958 3.81471 19.6668 3.28125 19.381C3.35563 19.1984 3.48082 19.0755 3.61897 18.9394C3.64408 18.9143 3.6692 18.8892 3.69508 18.8633C3.77931 18.7792 3.86387 18.6954 3.94843 18.6116C4.00889 18.5513 4.06933 18.491 4.12975 18.4308C4.25996 18.3009 4.39031 18.1712 4.52078 18.0416C4.72728 17.8366 4.93343 17.6311 5.13955 17.4257C5.46586 17.1005 5.79238 16.7755 6.119 16.4506C6.70319 15.8695 7.28712 15.2882 7.8708 14.7066C8.07553 14.5026 8.28039 14.2987 8.48535 14.095C8.61322 13.9679 8.74099 13.8406 8.86874 13.7134C8.92775 13.6546 8.9868 13.5959 9.04589 13.5373C9.39441 13.1946 9.39441 13.1946 9.7233 12.8334C9.97972 12.5336 10.267 12.2615 10.5466 11.9835C10.6131 11.9172 10.6796 11.8509 10.746 11.7846C10.8886 11.6424 11.0313 11.5003 11.174 11.3582C11.3999 11.1334 11.6257 10.9083 11.8513 10.6832C12.3712 10.1649 12.8912 9.64681 13.4112 9.12871C13.8881 8.65368 14.3648 8.1786 14.8414 7.70333C15.0655 7.4798 15.2898 7.25639 15.5142 7.03307C15.6539 6.89392 15.7936 6.75466 15.9332 6.61538C15.9977 6.55106 16.0623 6.48677 16.1269 6.42253C16.5532 6.00063 16.5532 6.00063 16.9547 5.55541C17.0493 5.44387 17.1504 5.33933 17.2529 5.23503C17.3089 5.1774 17.3089 5.1774 17.3659 5.1186C17.5993 4.91583 17.8376 4.80646 18.1406 4.92211Z" fill="white"/>
<path d="M12.3281 3.42516C12.5177 3.62542 12.6413 3.83641 12.7637 4.08195C12.7819 4.11766 12.8001 4.15337 12.8188 4.19015C12.8773 4.30511 12.9352 4.42031 12.9932 4.53551C13.0334 4.6148 13.0737 4.69407 13.114 4.77332C13.1925 4.92762 13.2709 5.082 13.3491 5.23641C13.4696 5.47361 13.5923 5.70958 13.7168 5.94469C13.7343 5.97771 13.7517 6.01073 13.7697 6.04475C13.8032 6.10792 13.8367 6.17107 13.8702 6.2342C13.9281 6.34313 13.9858 6.45216 14.0435 6.5612C14.1435 6.75028 14.2436 6.9393 14.3438 7.12828C14.15 7.35936 13.9486 7.57665 13.7346 7.78891C13.6873 7.83609 13.6873 7.83609 13.6391 7.88421C13.5711 7.95197 13.5031 8.01966 13.4351 8.08731C13.3272 8.19464 13.2194 8.30212 13.1117 8.40964C12.8441 8.67658 12.5763 8.94327 12.3084 9.20997C12.0818 9.43567 11.8553 9.66146 11.6289 9.88738C11.5232 9.99279 11.4173 10.098 11.3115 10.2033C11.2461 10.2686 11.1807 10.3338 11.1152 10.3991C11.0717 10.4423 11.0717 10.4423 11.0272 10.4864C10.892 10.6216 10.762 10.7585 10.6382 10.9041C10.3699 11.2142 10.0735 11.4984 9.78334 11.7878C9.71539 11.8557 9.64746 11.9236 9.57953 11.9916C9.39594 12.1752 9.2122 12.3587 9.02844 12.5421C8.83611 12.7341 8.64391 12.9263 8.4517 13.1185C8.08807 13.4819 7.72432 13.8453 7.36053 14.2086C6.94621 14.6224 6.53203 15.0363 6.11786 15.4503C5.26622 16.3014 4.41442 17.1524 3.5625 18.0033C3.54703 17.9723 3.53156 17.9414 3.51562 17.9095C3.56369 17.8028 3.56369 17.8028 3.64014 17.668C3.66839 17.6177 3.69665 17.5674 3.72576 17.5156C3.75727 17.4604 3.78879 17.4052 3.82031 17.35C3.85254 17.2929 3.88473 17.2358 3.91688 17.1786C3.98389 17.0596 4.05107 16.9407 4.11836 16.8218C4.27277 16.5487 4.42425 16.2739 4.57617 15.9994C4.81447 15.5699 5.05524 15.1419 5.29763 14.7147C5.50326 14.3514 5.70508 13.9862 5.90625 13.6205C6.15561 13.1672 6.40754 12.7154 6.66286 12.2654C6.94655 11.765 7.22524 11.2618 7.50414 10.7587C7.90335 10.0386 8.30342 9.31895 8.70613 8.60079C8.90652 8.24325 9.10581 7.88511 9.30469 7.52672C9.55711 7.07185 9.81065 6.61763 10.0652 6.16393C10.2386 5.8547 10.4108 5.54488 10.5825 5.23471C10.6993 5.02397 10.8164 4.81348 10.9338 4.6031C10.9869 4.50786 11.04 4.41257 11.0929 4.31722C11.1623 4.19242 11.2324 4.06801 11.3027 3.94371C11.3227 3.90767 11.3426 3.87164 11.3631 3.83451C11.493 3.60718 11.6215 3.43137 11.877 3.33726C12.05 3.32903 12.1676 3.35924 12.3281 3.42516Z" fill="white"/>
<path d="M7.03125 0.0356114C7.21346 0.161351 7.31245 0.279719 7.41431 0.474813C7.44117 0.525577 7.46802 0.576341 7.4957 0.628643C7.52448 0.684302 7.55326 0.739964 7.58203 0.795628C7.61271 0.853997 7.64344 0.912337 7.67422 0.970651C7.73935 1.09418 7.80421 1.21784 7.86887 1.34162C8.01664 1.62416 8.167 1.90534 8.3171 2.18666C8.36732 2.28083 8.41745 2.37503 8.46756 2.46925C8.67704 2.86311 8.88736 3.2565 9.09852 3.64947C9.14284 3.73205 9.187 3.81471 9.23116 3.89738C9.35121 4.12182 9.47171 4.34555 9.59912 4.56593C9.61761 4.59845 9.63609 4.63098 9.65514 4.66448C9.70124 4.74513 9.74836 4.8252 9.79559 4.9052C9.86069 5.08746 9.83282 5.14594 9.75 5.32065C9.66502 5.48179 9.57479 5.63953 9.4834 5.79712C9.42793 5.89386 9.37251 5.99063 9.31714 6.08743C9.28816 6.13799 9.25919 6.18855 9.22934 6.24064C9.0816 6.49998 8.93683 6.76096 8.79199 7.02192C8.53861 7.47789 8.28399 7.93315 8.02837 8.38789C7.82686 8.74661 7.62663 9.10603 7.42676 9.46566C7.21172 9.85253 6.9952 10.2385 6.77637 10.6232C6.54571 11.0288 6.31902 11.4365 6.09375 11.8451C5.84456 12.2971 5.59283 12.7475 5.33765 13.1962C5.05098 13.7007 4.76942 14.208 4.48764 14.7153C4.36788 14.9308 4.24791 15.1462 4.12793 15.3616C4.09039 15.429 4.05286 15.4965 4.01532 15.5639C3.9768 15.6331 3.9768 15.6331 3.9375 15.7036C3.92203 15.7036 3.90656 15.7036 3.89062 15.7036C3.9165 15.1526 3.99765 14.6151 4.08376 14.0709C4.09896 13.9735 4.11414 13.8761 4.1293 13.7787C4.17045 13.5147 4.21193 13.2508 4.25348 12.9869C4.29762 12.7061 4.34145 12.4252 4.38531 12.1443C4.46903 11.6085 4.55303 11.0727 4.63713 10.5369C4.73952 9.88452 4.8416 9.23206 4.94366 8.57958C4.9801 8.34667 5.01653 8.11376 5.05297 7.88084C5.06194 7.82352 5.07091 7.76619 5.08015 7.70713C5.14308 7.30492 5.20612 6.90273 5.26919 6.50054C5.42788 5.48836 5.58618 4.47613 5.74202 3.46351C5.76391 3.32133 5.78581 3.17914 5.80773 3.03696C5.86795 2.64618 5.92812 2.2554 5.98775 1.86453C6.01127 1.71067 6.03496 1.55683 6.05868 1.40299C6.06945 1.33292 6.08015 1.26284 6.09076 1.19274C6.10515 1.09777 6.11979 1.00284 6.13449 0.907919C6.14253 0.85534 6.15057 0.802762 6.15885 0.74859C6.25524 0.238089 6.25524 0.238089 6.47296 0.0769008C6.65072 -0.00507026 6.84239 -0.00769059 7.03125 0.0356114Z" fill="white"/>
</svg>
