<svg width="24" height="24" viewBox="0 0 24 24" fill="none" xmlns="http://www.w3.org/2000/svg">
<path d="M12 21.4286C16.2605 21.4286 19.7143 17.9748 19.7143 13.7143C19.7143 9.4538 16.2605 6 12 6C7.73951 6 4.28571 9.4538 4.28571 13.7143C4.28571 17.9748 7.73951 21.4286 12 21.4286Z" stroke="white" stroke-width="1.5" stroke-linecap="round" stroke-linejoin="round"/>
<path d="M4.28569 13.7148H0.857117" stroke="white" stroke-width="1.5" stroke-linecap="round" stroke-linejoin="round"/>
<path d="M0.857117 19.7134C1.71251 19.7159 2.55832 19.5333 3.33654 19.1782C4.11476 18.8232 4.80696 18.304 5.36569 17.6562" stroke="white" stroke-width="1.5" stroke-linecap="round" stroke-linejoin="round"/>
<path d="M5.36569 9.77201C4.80696 9.1243 4.11476 8.6051 3.33654 8.25002C2.55832 7.89494 1.71251 7.71238 0.857117 7.71487" stroke="white" stroke-width="1.5" stroke-linecap="round" stroke-linejoin="round"/>
<path d="M19.7142 13.7148H23.1428" stroke="white" stroke-width="1.5" stroke-linecap="round" stroke-linejoin="round"/>
<path d="M23.1428 19.7134C22.2875 19.7159 21.4416 19.5333 20.6634 19.1782C19.8852 18.8232 19.193 18.304 18.6343 17.6562" stroke="white" stroke-width="1.5" stroke-linecap="round" stroke-linejoin="round"/>
<path d="M18.6343 9.77201C19.193 9.1243 19.8852 8.6051 20.6634 8.25002C21.4416 7.89494 22.2875 7.71238 23.1428 7.71487" stroke="white" stroke-width="1.5" stroke-linecap="round" stroke-linejoin="round"/>
<path d="M14.1257 6.29031C14.7816 5.91563 15.3269 5.37422 15.7062 4.72094C16.0855 4.06766 16.2854 3.32573 16.2857 2.57031" stroke="white" stroke-width="1.5" stroke-linecap="round" stroke-linejoin="round"/>
<path d="M7.71423 2.57031C7.71448 3.32573 7.91439 4.06766 8.29371 4.72094C8.67303 5.37422 9.21829 5.91563 9.87423 6.29031" stroke="white" stroke-width="1.5" stroke-linecap="round" stroke-linejoin="round"/>
<path d="M4.47424 12H19.5257" stroke="white" stroke-width="1.5" stroke-linecap="round" stroke-linejoin="round"/>
</svg>
