<svg width="24" height="24" viewBox="0 0 24 24" fill="none" xmlns="http://www.w3.org/2000/svg">
<path d="M8.96569 3.85718L9.70283 1.95432C9.82715 1.63214 10.0459 1.35502 10.3303 1.15926C10.6148 0.963487 10.9518 0.858198 11.2971 0.857178H12.7028C13.0482 0.858198 13.3851 0.963487 13.6696 1.15926C13.9541 1.35502 14.1728 1.63214 14.2971 1.95432L15.0343 3.85718L17.5371 5.29718L19.56 4.98861C19.8968 4.94289 20.2396 4.99833 20.5449 5.1479C20.8501 5.29747 21.104 5.53441 21.2743 5.82861L21.96 7.02861C22.1357 7.32749 22.2166 7.67263 22.1922 8.01847C22.1677 8.36431 22.0389 8.6946 21.8228 8.96575L20.5714 10.56V13.44L21.8571 15.0343C22.0732 15.3055 22.202 15.6358 22.2264 15.9816C22.2509 16.3274 22.17 16.6726 21.9943 16.9715L21.3085 18.1715C21.1383 18.4657 20.8844 18.7026 20.5791 18.8522C20.2739 19.0017 19.9311 19.0572 19.5943 19.0115L17.5714 18.7029L15.0685 20.1429L14.3314 22.0457C14.2071 22.3679 13.9884 22.645 13.7039 22.8408C13.4194 23.0366 13.0824 23.1419 12.7371 23.1429H11.2971C10.9518 23.1419 10.6148 23.0366 10.3303 22.8408C10.0459 22.645 9.82715 22.3679 9.70283 22.0457L8.96569 20.1429L6.46283 18.7029L4.43998 19.0115C4.10315 19.0572 3.76033 19.0017 3.45509 18.8522C3.14985 18.7026 2.89596 18.4657 2.72569 18.1715L2.03998 16.9715C1.86426 16.6726 1.78331 16.3274 1.80779 15.9816C1.83228 15.6358 1.96105 15.3055 2.17712 15.0343L3.42855 13.44V10.56L2.14283 8.96575C1.92677 8.6946 1.79799 8.36431 1.77351 8.01847C1.74902 7.67263 1.82998 7.32749 2.00569 7.02861L2.6914 5.82861C2.86167 5.53441 3.11556 5.29747 3.4208 5.1479C3.72604 4.99833 4.06886 4.94289 4.40569 4.98861L6.42855 5.29718L8.96569 3.85718ZM8.5714 12C8.5714 12.6781 8.77249 13.341 9.14922 13.9048C9.52596 14.4687 10.0614 14.9081 10.6879 15.1676C11.3144 15.4271 12.0038 15.495 12.6689 15.3627C13.3339 15.2304 13.9448 14.9039 14.4243 14.4244C14.9038 13.9449 15.2304 13.334 15.3627 12.6689C15.495 12.0038 15.4271 11.3145 15.1676 10.688C14.9081 10.0615 14.4686 9.52602 13.9048 9.14928C13.341 8.77255 12.6781 8.57146 12 8.57146C11.0907 8.57146 10.2186 8.93269 9.57561 9.57567C8.93263 10.2187 8.5714 11.0907 8.5714 12V12Z" stroke="white" stroke-width="1.5" stroke-linecap="round" stroke-linejoin="round"/>
</svg>
