<svg width="148" height="50" viewBox="0 0 148 50" fill="none" xmlns="http://www.w3.org/2000/svg">
<path d="M62.9819 25.6403C62.9819 32.5805 57.5462 37.6946 50.8753 37.6946C44.2044 37.6946 38.7687 32.5805 38.7687 25.6403C38.7687 18.6512 44.2044 13.5859 50.8753 13.5859C57.5462 13.5859 62.9819 18.6512 62.9819 25.6403ZM57.6822 25.6403C57.6822 21.3033 54.5318 18.3359 50.8753 18.3359C47.2188 18.3359 44.0684 21.3033 44.0684 25.6403C44.0684 29.9338 47.2188 32.9446 50.8753 32.9446C54.5318 32.9446 57.6822 29.9283 57.6822 25.6403Z" fill="#EA4335"/>
<path d="M89.0991 25.6403C89.0991 32.5805 83.6634 37.6946 76.9925 37.6946C70.3216 37.6946 64.8859 32.5805 64.8859 25.6403C64.8859 18.6566 70.3216 13.5859 76.9925 13.5859C83.6634 13.5859 89.0991 18.6512 89.0991 25.6403ZM83.7994 25.6403C83.7994 21.3033 80.649 18.3359 76.9925 18.3359C73.336 18.3359 70.1856 21.3033 70.1856 25.6403C70.1856 29.9338 73.336 32.9446 76.9925 32.9446C80.649 32.9446 83.7994 29.9283 83.7994 25.6403Z" fill="#FBBC05"/>
<path d="M114.129 14.3142V35.9555C114.129 44.8577 108.873 48.4935 102.659 48.4935C96.8098 48.4935 93.2893 44.5859 91.9617 41.3903L96.5758 39.4718C97.3974 41.4338 99.4107 43.749 102.654 43.749C106.631 43.749 109.096 41.2979 109.096 36.6838V34.9501H108.911C107.725 36.412 105.439 37.6892 102.556 37.6892C96.5214 37.6892 90.9932 32.4392 90.9932 25.6838C90.9932 18.8794 96.5214 13.5859 102.556 13.5859C105.434 13.5859 107.719 14.8631 108.911 16.2816H109.096V14.3196H114.129V14.3142ZM109.471 25.6838C109.471 21.4392 106.637 18.3359 103.029 18.3359C99.3726 18.3359 96.3092 21.4392 96.3092 25.6838C96.3092 29.8848 99.3726 32.9446 103.029 32.9446C106.637 32.9446 109.471 29.8848 109.471 25.6838Z" fill="#4285F4"/>
<path d="M122.426 1.63281V36.9589H117.257V1.63281H122.426Z" fill="#34A853"/>
<path d="M142.57 29.6092L146.683 32.3483C145.356 34.3103 142.156 37.6907 136.628 37.6907C129.772 37.6907 124.652 32.3972 124.652 25.6364C124.652 18.4679 129.816 13.582 136.035 13.582C142.298 13.582 145.361 18.5603 146.362 21.2505L146.912 22.6201L130.779 29.294C132.014 31.7125 133.935 32.9462 136.628 32.9462C139.327 32.9462 141.198 31.6201 142.57 29.6092ZM129.908 25.2722L140.692 20.7994C140.099 19.294 138.315 18.2451 136.214 18.2451C133.521 18.2451 129.772 20.6201 129.908 25.2722Z" fill="#EA4335"/>
<path d="M19.2016 22.5078V17.3937H36.4556C36.6242 18.285 36.7113 19.3393 36.7113 20.4806C36.7113 24.3176 35.6611 29.0622 32.2767 32.4426C28.9848 35.8665 24.7788 37.6926 19.207 37.6926C8.87967 37.6926 0.195557 29.2904 0.195557 18.9752C0.195557 8.65999 8.87967 0.257812 19.207 0.257812C24.9203 0.257812 28.9903 2.49694 32.0482 5.41542L28.4353 9.02412C26.2425 6.96977 23.2716 5.37194 19.2016 5.37194C11.6601 5.37194 5.76188 11.4426 5.76188 18.9752C5.76188 26.5078 11.6601 32.5785 19.2016 32.5785C24.0932 32.5785 26.8791 30.6165 28.6638 28.8339C30.1111 27.3882 31.0633 25.323 31.4388 22.5024L19.2016 22.5078Z" fill="#4285F4"/>
</svg>
