<svg width="34" height="34" viewBox="0 0 34 34" fill="none" xmlns="http://www.w3.org/2000/svg">
<path d="M26.5549 8.01983C23 8.01983 20.3171 10.3003 19.2439 13.8839C17.5671 11.3428 16.2256 8.47592 15.4878 6H11.7317V15.5779C11.7317 17.4674 10.122 19.0312 8.17683 19.0312C6.23171 19.0312 4.62195 17.4674 4.62195 15.5779V6.06516H1V15.6431C1 19.6176 4.28659 22.8102 8.31098 22.8102C12.3354 22.8102 15.622 19.6176 15.622 15.6431V14.0142C16.3598 15.4476 17.2988 17.0113 18.3049 18.3796L15.9573 29H19.7805L21.3902 21.2465C22.8659 22.1586 24.5427 22.6799 26.5549 22.6799C30.6463 22.6799 34 19.4221 34 15.2521C34 11.2776 30.6463 8.01983 26.5549 8.01983ZM26.5549 19.0312C25.0793 19.0312 23.5366 18.3796 22.3293 17.4023L22.7317 15.9688V15.9037C23 14.3399 23.872 11.7337 26.622 11.7337C28.7012 11.7337 30.378 13.3626 30.378 15.3824C30.311 17.4023 28.5 19.0312 26.5549 19.0312Z" fill="white"/>
</svg>
