<svg width="35" height="35" viewBox="0 0 35 35" fill="none" xmlns="http://www.w3.org/2000/svg">
<g clip-path="url(#clip0_785_32)">
<mask id="mask0_785_32" style="mask-type:luminance" maskUnits="userSpaceOnUse" x="0" y="0" width="119" height="35">
<path d="M118.447 0.273438H0.363281V34.4198H118.447V0.273438Z" fill="white"/>
</mask>
<g mask="url(#mask0_785_32)">
<path d="M62.596 8.85321C62.596 10.0838 61.5261 11.0748 60.1983 11.0748C58.8706 11.0748 57.8015 10.0838 57.8015 8.85321C57.8015 7.62262 58.8342 6.6317 60.1983 6.6317C61.5637 6.66584 62.596 7.6571 62.596 8.85321ZM52.7122 13.3311V13.8781C52.7122 13.8781 51.5694 12.5102 49.1353 12.5102C45.1159 12.5102 41.9806 15.3474 41.9806 19.2779C41.9806 23.1746 45.0791 26.0455 49.1353 26.0455C51.6062 26.0455 52.7122 24.6442 52.7122 24.6442V25.225C52.7122 25.4985 52.934 25.7031 53.2287 25.7031H56.2154V12.851H53.2287C52.934 12.852 52.7122 13.0917 52.7122 13.3311ZM52.7122 21.568C52.1596 22.3203 51.0528 22.9697 49.7255 22.9697C47.3654 22.9697 45.558 21.6025 45.558 19.2779C45.558 16.9536 47.3654 15.5864 49.7255 15.5864C51.0164 15.5864 52.1964 16.27 52.7122 16.9877V21.568ZM58.4285 12.852H61.9686V25.7041H58.4285V12.852ZM111.313 12.5099C108.878 12.5099 107.734 13.8778 107.734 13.8778V6.66585H104.195V25.7041H107.182C107.478 25.7041 107.698 25.4647 107.698 25.2254V24.6446C107.698 24.6446 108.842 26.0459 111.275 26.0459C115.295 26.0459 118.43 23.1756 118.43 19.2789C118.43 15.3822 115.295 12.5099 111.313 12.5099ZM110.722 22.9352C109.357 22.9352 108.288 22.2865 107.734 21.5339V16.9536C108.288 16.27 109.468 15.5523 110.722 15.5523C113.082 15.5523 114.889 16.9194 114.889 19.2438C114.889 21.568 113.083 22.9352 110.722 22.9352ZM102.351 18.0821V25.7382H98.8104V18.4577C98.8104 16.3389 98.0727 15.484 96.0823 15.484C95.0138 15.484 93.9067 15.9968 93.2049 16.749V25.7044H89.6656V12.8523H92.4671C92.7628 12.8523 92.9838 13.0917 92.9838 13.3311V13.8781C94.0163 12.8865 95.3804 12.5102 96.7454 12.5102C98.2937 12.5102 99.585 12.921 100.618 13.7412C101.871 14.6983 102.351 15.9286 102.351 18.0821ZM81.0716 12.5099C78.6382 12.5099 77.4947 13.8778 77.4947 13.8778V6.66585H73.9545V25.7041H76.9413C77.2364 25.7041 77.4578 25.4647 77.4578 25.2254V24.6446C77.4578 24.6446 78.6013 26.0459 81.0347 26.0459C85.0549 26.0459 88.1893 23.1756 88.1893 19.2789C88.2261 15.3819 85.0917 12.5099 81.0716 12.5099ZM80.4814 22.9352C79.1171 22.9352 78.048 22.2865 77.4947 21.5339V16.9536C78.048 16.27 79.228 15.5523 80.4814 15.5523C82.8421 15.5523 84.6489 16.9194 84.6489 19.2438C84.6489 21.568 82.8421 22.9352 80.4814 22.9352ZM70.8934 12.5099C71.9626 12.5099 72.5159 12.6813 72.5159 12.6813V15.723C72.5159 15.723 69.5656 14.8 67.7221 16.7487V25.7379H64.1812V12.852H67.1688C67.4639 12.852 67.6845 13.0914 67.6845 13.3307V13.8778C68.3491 13.1597 69.7874 12.5099 70.8934 12.5099ZM34.1261 24.5418C33.9419 24.1317 33.7573 23.6875 33.5731 23.3112C33.2776 22.6962 32.9825 22.1147 32.725 21.568L32.6881 21.5339C30.1432 16.4065 27.4147 11.2117 24.5378 6.08503L24.4272 5.87947C24.1247 5.34764 23.8297 4.81208 23.5426 4.27292C23.1735 3.65728 22.8051 3.00851 22.2149 2.39286C21.0349 1.02567 19.3383 0.273438 17.5317 0.273438C15.6874 0.273438 14.028 1.02567 12.8116 2.32423C12.2582 2.93919 11.8522 3.58864 11.4838 4.20429C11.1959 4.74312 10.901 5.27867 10.5992 5.81085L10.4883 6.0164C7.64857 11.1431 4.88289 16.3383 2.33826 21.4652L2.30105 21.5332C2.04316 22.0809 1.74769 22.6617 1.45259 23.2764C1.26838 23.6527 1.08418 24.0628 0.899968 24.5069C0.420294 25.7714 0.272553 26.9678 0.457497 28.1988C0.86312 30.7624 2.70666 32.915 5.25167 33.8727C6.21065 34.249 7.20647 34.4198 8.23876 34.4198C8.53386 34.4198 8.90229 34.3856 9.19775 34.3511C10.415 34.2145 11.6687 33.8389 12.886 33.1895C14.3979 32.4032 15.8362 31.2757 17.4587 29.6349C19.0812 31.2757 20.5563 32.4032 22.0315 33.1895C23.249 33.8389 24.5024 34.2145 25.7193 34.3511C26.0144 34.386 26.3835 34.4198 26.6786 34.4198C27.7112 34.4198 28.7436 34.249 29.6653 33.8727C32.2471 32.915 34.0539 30.7283 34.4599 28.1988C34.7528 27.0027 34.6054 25.8069 34.1261 24.5418ZM17.4945 26.3191C15.5028 23.9948 14.2118 21.8074 13.7697 19.9622C13.5855 19.1758 13.5483 18.4922 13.6592 17.8769C13.7325 17.3299 13.9543 16.8511 14.2494 16.441C14.9501 15.5188 16.1302 14.9373 17.4948 14.9373C18.8597 14.9373 20.0766 15.4843 20.7405 16.441C21.0356 16.8511 21.2567 17.3302 21.3311 17.8769C21.4413 18.4925 21.4044 19.21 21.2202 19.9622C20.7763 21.7732 19.4853 23.961 17.4945 26.3191ZM32.2081 27.9256C31.9502 29.7029 30.6593 31.2415 28.8526 31.9251C27.9677 32.2666 27.0083 32.3694 26.0501 32.2666C25.1283 32.1638 24.2058 31.8903 23.2475 31.3781C21.9198 30.6938 20.5924 29.6349 19.0432 28.0622C21.477 25.294 22.9521 22.7642 23.5054 20.5088C23.7637 19.449 23.8009 18.4922 23.6896 17.603C23.5426 16.7487 23.2103 15.9623 22.6942 15.2788C21.5503 13.7401 19.6323 12.852 17.4941 12.852C15.3558 12.852 13.4378 13.775 12.2947 15.2788C11.7785 15.9623 11.4462 16.7487 11.2988 17.603C11.1514 18.4922 11.1879 19.4831 11.483 20.5088C12.036 22.7642 13.5479 25.3278 15.9449 28.0964C14.4329 29.6687 13.0683 30.7286 11.7406 31.4122C10.7816 31.9251 9.86013 32.1986 8.93839 32.3007C7.94293 32.4035 6.98358 32.2666 6.1355 31.9593C4.3288 31.2757 3.03787 29.737 2.77998 27.9598C2.66946 27.1055 2.74277 26.2511 3.11192 25.294C3.22208 24.9518 3.40702 24.6105 3.59123 24.2004C3.84948 23.6533 4.14385 23.0718 4.43932 22.491L4.47654 22.423C7.0208 17.3299 9.74961 12.1346 12.5894 7.07627L12.6999 6.87072C12.9954 6.35854 13.2905 5.81153 13.5851 5.29866C13.8803 4.75164 14.2118 4.23877 14.6178 3.7942C15.3923 2.9747 16.4246 2.52978 17.5681 2.52978C18.7116 2.52978 19.7439 2.9747 20.5184 3.7942C20.9244 4.2398 21.2559 4.75267 21.5511 5.29866C21.8465 5.81153 22.1416 6.35854 22.4359 6.87072L22.5468 7.07627C25.3433 12.1557 28.0359 17.2835 30.6232 22.4572V22.4913C30.9187 23.039 31.1766 23.6537 31.4717 24.2014C31.6559 24.6108 31.8404 24.9522 31.9509 25.2943C32.2453 26.1821 32.3558 27.0372 32.2081 27.9256Z" fill="white"/>
</g>
</g>
<defs>
<clipPath id="clip0_785_32">
<rect width="35" height="35" fill="white"/>
</clipPath>
</defs>
</svg>
