<svg width="102" height="102" viewBox="0 0 102 102" fill="none" xmlns="http://www.w3.org/2000/svg">
<path d="M80.1067 41.6322L73.7946 35.3201C70.8064 32.3977 66.7798 30.7817 62.6003 30.8276C58.4209 30.8735 54.4307 32.5776 51.5075 35.5651L50.7505 36.3221L65.1781 50.7497L65.9352 51.5068C68.9226 54.43 70.6267 58.4201 70.6727 62.5996C70.7186 66.7791 69.1026 70.8057 66.1801 73.7938L59.868 80.1059C48.1924 91.7816 29.0522 91.5712 17.1172 79.6362L29.1402 91.6592C41.0753 103.594 60.2154 103.805 71.891 92.129L79.637 84.383C91.5719 72.448 91.7823 53.3079 80.1067 41.6322Z" stroke="#EF4823" stroke-width="1.5" stroke-linecap="round" stroke-linejoin="round"/>
<path d="M21.394 59.8677L27.7061 66.1798C30.6943 69.1023 34.7209 70.7183 38.9004 70.6723C43.0799 70.6264 47.07 68.9223 49.9932 65.9349L50.7502 65.1778L36.3226 50.7502L35.5656 49.9932C32.5781 47.07 30.874 43.0799 30.828 38.9004C30.7821 34.7209 32.3981 30.6943 35.3206 27.7061L41.6327 21.394C53.3083 9.71838 72.4485 9.9287 84.3835 21.8637L72.3605 9.84072C60.4254 -2.09434 41.2853 -2.30466 29.6097 9.37098L21.8638 17.1169C9.92877 29.0519 9.71838 48.1921 21.394 59.8677Z" stroke="#EF4823" stroke-width="1.5" stroke-linecap="round" stroke-linejoin="round"/>
<path d="M59.8677 80.1067L66.1798 73.7946C69.1023 70.8064 70.7183 66.7798 70.6724 62.6003C70.6264 58.4209 68.9223 54.4307 65.9349 51.5075L65.1778 50.7505L50.7502 65.1781L49.9932 65.9351C47.07 68.9226 43.0799 70.6267 38.9004 70.6727C34.7209 70.7186 30.6943 69.1026 27.7061 66.1801L21.394 59.868C9.71838 48.1924 9.9287 29.0522 21.8637 17.1172L9.84072 29.1402C-2.09434 41.0753 -2.30466 60.2154 9.37098 71.891L17.1169 79.6369C29.0519 91.5719 48.1921 91.7823 59.8677 80.1067Z" stroke="#EF4823" stroke-width="1.5" stroke-linecap="round" stroke-linejoin="round"/>
<path d="M41.6322 21.3939L35.3201 27.706C32.3977 30.6942 30.7817 34.7208 30.8276 38.9002C30.8735 43.0797 32.5776 47.0698 35.5651 49.9931L36.3221 50.7501L50.7498 36.3224L51.5068 35.5654C54.43 32.578 58.4201 30.8739 62.5996 30.8279C66.7791 30.782 70.8057 32.398 73.7938 35.3205L80.1059 41.6326C91.7816 53.3082 91.5713 72.4483 79.6362 84.3834L91.6592 72.3604C103.594 60.4253 103.805 41.2852 92.129 29.6095L84.3831 21.8636C72.448 9.92865 53.3079 9.71827 41.6322 21.3939Z" stroke="#EF4823" stroke-width="1.5" stroke-linecap="round" stroke-linejoin="round"/>
</svg>
