<svg width="50" height="50" viewBox="0 0 50 50" fill="none" xmlns="http://www.w3.org/2000/svg">
<g clip-path="url(#clip0_594_319)">
<path d="M24.7056 0.000408709C22.6663 0.00988137 20.7189 0.183807 19.0055 0.48703C13.9577 1.37883 13.0412 3.24533 13.0412 6.68762V11.2338H24.9696V12.7491H13.0412H8.56454C5.09784 12.7491 2.0622 14.8328 1.11278 18.7968C0.0175669 23.3404 -0.0309683 26.1757 1.11278 30.9199C1.96073 34.4513 3.98563 36.9675 7.45233 36.9675H11.5536V31.5176C11.5536 27.5804 14.9601 24.1075 19.0055 24.1075H30.92C34.2366 24.1075 36.8842 21.3768 36.8842 18.046V6.68762C36.8842 3.455 34.157 1.02658 30.92 0.48703C28.8709 0.145917 26.7447 -0.00906395 24.7056 0.000408709ZM18.2547 3.65685C19.4868 3.65685 20.493 4.67951 20.493 5.93683C20.493 7.18976 19.4868 8.20295 18.2547 8.20295C17.0182 8.20295 16.0164 7.18976 16.0164 5.93683C16.0164 4.67941 17.0182 3.65685 18.2547 3.65685Z" fill="white"/>
<path d="M38.3718 12.7482V18.0451C38.3718 22.1518 34.8901 25.6081 30.92 25.6081H19.0055C15.7419 25.6081 13.0412 28.4013 13.0412 31.6696V43.028C13.0412 46.2606 15.8522 48.1621 19.0055 49.0896C22.7813 50.1998 26.4022 50.4005 30.92 49.0896C33.923 48.2201 36.8842 46.4703 36.8842 43.028V38.4818H24.9696V36.9664H36.8842H42.8484C46.3151 36.9664 47.607 34.5483 48.8127 30.9188C50.0581 27.1823 50.0051 23.5891 48.8127 18.7957C47.9559 15.3445 46.3196 12.748 42.8484 12.748H38.3718V12.7482ZM31.6708 41.5127C32.9073 41.5127 33.9091 42.5259 33.9091 43.7788C33.9091 45.0362 32.9073 46.0589 31.6708 46.0589C30.4387 46.0589 29.4325 45.0362 29.4325 43.7788C29.4324 42.5259 30.4386 41.5127 31.6708 41.5127Z" fill="white"/>
</g>
<defs>
<clipPath id="clip0_594_319">
<rect width="50" height="50" fill="white"/>
</clipPath>
</defs>
</svg>
