<svg width="24" height="24" viewBox="0 0 24 24" fill="none" xmlns="http://www.w3.org/2000/svg">
<path d="M12 17.8438C18.3684 17.8438 23.5312 15.2274 23.5312 12C23.5312 8.7726 18.3684 6.15617 12 6.15617C5.63156 6.15617 0.46875 8.7726 0.46875 12C0.46875 15.2274 5.63156 17.8438 12 17.8438Z" fill="white"/>
<path d="M6.51975 12.7275C7.04339 12.7275 7.43432 12.6309 7.68165 12.4406C7.92634 12.2521 8.09535 11.9257 8.18394 11.4704C8.26654 11.0448 8.23509 10.7476 8.09043 10.5872C7.94253 10.4234 7.62287 10.3404 7.14018 10.3404H6.30333L5.83942 12.7275L6.51975 12.7275ZM3.78265 15.668C3.74381 15.668 3.70691 15.6506 3.68221 15.6206C3.65746 15.5906 3.64742 15.5511 3.65487 15.5129L4.88442 9.18697C4.89633 9.12584 4.94989 9.08161 5.01225 9.08161H7.66218C8.49498 9.08161 9.11488 9.30776 9.50447 9.75378C9.89617 10.2022 10.0171 10.829 9.86397 11.6167C9.80167 11.9376 9.69443 12.2356 9.54536 12.5025C9.39612 12.7697 9.19883 13.0168 8.95895 13.2373C8.67179 13.5061 8.34679 13.701 7.99387 13.8156C7.64651 13.9288 7.20043 13.9862 6.66799 13.9862H5.59496L5.2885 15.5626C5.27659 15.6238 5.22303 15.668 5.16073 15.668H3.78265Z" fill="#161616"/>
<path d="M6.41083 10.4692H7.14032C7.7228 10.4692 7.92519 10.597 7.99395 10.6732C8.10799 10.7997 8.12952 11.0664 8.05625 11.4443C7.97388 11.8675 7.82118 12.1675 7.60236 12.336C7.37832 12.5085 7.01408 12.5959 6.51983 12.5959H5.99754L6.41083 10.4692ZM7.66214 8.9501H5.01221C4.88755 8.9501 4.78037 9.03845 4.75661 9.16082L3.52713 15.4868C3.51229 15.5632 3.53235 15.6421 3.58174 15.7021C3.6312 15.7621 3.70494 15.7969 3.78273 15.7969H5.16075C5.28547 15.7969 5.39259 15.7085 5.41641 15.5862L5.70234 14.115H6.66802C7.21412 14.115 7.67382 14.0555 8.03431 13.9381C8.40501 13.8177 8.74608 13.6134 9.04791 13.3312C9.29759 13.1015 9.5032 12.8437 9.65902 12.5648C9.81489 12.2858 9.92688 11.9747 9.99182 11.6402C10.1531 10.8111 10.0221 10.1471 9.60252 9.66686C9.18706 9.19127 8.53419 8.9501 7.66214 8.9501ZM5.68157 12.8563H6.51983C7.07544 12.8563 7.48926 12.7517 7.76117 12.5424C8.03313 12.333 8.21652 11.9835 8.31185 11.4939C8.40301 11.0238 8.36148 10.692 8.18725 10.4987C8.01278 10.3054 7.66384 10.2088 7.14032 10.2088H6.19612L5.68157 12.8563ZM7.66214 9.21051C8.45933 9.21051 9.04087 9.41971 9.40641 9.83816C9.77189 10.2566 9.882 10.8407 9.73616 11.5905C9.67615 11.8995 9.5746 12.1819 9.43169 12.4377C9.28861 12.6937 9.10176 12.9278 8.87086 13.1401C8.59567 13.3977 8.29003 13.5812 7.95364 13.6905C7.61726 13.8001 7.18884 13.8546 6.66802 13.8546H5.48763L5.16075 15.5365H3.78273L5.01221 9.21051H7.66214Z" fill="white"/>
<path d="M13.0236 13.9844C12.9847 13.9844 12.9479 13.967 12.9232 13.937C12.8984 13.907 12.8884 13.8675 12.8958 13.8293L13.4396 11.0303C13.4914 10.7642 13.4786 10.5731 13.4037 10.4924C13.3579 10.443 13.2202 10.3603 12.8132 10.3603H11.8278L11.144 13.879C11.1321 13.9402 11.0786 13.9844 11.0162 13.9844H9.64904C9.61014 13.9844 9.5733 13.967 9.54855 13.937C9.52379 13.907 9.51376 13.8675 9.52121 13.8293L10.7507 7.50332C10.7626 7.44219 10.8162 7.39795 10.8785 7.39795H12.2457C12.2846 7.39795 12.3214 7.41532 12.3462 7.4453C12.3709 7.47533 12.381 7.51476 12.3735 7.553L12.0768 9.0798H13.1368C13.9443 9.0798 14.4919 9.22218 14.8108 9.51503C15.1359 9.81381 15.2373 10.2916 15.1123 10.9351L14.5403 13.8789C14.5284 13.9401 14.4748 13.9843 14.4125 13.9843H13.0236V13.9844Z" fill="#161616"/>
<path d="M12.2457 7.26651H10.8785C10.7538 7.26651 10.6466 7.35486 10.6228 7.47723L9.39334 13.8032C9.3785 13.8796 9.39856 13.9585 9.44801 14.0185C9.49747 14.0786 9.57121 14.1133 9.649 14.1133H11.0162C11.1408 14.1133 11.248 14.0249 11.2718 13.9026L11.9351 10.4892H12.8131C13.2195 10.4892 13.3048 10.576 13.3082 10.5797C13.3328 10.6062 13.3653 10.7291 13.3118 11.0042L12.7679 13.8032C12.753 13.8795 12.7731 13.9585 12.8226 14.0185C12.872 14.0785 12.9458 14.1132 13.0235 14.1132H14.4124C14.5371 14.1132 14.6443 14.0249 14.6681 13.9025L15.2401 10.9587C15.3743 10.2677 15.2595 9.74936 14.8989 9.4179C14.5547 9.10188 13.9784 8.9483 13.1368 8.9483H12.2347L12.5013 7.57655C12.5161 7.50023 12.4961 7.42121 12.4466 7.36125C12.3971 7.3013 12.3234 7.26651 12.2457 7.26651ZM12.2457 7.52692L11.9188 9.20877H13.1368C13.9032 9.20877 14.4317 9.34252 14.7226 9.60974C15.0136 9.87707 15.1007 10.3103 14.9845 10.9092L14.4124 13.8529H13.0235L13.5674 11.0539C13.6293 10.7355 13.6066 10.5183 13.4991 10.4025C13.3916 10.2867 13.1629 10.2288 12.8132 10.2288H11.7205L11.0162 13.8529H9.64905L10.8785 7.52692H12.2457Z" fill="white"/>
<path d="M17.2756 12.7275C17.7993 12.7275 18.1902 12.6309 18.4375 12.4406C18.6822 12.2522 18.8512 11.9258 18.9399 11.4704C19.0225 11.0448 18.991 10.7476 18.8464 10.5872C18.6985 10.4234 18.3788 10.3404 17.8962 10.3404H17.0593L16.5954 12.7275L17.2756 12.7275ZM14.5385 15.668C14.4997 15.668 14.4628 15.6506 14.4381 15.6206C14.4133 15.5906 14.4033 15.5511 14.4107 15.5129L15.6402 9.18691C15.6521 9.12578 15.7057 9.08155 15.7681 9.08155H18.4179C19.2508 9.08155 19.8707 9.3077 20.2603 9.75372C20.652 10.2021 20.7729 10.8289 20.6198 11.6166C20.5574 11.9375 20.4502 12.2356 20.3011 12.5024C20.1519 12.7696 19.9546 13.0168 19.7147 13.2373C19.4276 13.506 19.1026 13.7009 18.7496 13.8156C18.4023 13.9287 17.9562 13.9861 17.4238 13.9861H16.3507L16.0444 15.5626C16.0325 15.6238 15.979 15.668 15.9166 15.668H14.5385Z" fill="#161616"/>
<path d="M17.1667 10.4692H17.8962C18.4787 10.4692 18.6811 10.597 18.7498 10.6732C18.8639 10.7997 18.8854 11.0664 18.8121 11.4443C18.7297 11.8675 18.577 12.1675 18.3582 12.336C18.1342 12.5085 17.7699 12.5959 17.2757 12.5959H16.7534L17.1667 10.4692ZM18.418 8.9501H15.7681C15.6434 8.9501 15.5362 9.03845 15.5125 9.16082L14.283 15.4868C14.2681 15.5632 14.2882 15.6421 14.3376 15.7021C14.3871 15.7621 14.4608 15.7969 14.5386 15.7969H15.9166C16.0413 15.7969 16.1485 15.7085 16.1723 15.5862L16.4581 14.115H17.4238C17.9699 14.115 18.4296 14.0555 18.7901 13.9381C19.1608 13.8177 19.5019 13.6134 19.8038 13.331C20.0535 13.1014 20.2591 12.8437 20.4149 12.5648C20.5707 12.2858 20.6827 11.9747 20.7477 11.6402C20.9089 10.811 20.7779 10.147 20.3584 9.6668C19.9429 9.19127 19.2901 8.9501 18.418 8.9501ZM16.4375 12.8563H17.2757C17.8313 12.8563 18.2451 12.7517 18.517 12.5424C18.7891 12.333 18.9724 11.9835 19.0677 11.4939C19.1589 11.0238 19.1174 10.692 18.9431 10.4987C18.7686 10.3054 18.4197 10.2088 17.8962 10.2088H16.952L16.4375 12.8563ZM18.418 9.21051C19.2152 9.21051 19.7967 9.41971 20.1623 9.83816C20.5278 10.2566 20.6378 10.8407 20.492 11.5905C20.432 11.8995 20.3305 12.1819 20.1876 12.4377C20.0445 12.6937 19.8576 12.9278 19.6267 13.1401C19.3515 13.3977 19.0459 13.5812 18.7095 13.6905C18.3731 13.8001 17.9447 13.8546 17.4239 13.8546H16.2435L15.9167 15.5365H14.5386L15.7681 9.21051H18.418Z" fill="white"/>
</svg>
