<svg width="50" height="50" viewBox="0 0 50 50" fill="none" xmlns="http://www.w3.org/2000/svg">
<circle cx="25" cy="25" r="25" fill="#EF4823"/>
<path fill-rule="evenodd" clip-rule="evenodd" d="M29.7423 30.2196C30.0607 29.8698 30.0554 29.3127 29.727 28.9695L21.5396 20.4274L25.5862 16.2057L31.9524 22.8478C33.2874 24.2412 33.2874 26.5208 31.9524 27.9141L29.7423 30.2196Z" fill="white"/>
<path fill-rule="evenodd" clip-rule="evenodd" d="M29.7423 30.2196L29.727 30.2362L23.6989 36.5254C22.5097 37.7662 22.5097 39.7903 23.6989 41.0311L25.5862 43L35.9986 32.1359C37.3338 30.743 37.3338 28.4629 35.9986 27.0699L31.9523 22.8478C33.2873 24.2412 33.2873 26.5208 31.9523 27.9141L29.7423 30.2196Z" fill="white"/>
<path fill-rule="evenodd" clip-rule="evenodd" d="M20.2574 19.7804C19.9393 20.1302 19.9445 20.6873 20.2729 21.0306L28.4604 29.5727L24.4138 33.7944L18.0477 27.1522C16.7126 25.7589 16.7126 23.4793 18.0477 22.086L20.2574 19.7804Z" fill="white"/>
<path fill-rule="evenodd" clip-rule="evenodd" d="M20.2575 19.7804L20.273 19.7638L26.3011 13.4747C27.4903 12.2339 27.4903 10.2097 26.3011 8.9689L24.4139 7L14.0017 17.8642C12.6661 19.2571 12.6661 21.5372 14.0017 22.9302L18.0479 27.1522C16.7127 25.7589 16.7127 23.4793 18.0479 22.086L20.2575 19.7804Z" fill="white"/>
</svg>
